<svg width="25" height="18" viewBox="0 0 25 18" fill="none" xmlns="http://www.w3.org/2000/svg">
<path d="M19.5 1.15H5.5C4.47892 1.15 3.49965 1.55562 2.77764 2.27764C2.05562 2.99965 1.65 3.97892 1.65 5V13C1.65 14.0211 2.05562 15.0003 2.77764 15.7224C3.49965 16.4444 4.47892 16.85 5.5 16.85H19.5C20.5211 16.85 21.5003 16.4444 22.2224 15.7224C22.9444 15.0003 23.35 14.0211 23.35 13V5C23.35 3.97892 22.9444 2.99965 22.2224 2.27764C21.5003 1.55562 20.5211 1.15 19.5 1.15ZM11.5 11.15H7.5C7.46022 11.15 7.42206 11.1342 7.39393 11.1061C7.3658 11.0779 7.35 11.0398 7.35 11C7.35 10.9602 7.3658 10.9221 7.39393 10.8939C7.42206 10.8658 7.46022 10.85 7.5 10.85H11.5C11.5398 10.85 11.5779 10.8658 11.6061 10.8939C11.6342 10.9221 11.65 10.9602 11.65 11C11.65 11.0398 11.6342 11.0779 11.6061 11.1061C11.5779 11.1342 11.5398 11.15 11.5 11.15ZM17.5 11.15H15.5C15.4602 11.15 15.4221 11.1342 15.3939 11.1061C15.3658 11.0779 15.35 11.0398 15.35 11C15.35 10.9602 15.3658 10.9221 15.3939 10.8939C15.4221 10.8658 15.4602 10.85 15.5 10.85H17.5C17.5398 10.85 17.5779 10.8658 17.6061 10.8939C17.6342 10.9221 17.65 10.9602 17.65 11C17.65 11.0398 17.6342 11.0779 17.6061 11.1061C17.5779 11.1342 17.5398 11.15 17.5 11.15ZM19.65 5.15H5.35V5C5.35 4.96022 5.3658 4.92207 5.39393 4.89393C5.42207 4.8658 5.46022 4.85 5.5 4.85H19.5C19.5398 4.85 19.5779 4.8658 19.6061 4.89393C19.6342 4.92206 19.65 4.96022 19.65 5V5.15Z" stroke="#B5B5B9" stroke-width="1.7"/>
</svg>
