<svg width="20" height="20" viewBox="0 0 20 20" fill="none" xmlns="http://www.w3.org/2000/svg">
<path d="M18.0508 0.0546875H15.7508C15.4458 0.0546875 15.1533 0.165751 14.9376 0.363446C14.7219 0.56114 14.6008 0.829272 14.6008 1.10885V19.0213H19.2008V1.10885C19.2008 0.829272 19.0796 0.56114 18.864 0.363446C18.6483 0.165751 18.3558 0.0546875 18.0508 0.0546875ZM11.1508 6.37969H8.85078C8.54578 6.37969 8.25328 6.49075 8.03761 6.68845C7.82194 6.88614 7.70078 7.15427 7.70078 7.43385V19.0213H12.3008V7.43385C12.3008 7.15427 12.1796 6.88614 11.964 6.68845C11.7483 6.49075 11.4558 6.37969 11.1508 6.37969ZM4.25078 12.7047H1.95078C1.64578 12.7047 1.35328 12.8158 1.13761 13.0134C0.921942 13.2111 0.800781 13.4793 0.800781 13.7589V19.0213H5.40078V13.7589C5.40078 13.4793 5.27962 13.2111 5.06395 13.0134C4.84829 12.8158 4.55578 12.7047 4.25078 12.7047Z" fill="#2B41B8"/>
</svg>
