<svg width="21" height="21" viewBox="0 0 21 21" fill="none" xmlns="http://www.w3.org/2000/svg">
<path d="M18.5508 1.05469H16.2508C15.9458 1.05469 15.6533 1.16575 15.4376 1.36345C15.2219 1.56114 15.1008 1.82927 15.1008 2.10885V20.0213H19.7008V2.10885C19.7008 1.82927 19.5796 1.56114 19.364 1.36345C19.1483 1.16575 18.8558 1.05469 18.5508 1.05469ZM11.6508 7.37969H9.35078C9.04578 7.37969 8.75328 7.49075 8.53761 7.68845C8.32194 7.88614 8.20078 8.15427 8.20078 8.43385V20.0213H12.8008V8.43385C12.8008 8.15427 12.6796 7.88614 12.464 7.68845C12.2483 7.49075 11.9558 7.37969 11.6508 7.37969ZM4.75078 13.7047H2.45078C2.14578 13.7047 1.85328 13.8158 1.63761 14.0134C1.42194 14.2111 1.30078 14.4793 1.30078 14.7589V20.0213H5.90078V14.7589C5.90078 14.4793 5.77962 14.2111 5.56395 14.0134C5.34829 13.8158 5.05578 13.7047 4.75078 13.7047Z" stroke="#B5B5B9" stroke-width="1.7"/>
</svg>
