<svg width="462" height="161" viewBox="0 0 462 161" fill="none" xmlns="http://www.w3.org/2000/svg">
<path d="M204.65 60.8235H182.559L209.918 90.7367H180.395L154.031 60.8235L136.183 40.8814H188.646C194.778 40.8814 199.748 36.194 199.748 30.4118C199.748 24.6295 194.778 19.9421 188.646 19.9421H117.442L99.5928 0H204.65C212.241 0 218.395 5.80346 218.395 12.9624V47.8611C218.395 55.0201 212.241 60.8235 204.65 60.8235Z" fill="#2B41B8"/>
<path d="M78.0508 0.246112L63.0877 16.9508L63.097 16.962L0 90.7367H27.4317L76.7237 34.5331L124.509 90.7367H154.044L78.0508 0.246112Z" fill="#2B41B8"/>
<path d="M158.335 95.8466L158.13 96V95.602L158.335 95.8466Z" fill="#2B41B8"/>
<path d="M76.7736 52.8438L96.2015 74.0352H58.3457L76.7736 52.8438Z" fill="#2B41B8"/>
<path d="M43.0773 90.4874L52.6216 80.7656H101.868L110.413 90.4874H43.0773Z" fill="#2B41B8"/>
<path d="M223.001 30.2464C223.001 43.9168 219 54.4989 213 57.9989C208.5 59.9989 199.748 44.0822 199.748 30.4118C199.748 16.7413 211.666 2.50045 215 4.5C217.5 7 223.001 16.576 223.001 30.2464Z" fill="#2B41B8"/>
<path d="M362.232 0H338.971V0.955856L301.391 59.7472L263.2 0H240V90.7367H262.878V36.8065L288.748 72.7888L301.336 90.7367L313.595 72.7888L338.971 37.9275V90.7367H362.232V37.3392L387.719 72.7888L400.307 90.7367L412.566 72.7888L438.358 37.3544V90.7367H461.202V0H438.358V0.303256L400.362 59.7472L362.232 0.0949131V0Z" fill="#2B41B8"/>
<path d="M0 134.946H99.3711V140.054H0V134.946Z" fill="#5A5A5A"/>
<path d="M153.667 152.629C149.14 157.946 142.493 161 135.445 161C122.323 161 111.664 150.424 111.664 137.472C111.664 124.52 122.323 114 135.445 114C141.748 114 147.822 116.489 152.291 120.9L146.561 126.556C143.639 123.671 139.628 121.975 135.445 121.975C126.792 121.975 119.744 128.931 119.744 137.472C119.744 146.012 126.792 153.025 135.445 153.025C139.227 153.025 142.837 151.668 145.644 149.292V142.279H134.069V134.248H153.667V152.629Z" fill="#5A5A5A"/>
<path d="M185.401 115.022C193.58 115.022 200.157 121.524 200.157 129.54C200.157 135.482 196.554 140.583 191.292 142.825L201.816 159.978H193.294L183.513 144.002H174.992V159.978H166.984V115.022H185.401ZM185.401 122.926H174.992V136.099H185.687C189.29 135.93 192.15 133.072 192.15 129.54C192.15 125.897 189.118 122.926 185.401 122.926Z" fill="#5A5A5A"/>
<path d="M234.569 114C247.556 114 258.16 124.533 258.16 137.5C258.16 150.467 247.556 161 234.569 161C221.583 161 211.036 150.467 211.036 137.5C211.036 124.533 221.583 114 234.569 114ZM234.569 121.984C226.006 121.984 219.031 128.949 219.031 137.5C219.031 146.051 226.006 153.016 234.569 153.016C243.132 153.016 250.164 146.051 250.164 137.5C250.164 128.949 243.132 121.984 234.569 121.984Z" fill="#5A5A5A"/>
<path d="M268.404 142.972V114H276.468V142.972C276.468 148.444 280.871 152.879 286.304 152.879C291.736 152.879 296.197 148.444 296.197 142.972V114H304.26V142.972C304.26 152.936 296.197 161 286.304 161C276.41 161 268.404 152.936 268.404 142.972Z" fill="#5A5A5A"/>
<path d="M316.553 115.022H334.753C342.836 115.022 349.336 121.524 349.336 129.54C349.336 137.556 342.836 144.002 334.753 144.002H324.466V159.978H316.553V115.022ZM334.753 122.87H324.466V136.155H334.753C338.427 136.155 341.423 133.184 341.423 129.54C341.423 125.897 338.427 122.87 334.753 122.87Z" fill="#5A5A5A"/>
<path d="M361.629 134.946H461V140.054H361.629V134.946Z" fill="#5A5A5A"/>
</svg>
