<svg width="20" height="20" viewBox="0 0 20 20" fill="none" xmlns="http://www.w3.org/2000/svg">
<path fill-rule="evenodd" clip-rule="evenodd" d="M3.125 1.66667C2.73823 1.66667 2.36729 1.82031 2.0938 2.0938C1.82031 2.36729 1.66667 2.73823 1.66667 3.125V5.41667C1.66667 5.8769 1.29357 6.25 0.833333 6.25C0.373096 6.25 0 5.8769 0 5.41667V3.125C0 2.2962 0.32924 1.50134 0.915291 0.915291C1.50134 0.32924 2.2962 0 3.125 0H5.41667C5.8769 0 6.25 0.373096 6.25 0.833333C6.25 1.29357 5.8769 1.66667 5.41667 1.66667H3.125ZM13.75 0.833333C13.75 0.373096 14.1231 0 14.5833 0H16.875C17.7038 0 18.4987 0.32924 19.0847 0.915291C19.6708 1.50134 20 2.2962 20 3.125V5.41667C20 5.8769 19.6269 6.25 19.1667 6.25C18.7064 6.25 18.3333 5.8769 18.3333 5.41667V3.125C18.3333 2.73823 18.1797 2.36729 17.9062 2.0938C17.6327 1.82031 17.2618 1.66667 16.875 1.66667H14.5833C14.1231 1.66667 13.75 1.29357 13.75 0.833333ZM5.72917 7.70833C5.72917 7.2481 6.10226 6.875 6.5625 6.875H6.57396C7.0342 6.875 7.40729 7.2481 7.40729 7.70833C7.40729 8.16857 7.0342 8.54167 6.57396 8.54167H6.5625C6.10226 8.54167 5.72917 8.16857 5.72917 7.70833ZM12.6042 7.70833C12.6042 7.2481 12.9773 6.875 13.4375 6.875H13.449C13.9092 6.875 14.2823 7.2481 14.2823 7.70833C14.2823 8.16857 13.9092 8.54167 13.449 8.54167H13.4375C12.9773 8.54167 12.6042 8.16857 12.6042 7.70833ZM6.5522 12.8423C6.88095 12.5202 7.40856 12.5255 7.73065 12.8543C8.02647 13.1562 8.37955 13.3961 8.76922 13.5598C9.1589 13.7235 9.57732 13.8079 10 13.8079C10.4227 13.8079 10.8411 13.7235 11.2308 13.5598C11.6205 13.3961 11.9735 13.1562 12.2693 12.8543C12.5914 12.5255 13.1191 12.5202 13.4478 12.8423C13.7765 13.1644 13.7819 13.692 13.4598 14.0207C13.0088 14.481 12.4705 14.8467 11.8764 15.0963C11.2823 15.346 10.6444 15.4745 10 15.4745C9.35559 15.4745 8.71766 15.346 8.12357 15.0963C7.52948 14.8467 6.99117 14.481 6.54018 14.0207C6.21808 13.692 6.22346 13.1644 6.5522 12.8423ZM0.833333 13.75C1.29357 13.75 1.66667 14.1231 1.66667 14.5833V16.875C1.66667 17.2618 1.82031 17.6327 2.0938 17.9062C2.36729 18.1797 2.73823 18.3333 3.125 18.3333H5.41667C5.8769 18.3333 6.25 18.7064 6.25 19.1667C6.25 19.6269 5.8769 20 5.41667 20H3.125C2.2962 20 1.50134 19.6708 0.915291 19.0847C0.32924 18.4987 0 17.7038 0 16.875V14.5833C0 14.1231 0.373096 13.75 0.833333 13.75ZM19.1667 13.75C19.6269 13.75 20 14.1231 20 14.5833V16.875C20 17.7038 19.6708 18.4987 19.0847 19.0847C18.4987 19.6708 17.7038 20 16.875 20H14.5833C14.1231 20 13.75 19.6269 13.75 19.1667C13.75 18.7064 14.1231 18.3333 14.5833 18.3333H16.875C17.2618 18.3333 17.6327 18.1797 17.9062 17.9062C18.1797 17.6327 18.3333 17.2618 18.3333 16.875V14.5833C18.3333 14.1231 18.7064 13.75 19.1667 13.75Z" fill="#2B41B8"/>
</svg>
