<svg width="159" height="168" viewBox="0 0 159 168" fill="none" xmlns="http://www.w3.org/2000/svg">
<g clip-path="url(#clip0_11164_54220)">
<path d="M161.6 153.462L166.679 145.396C171.682 145.531 176.575 146.885 180.936 149.341C172.165 150.826 167.54 160.687 159.735 164.958C157.291 166.271 154.582 167.017 151.811 167.14C149.039 167.264 146.275 166.762 143.723 165.671L136.969 165.885C138.464 161.661 140.856 157.811 143.981 154.602C147.107 151.392 150.89 148.898 155.072 147.291C157.427 146.414 159.882 145.836 162.381 145.572C161.779 149.42 161.6 153.462 161.6 153.462Z" fill="#F2F2F2"/>
<path d="M157.447 39.8271V14.6005C157.447 12.6831 157.069 10.7845 156.336 9.01311C155.603 7.2417 154.528 5.63216 153.172 4.27638C151.817 2.9206 150.208 1.84514 148.438 1.1114C146.667 0.377653 144.769 0 142.853 0H89.4301C87.5135 -3.62267e-07 85.6158 0.377653 83.8451 1.1114C82.0745 1.84514 80.4656 2.9206 79.1105 4.27638C77.7553 5.63216 76.6803 7.2417 75.9468 9.01312C75.2134 10.7845 74.8359 12.6831 74.8359 14.6005V152.996C74.8359 156.868 76.3735 160.582 79.1105 163.32C81.8474 166.058 85.5594 167.596 89.43 167.596H142.853C146.723 167.596 150.435 166.058 153.172 163.32C155.909 160.582 157.447 156.868 157.447 152.996V57.7838C157.691 57.7838 157.925 57.6868 158.098 57.5141C158.27 57.3414 158.367 57.1072 158.367 56.863V40.748C158.367 40.5037 158.27 40.2695 158.098 40.0968C157.925 39.9241 157.691 39.8271 157.447 39.8271Z" fill="#3F3D56"/>
<path d="M154.341 14.7011V152.896C154.342 155.767 153.21 158.522 151.192 160.562C149.173 162.603 146.432 163.764 143.563 163.794C143.523 163.798 143.483 163.8 143.444 163.799H89.7608C86.8707 163.799 84.099 162.65 82.0554 160.605C80.0118 158.561 78.8636 155.788 78.8633 152.896V14.7011C78.8635 11.8097 80.0118 9.03686 82.0554 6.99234C84.099 4.94782 86.8707 3.7991 89.7608 3.79883H96.2755C95.9553 4.58566 95.8332 5.43916 95.9201 6.28426C96.007 7.12935 96.3002 7.94014 96.7738 8.64526C97.2474 9.35039 97.8871 9.92826 98.6364 10.328C99.3857 10.7278 100.222 10.9372 101.071 10.9378H131.676C132.525 10.9354 133.36 10.7249 134.108 10.3245C134.856 9.92416 135.495 9.34628 135.967 8.64154C136.44 7.93681 136.733 7.12675 136.82 6.28243C136.907 5.4381 136.786 4.5853 136.467 3.79883H143.444C146.334 3.79909 149.105 4.94781 151.149 6.99233C153.193 9.03685 154.341 11.8097 154.341 14.7011Z" fill="white"/>
<path d="M142.522 160.425C142.522 161.856 142.477 163.276 142.387 164.684C142.347 164.689 142.308 164.69 142.268 164.689H88.5868C86.158 164.689 83.7988 163.878 81.8835 162.383C79.9683 160.889 78.6067 158.798 78.0148 156.441C77.9111 156.03 77.8328 155.613 77.7805 155.192C77.7194 154.726 77.689 154.257 77.6895 153.787V92.2012C81.82 92.4055 85.9234 92.9854 89.9489 93.9336C90.3433 94.0246 90.7348 94.1212 91.1236 94.2205C91.1484 94.226 91.1733 94.2343 91.1981 94.2398C91.5924 94.3391 91.9839 94.4439 92.3727 94.5515C100.671 96.8318 108.462 100.669 115.328 105.859C115.723 106.154 116.114 106.458 116.503 106.764L116.577 106.822C117.228 107.335 117.869 107.861 118.499 108.4C118.64 108.518 118.78 108.64 118.918 108.764C119.258 109.056 119.597 109.354 119.928 109.655C127.25 116.249 133.063 124.347 136.968 133.396C137.098 133.691 137.222 133.989 137.346 134.287C137.396 134.408 137.445 134.529 137.495 134.651C137.542 134.761 137.586 134.872 137.63 134.982C140.872 143.072 142.532 151.709 142.522 160.425Z" fill="#3F3D56"/>
<path d="M75.131 53.9391C74.8016 53.9387 74.4859 53.8076 74.253 53.5746C74.0201 53.3416 73.8891 53.0257 73.8887 52.6962V44.2448C73.8887 43.9152 74.0196 43.5991 74.2525 43.366C74.4855 43.1329 74.8015 43.002 75.131 43.002C75.4605 43.002 75.7765 43.1329 76.0094 43.366C76.2424 43.5991 76.3733 43.9152 76.3733 44.2448V52.6962C76.3729 53.0257 76.2419 53.3416 76.009 53.5746C75.7761 53.8076 75.4603 53.9387 75.131 53.9391Z" fill="#3F3D56"/>
<path d="M74.8829 37.5348C74.5536 37.5344 74.2378 37.4033 74.0049 37.1703C73.772 36.9373 73.641 36.6214 73.6406 36.2919V27.8405C73.6406 27.5109 73.7715 27.1948 74.0045 26.9617C74.2375 26.7286 74.5535 26.5977 74.8829 26.5977C75.2124 26.5977 75.5284 26.7286 75.7614 26.9617C75.9944 27.1948 76.1253 27.5109 76.1253 27.8405V36.2919C76.1249 36.6214 75.9939 36.9373 75.761 37.1703C75.5281 37.4033 75.2123 37.5344 74.8829 37.5348Z" fill="#3F3D56"/>
<path d="M107.928 5.21942C107.928 4.88991 108.059 4.57401 108.292 4.34102C108.525 4.10802 108.841 3.97695 109.17 3.97656H117.618C117.781 3.97632 117.943 4.00829 118.094 4.07064C118.245 4.13299 118.382 4.2245 118.497 4.33993C118.613 4.45537 118.705 4.59246 118.767 4.74337C118.83 4.89428 118.862 5.05605 118.862 5.21942C118.862 5.38279 118.83 5.54455 118.767 5.69547C118.705 5.84638 118.613 5.98347 118.497 6.0989C118.382 6.21434 118.245 6.30585 118.094 6.3682C117.943 6.43055 117.781 6.46252 117.618 6.46227H109.17C108.841 6.46189 108.525 6.33082 108.292 6.09782C108.059 5.86483 107.928 5.54892 107.928 5.21942Z" fill="white"/>
<path d="M75.131 68.357C74.8016 68.3566 74.4859 68.2256 74.253 67.9926C74.0201 67.7596 73.8891 67.4437 73.8887 67.1142V58.6628C73.8887 58.3331 74.0196 58.017 74.2525 57.7839C74.4855 57.5509 74.8015 57.4199 75.131 57.4199C75.4605 57.4199 75.7765 57.5509 76.0094 57.7839C76.2424 58.017 76.3733 58.3331 76.3733 58.6628V67.1142C76.3729 67.4437 76.2419 67.7596 76.009 67.9926C75.7761 68.2256 75.4603 68.3566 75.131 68.357Z" fill="#3F3D56"/>
<path d="M122.338 6.46227C123.024 6.46227 123.58 5.90582 123.58 5.21941C123.58 4.53301 123.024 3.97656 122.338 3.97656C121.652 3.97656 121.096 4.53301 121.096 5.21941C121.096 5.90582 121.652 6.46227 122.338 6.46227Z" fill="white"/>
<path opacity="0.2" d="M117.751 154.301C117.751 151.72 118.259 149.165 119.246 146.781C120.232 144.397 121.679 142.23 123.503 140.406C125.327 138.581 127.492 137.133 129.875 136.146C132.259 135.159 134.813 134.651 137.392 134.651H137.494C137.445 134.53 137.395 134.408 137.345 134.287C137.221 133.989 137.097 133.691 136.968 133.396H117.751V108.764H118.918C118.78 108.64 118.639 108.519 118.498 108.4C117.867 107.862 117.226 107.336 116.576 106.822L116.502 106.764V107.509H92.3719V94.5517C91.9831 94.4441 91.5915 94.3393 91.1972 94.24C91.1724 94.2345 91.1476 94.2262 91.1228 94.2207V107.509H78.8633V108.764H91.1228V133.396H78.8633V134.651H91.1228V154.301H78.9543C79.0066 154.722 79.0849 155.139 79.1887 155.55H91.1228V163.799H92.3719V155.55H116.502V163.799H117.751V155.55H138.804V154.301H117.751ZM116.502 154.301H92.3719V134.651H116.502V154.301ZM116.502 133.396H92.3719V132.905C92.3719 126.502 94.9142 120.362 99.4395 115.835C103.965 111.308 110.102 108.764 116.502 108.764V133.396Z" fill="black"/>
<path d="M37.2663 102.138L31.9668 115.036L49.2335 114.911L47.4775 102.109L37.2663 102.138Z" fill="#FFB6B6"/>
<path d="M41.4844 161.347L44.0455 161.721L46.7047 152.016L42.9248 151.465L41.4844 161.347Z" fill="#FFB6B6"/>
<path d="M41.0331 159.99L45.1168 160.339L44.8638 162.075L48.3251 165.296C48.496 165.455 48.6117 165.664 48.6552 165.894C48.6986 166.123 48.6676 166.361 48.5667 166.571C48.4658 166.782 48.3002 166.955 48.0941 167.065C47.8881 167.175 47.6523 167.216 47.4213 167.182L42.6014 166.478L42.0209 164.641L41.4462 166.31L39.6289 166.045L41.0331 159.99Z" fill="#2F2E41"/>
<path d="M11.8867 154.179L13.93 155.769L21.0303 148.641L18.0148 146.295L11.8867 154.179Z" fill="#FFB6B6"/>
<path d="M12.1629 152.777L15.5425 155.097L14.4665 156.482L15.8879 160.992C15.9582 161.215 15.9554 161.454 15.88 161.675C15.8046 161.896 15.6606 162.087 15.4689 162.221C15.2772 162.354 15.0479 162.423 14.8145 162.417C14.5811 162.41 14.3558 162.33 14.1715 162.186L10.3264 159.195L10.728 157.31L9.40484 158.478L7.95508 157.35L12.1629 152.777Z" fill="#2F2E41"/>
<path d="M32.9429 111.975L31.2423 114.229L26.716 133.931L16.4277 147.832L19.8862 151.154L33.0086 138.418L39.4485 124.81L42.7066 137.379L41.8794 154.207L47.3942 153.931C48.8889 134.402 51.2269 114.309 48.473 108.666C46.6578 110.25 44.5386 111.447 42.2451 112.184C39.9516 112.921 37.532 113.181 35.1343 112.95L32.9429 111.975Z" fill="#2F2E41"/>
<path d="M42.0452 81.2808L46.3959 86.0404C47.3508 87.085 47.956 88.4016 48.1274 89.8067C48.2052 90.4447 48.1922 91.0905 48.0888 91.7249L47.1509 98.5993L48.8053 109.082C48.8053 109.082 46.4474 110.521 41.9118 113.496C40.0607 114.71 31.423 114.691 31.4336 114.323C31.4826 112.624 33.0024 108.042 33.3638 102.461C33.8098 95.5728 33.2249 87.3511 34.7425 83.4269C36.5951 78.6364 42.0452 81.2808 42.0452 81.2808Z" fill="#2B41B8"/>
<path d="M27.1144 111.78C27.3043 111.504 27.4313 111.189 27.4864 110.859C27.5416 110.528 27.5237 110.189 27.4338 109.866C27.344 109.543 27.1845 109.244 26.9665 108.989C26.7485 108.735 26.4774 108.531 26.1722 108.393L26.3423 103.155L23.1861 102.275L23.0497 109.675C22.8512 110.203 22.8533 110.786 23.0556 111.313C23.258 111.84 23.6464 112.274 24.1475 112.534C24.6485 112.793 25.2273 112.86 25.7741 112.721C26.3209 112.582 26.7978 112.247 27.1144 111.78Z" fill="#FFB6B6"/>
<path d="M22.9054 90.6374C22.9986 90.3934 23.1413 90.1713 23.3247 89.9854C23.5081 89.7994 23.7281 89.6536 23.9707 89.5571C25.6505 88.851 32.9131 82.9137 33.1807 83.0252L35.4864 81.8867C35.5714 81.8877 37.8426 81.9414 38.9568 83.2054C39.1885 83.4722 39.3596 83.7861 39.4585 84.1254C39.5575 84.4647 39.5818 84.8214 39.5299 85.171C39.2036 88.1812 28.9079 94.9426 27.8168 94.897L26.6609 103.444L27.1107 106.709L22.9003 106.829L21.6028 102.021C21.4166 101.67 21.1814 95.0294 22.9054 90.6374Z" fill="#2B41B8"/>
<path d="M39.7854 86.0718C40.1261 83.7351 38.8142 81.609 36.8552 81.3231C34.8962 81.0372 33.0319 82.6997 32.6912 85.0365C32.3504 87.3733 33.6623 89.4993 35.6213 89.7852C37.5803 90.0712 39.4446 88.4086 39.7854 86.0718Z" fill="#2B41B8"/>
<path d="M121.512 47.1914H111.69C109.571 47.1914 107.854 48.9098 107.854 51.0295V51.0295C107.854 53.1492 109.571 54.8676 111.69 54.8676H121.512C123.631 54.8676 125.349 53.1492 125.349 51.0295C125.349 48.9098 123.631 47.1914 121.512 47.1914Z" fill="#E6E6E6"/>
<path d="M139.735 62.5449H93.4673C91.3485 62.5449 89.6309 64.2633 89.6309 66.383V66.383C89.6309 68.5027 91.3485 70.2211 93.4673 70.2211H139.735C141.854 70.2211 143.572 68.5027 143.572 66.383C143.572 64.2633 141.854 62.5449 139.735 62.5449Z" fill="#E6E6E6"/>
<path d="M119.882 89.207H73.6137C71.495 89.207 69.7773 90.9254 69.7773 93.0451V93.0451C69.7773 95.1648 71.495 96.8832 73.6137 96.8832H119.882C122.001 96.8832 123.718 95.1648 123.718 93.0451C123.718 90.9254 122.001 89.207 119.882 89.207Z" fill="#2B41B8"/>
<path d="M180.835 167.538C180.835 167.586 180.829 167.634 180.816 167.678C180.804 167.723 180.785 167.763 180.762 167.797C180.739 167.831 180.711 167.858 180.681 167.877C180.651 167.895 180.618 167.904 180.586 167.904L56.322 167.969L55.8859 167.972L30.2403 167.984H29.8168L7.98697 167.996H7.56345L0.749496 167.999C0.683326 167.999 0.619865 167.961 0.573075 167.892C0.526286 167.824 0.5 167.73 0.5 167.633C0.5 167.536 0.526286 167.443 0.573075 167.374C0.619865 167.306 0.683326 167.267 0.749496 167.267L7.63474 167.264H8.05825L29.8818 167.252H30.3053L55.7518 167.24H56.1858L77.8688 167.227H78.154L180.586 167.172C180.618 167.172 180.651 167.181 180.681 167.199C180.712 167.218 180.739 167.245 180.762 167.279C180.785 167.313 180.804 167.353 180.816 167.398C180.829 167.442 180.835 167.49 180.835 167.538Z" fill="#3F3D56"/>
<path d="M46.6482 76.5273C45.8251 77.6213 44.6541 78.4021 43.3281 78.7413C42.0021 79.0805 40.6001 78.9578 39.3531 78.3934C38.1061 77.829 37.0885 76.8565 36.4677 75.6362C35.8469 74.4159 35.6601 73.0204 35.9379 71.6797C36.2158 70.3389 36.9418 69.1328 37.9963 68.26C39.0509 67.3872 40.3711 66.8996 41.7396 66.8777C43.1081 66.8558 44.4432 67.3008 45.5252 68.1395C46.6071 68.9781 47.3713 70.1603 47.6919 71.4915C47.7092 71.5637 47.7238 71.6356 47.738 71.7101C47.9073 72.5445 47.8977 73.4053 47.7099 74.2357C47.522 75.0661 47.1602 75.8472 46.6482 76.5273Z" fill="#FFB6B6"/>
<path d="M48.217 71.7797C48.0652 71.0243 48.1226 71.4146 47.9676 70.6616C47.9996 71.0261 47.9201 71.3918 47.7395 71.71L40.6426 70.6742L41.2444 66.5469C43.4438 66.0259 45.5788 65.6211 46.5841 67.3262C47.6783 67.4859 48.6642 68.0739 49.325 68.9608C49.9858 69.8478 50.2674 70.961 50.1079 72.0556L48.217 71.7797Z" fill="#2F2E41"/>
<path d="M44.0285 82.8847C44.0342 82.8075 44.0375 82.7271 44.0378 82.6491C44.0242 82.0744 43.9496 81.5028 43.8155 80.9439C43.6948 80.3381 43.5718 79.7291 43.4484 79.1229C43.563 80.2074 43.3206 81.2997 42.758 82.2337C41.6963 81.1253 42.3982 79.5209 40.832 79.2923C37.0666 78.7428 34.0027 74.7029 34.5523 70.9331C35.1016 67.1661 37.1277 64.5847 40.8931 65.1343C44.6612 65.6842 47.4656 67.8554 46.99 71.6331C42.1922 72.0481 44.9601 82.6304 44.0285 82.8847Z" fill="#2F2E41"/>
<path d="M35.7435 68.5732C37.1325 68.5732 38.2585 67.4467 38.2585 66.0571C38.2585 64.6675 37.1325 63.541 35.7435 63.541C34.3545 63.541 33.2285 64.6675 33.2285 66.0571C33.2285 67.4467 34.3545 68.5732 35.7435 68.5732Z" fill="#2F2E41"/>
<path d="M38.7255 63.9799C38.4909 63.4722 38.1348 63.0301 37.6887 62.693C37.2426 62.3558 36.7203 62.1339 36.168 62.0469C36.557 62.2229 36.8969 62.4919 37.1575 62.8303C37.4182 63.1686 37.5916 63.5659 37.6626 63.9872C37.7336 64.4084 37.6999 64.8406 37.5646 65.2458C37.4293 65.651 37.1964 66.0166 36.8865 66.3105L37.3951 65.8733C37.5337 65.9914 37.7064 66.0621 37.888 66.0751C38.0697 66.0881 38.2507 66.0426 38.4047 65.9454C38.5557 65.8437 38.6816 65.709 38.7731 65.5516C38.8646 65.3942 38.9193 65.2181 38.933 65.0366C38.9572 64.6723 38.8856 64.308 38.7255 63.9799Z" fill="#2F2E41"/>
<path d="M70.7412 90.5931C70.4423 90.4417 70.1138 90.3576 69.7788 90.3469C69.4439 90.3362 69.1107 90.399 68.8027 90.5311C68.4947 90.6631 68.2194 90.8611 67.9961 91.1111C67.7729 91.3611 67.6071 91.6571 67.5105 91.9781L62.2992 92.5063L61.8477 95.7528L69.1966 94.9036C69.7464 95.0301 70.3235 94.9505 70.8186 94.6797C71.3136 94.409 71.6922 93.966 71.8826 93.4347C72.073 92.9034 72.062 92.3207 71.8516 91.797C71.6412 91.2732 71.2461 90.8449 70.7412 90.5931Z" fill="#FFB6B6"/>
<path d="M50.3565 97.5793C50.1023 97.5194 49.8633 97.4074 49.6547 97.2503C49.4461 97.0932 49.2723 96.8945 49.1444 96.6667C48.2215 95.0951 41.3733 88.6838 41.4481 88.4037L40.0135 86.269C40.0031 86.1845 39.7542 83.9254 40.8582 82.6524C41.0917 82.3873 41.3799 82.1758 41.7028 82.0326C42.0258 81.8893 42.3759 81.8178 42.7292 81.8227C45.7547 81.7457 53.3612 91.3254 53.4613 92.4134L62.5438 92.1518L65.7186 91.2713L66.3974 95.4303L61.8072 97.3564C61.4846 97.5877 54.9369 98.7044 50.3565 97.5793Z" fill="#2B41B8"/>
</g>
<defs>
<clipPath id="clip0_11164_54220">
<rect width="158" height="168" fill="white" transform="translate(0.5)"/>
</clipPath>
</defs>
</svg>
