<svg width="163" height="145" viewBox="0 0 163 145" fill="none" xmlns="http://www.w3.org/2000/svg">
<g clip-path="url(#clip0_11164_54459)">
<path d="M113.793 142.842L111.337 142.841L110.168 133.135L113.794 133.135L113.793 142.842Z" fill="#FFB6B6"/>
<path d="M105.377 142.785C105.3 142.917 105.26 143.342 105.26 143.496C105.26 143.968 105.633 144.35 106.094 144.35H113.702C114.016 144.35 114.271 144.089 114.271 143.767V143.443C114.271 143.443 114.647 142.468 113.872 141.266C113.872 141.266 112.909 142.207 111.47 140.733L111.046 139.945L107.974 142.247L106.271 142.461C105.899 142.508 105.568 142.454 105.377 142.785Z" fill="#2F2E41"/>
<path d="M139.729 139.694L137.484 140.716L132.566 132.333L135.88 130.824L139.729 139.694Z" fill="#FFB6B6"/>
<path d="M132.015 143.145C131.998 143.297 132.13 143.703 132.191 143.844C132.378 144.275 132.87 144.469 133.291 144.277L140.244 141.111C140.531 140.98 140.66 140.636 140.532 140.342L140.404 140.045C140.404 140.045 140.361 138.998 139.176 138.222C139.176 138.222 138.669 139.483 136.77 138.734L136.069 138.191L134.175 141.573L132.704 142.477C132.383 142.675 132.059 142.763 132.015 143.145Z" fill="#2F2E41"/>
<path d="M108.454 82.1055L106.27 86.8041L109.983 135.58H114.627L116.536 103.585L133.202 135.58H138.899L130.297 112.758L124.4 83.0004L108.454 82.1055Z" fill="#2F2E41"/>
<path d="M120.151 51.9727H114.391L112.278 55.3679L107.514 57.7021L108.549 72.344L108.03 83.0199L108.742 82.9986C113.825 82.8467 118.906 83.6936 123.623 85.6392C124.834 86.1384 126.102 86.4168 127.194 86.1372C127.194 86.1372 126.78 84.4396 126.366 84.0152C125.951 83.5907 125.744 83.2399 125.951 82.9909C126.159 82.7419 126.573 82.5297 126.159 82.1053C125.744 81.6809 125.744 81.1463 125.744 81.1463L124.501 71.7074L126.987 58.3387L121.808 55.3679L120.151 51.9727Z" fill="#2B41B8"/>
<path d="M130.048 70.4824L129.891 83.0048L126.85 94.1677L124.418 93.2386L125.498 83.0066L125.356 69.1602L130.048 70.4824Z" fill="#FFB6B6"/>
<path d="M126.839 95.9681C127.124 94.363 126.601 92.9211 125.671 92.7475C124.741 92.574 123.755 93.7346 123.47 95.3397C123.184 96.9449 123.707 98.3868 124.638 98.5603C125.568 98.7338 126.554 97.5733 126.839 95.9681Z" fill="#FFB6B6"/>
<path d="M125.744 57.7018C125.744 57.7018 129.177 58.2465 129.221 61.2632C129.266 64.28 132.581 69.1607 130.509 72.9803L125.123 73.8291L122.223 63.0068L125.537 57.2773" fill="#2B41B8"/>
<path d="M110.078 68.2783L103.238 78.6586L94.7148 86.281L93.1797 84.1375L99.5637 76.1905L106.863 64.5352L110.078 68.2783Z" fill="#FFB6B6"/>
<path d="M93.7425 87.7799C94.8409 86.5984 95.1761 85.099 94.4913 84.4309C93.8064 83.7629 92.3607 84.1792 91.2623 85.3607C90.1639 86.5422 89.8286 88.0416 90.5135 88.7096C91.1984 89.3776 92.644 88.9614 93.7425 87.7799Z" fill="#FFB6B6"/>
<path d="M113.327 55.1744C113.327 55.1744 115.905 57.5589 114.326 60.1061C112.747 62.6533 112.904 68.5966 109.126 70.6253L104.168 68.3074C104.586 64.1227 104.829 59.7839 107.541 57.6298L113.381 54.7031" fill="#2B41B8"/>
<path d="M116.376 51.0973C119.223 51.0973 121.53 48.7337 121.53 45.8182C121.53 42.9026 119.223 40.5391 116.376 40.5391C113.53 40.5391 111.223 42.9026 111.223 45.8182C111.223 48.7337 113.53 51.0973 116.376 51.0973Z" fill="#FFB6B6"/>
<path d="M120.162 50.1564C120.445 50.2059 120.779 49.5011 121.097 48.8147C121.764 47.3777 122.188 46.4641 122.22 45.1729C122.247 44.0724 121.949 44.3612 121.658 41.9145C121.563 41.1075 120.217 41.109 119.943 40.7258C119.48 40.0785 120.19 39.8116 119.039 39.4227C116.882 38.6944 115.907 39.8258 114.538 39.9233C114.503 39.9258 113.824 40.6058 113.445 40.641C112.781 40.7026 111.822 40.5966 111.393 39.5599C110.991 38.5905 110.725 41.4232 111.084 41.7738C111.389 42.0714 111.915 42.8185 111.928 42.8728C111.943 42.9343 110.678 41.4983 110.466 42.0901C110.314 42.516 110.793 44.7072 111.18 44.7895C111.503 44.8584 112.294 43.7668 112.115 44.2145C111.701 45.2528 114.189 45.9152 117.168 43.8312C117.273 43.7573 117.173 43.8751 117.542 44.7895C118.006 45.9428 118.111 46.0053 118.103 46.3229C118.086 47.0105 117.582 47.213 117.729 47.6646C117.848 48.0304 118.315 48.3136 118.665 48.2396C119.059 48.1562 119.127 47.6557 119.413 47.6646C119.658 47.6723 119.948 48.05 119.974 48.4313C120.029 49.2346 118.868 49.4555 118.665 50.5397C118.55 51.1516 119.901 50.1108 120.162 50.1564Z" fill="#2F2E41"/>
<path d="M79.3619 144.592H35.0772C28.4351 144.592 23.0312 139.057 23.0312 132.253V12.3388C23.0312 5.5352 28.4351 0 35.0772 0H79.3619C86.0039 0 91.4077 5.5352 91.4077 12.3388C92.232 60.4927 93.6378 114.417 91.4077 132.253C91.4077 139.057 86.0039 144.592 79.3619 144.592Z" fill="#334155"/>
<path d="M92.0252 44.1074C91.7442 44.1074 91.5156 44.3415 91.5156 44.6294V61.3332C91.5156 61.621 91.7442 61.8552 92.0252 61.8552C92.3063 61.8552 92.5348 61.621 92.5348 61.3332V44.6294C92.5348 44.3415 92.3063 44.1074 92.0252 44.1074Z" fill="#3F3D56"/>
<path d="M90.261 12.3392V132.251C90.261 138.173 85.7612 143.017 80.0714 143.393H80.0689C79.9848 143.398 79.9007 143.404 79.8141 143.406C79.6637 143.414 79.5134 143.417 79.3606 143.417C79.3606 143.417 78.8 143.375 77.7757 143.297C76.7412 143.218 75.2353 143.101 73.3574 142.947C72.7943 142.903 72.2006 142.853 71.5738 142.801C70.3253 142.696 68.9544 142.582 67.4842 142.451C66.8982 142.401 66.2918 142.347 65.6726 142.292C62.508 142.013 58.9637 141.686 55.2257 141.316C54.5938 141.256 53.9568 141.193 53.3147 141.128C53.1466 141.109 24.1777 133.65 24.1777 132.251V12.3392C24.1777 6.17191 29.0572 1.17383 35.0782 1.17383H41.5858C42.6254 1.17383 43.4611 2.00379 43.5503 3.06605C43.5579 3.13653 43.5656 3.20698 43.5783 3.27746C43.7669 4.34494 44.7224 5.08877 45.7824 5.08877H68.6563C69.7163 5.08877 70.6718 4.34494 70.8604 3.27746C70.8731 3.20698 70.8807 3.13653 70.8884 3.06605C70.9776 2.00379 71.8133 1.17383 72.8529 1.17383H79.3606C85.3815 1.17383 90.261 6.17191 90.261 12.3392Z" fill="white"/>
<path d="M22.7772 31.5801C22.4961 31.5801 22.2676 31.8142 22.2676 32.1021V36.278C22.2676 36.5659 22.4961 36.8 22.7772 36.8C23.0582 36.8 23.2868 36.5659 23.2868 36.278V32.1021C23.2868 31.8142 23.0582 31.5801 22.7772 31.5801Z" fill="#3F3D56"/>
<path d="M22.7772 44.1074C22.4961 44.1074 22.2676 44.3415 22.2676 44.6294V52.7203C22.2676 53.0082 22.4961 53.2423 22.7772 53.2423C23.0582 53.2423 23.2868 53.0082 23.2868 52.7203V44.6294C23.2868 44.3415 23.0582 44.1074 22.7772 44.1074Z" fill="#3F3D56"/>
<path d="M22.7772 55.5918C22.4961 55.5918 22.2676 55.8259 22.2676 56.1138V64.2047C22.2676 64.4926 22.4961 64.7267 22.7772 64.7267C23.0582 64.7267 23.2868 64.4926 23.2868 64.2047V56.1138C23.2868 55.8259 23.0582 55.5918 22.7772 55.5918Z" fill="#3F3D56"/>
<path d="M41.4098 3.00195H31.6641C31.6112 3.00195 31.5684 3.04588 31.5684 3.10006V4.20882C31.5684 4.26301 31.6112 4.30693 31.6641 4.30693H41.4098C41.4627 4.30693 41.5056 4.26301 41.5056 4.20882V3.10006C41.5056 3.04588 41.4627 3.00195 41.4098 3.00195Z" fill="#E6E6E6"/>
<path d="M74.4645 4.30672C75.0274 4.30672 75.4837 3.83931 75.4837 3.26273C75.4837 2.68616 75.0274 2.21875 74.4645 2.21875C73.9016 2.21875 73.4453 2.68616 73.4453 3.26273C73.4453 3.83931 73.9016 4.30672 74.4645 4.30672Z" fill="#E6E6E6"/>
<path d="M77.2673 4.30672C77.8301 4.30672 78.2865 3.83931 78.2865 3.26273C78.2865 2.68616 77.8301 2.21875 77.2673 2.21875C76.7044 2.21875 76.248 2.68616 76.248 3.26273C76.248 3.83931 76.7044 4.30672 77.2673 4.30672Z" fill="#E6E6E6"/>
<path d="M80.07 4.30672C80.6329 4.30672 81.0892 3.83931 81.0892 3.26273C81.0892 2.68616 80.6329 2.21875 80.07 2.21875C79.5071 2.21875 79.0508 2.68616 79.0508 3.26273C79.0508 3.83931 79.5071 4.30672 80.07 4.30672Z" fill="#E6E6E6"/>
<path d="M80.3941 96.0602C80.3941 84.1604 70.5751 77.6142 59.3589 74.5137C44.9788 70.5386 34.4471 78.5824 38.3238 96.0602C40.8977 107.664 53.9623 124.982 59.3589 114.444C65.5342 102.386 80.3941 107.96 80.3941 96.0602Z" fill="#F2F2F2"/>
<path d="M0.5 144.624C0.5 144.833 0.663655 145.001 0.867449 145.001H162.133C162.336 145.001 162.5 144.833 162.5 144.624C162.5 144.416 162.336 144.248 162.133 144.248H0.867449C0.663655 144.248 0.5 144.416 0.5 144.624Z" fill="#2E2E41"/>
<path d="M52.129 93.9349L49.5879 92.7019C50.6301 94.1918 51.5282 96.5187 52.009 98.3703C52.8231 96.6455 54.1354 94.5351 55.4344 93.2745L52.7487 93.9822C54.4036 85.6744 60.6281 79.7102 67.7561 79.7102L67.857 79.4102C60.4117 79.4102 53.8187 85.2917 52.129 93.9349Z" fill="#3F3D56"/>
<path d="M63.8241 106.593H47.7683C47.0873 106.593 46.5332 106.025 46.5332 105.328C46.5332 104.63 47.0873 104.062 47.7683 104.062H63.8241C64.5051 104.062 65.0591 104.63 65.0591 105.328C65.0591 106.025 64.5051 106.593 63.8241 106.593Z" fill="#2B41B8"/>
<path d="M78.8346 41.029V74.5538C78.8346 77.5185 76.48 79.9304 73.5856 79.9304H40.8564C37.9621 79.9304 35.6074 77.5185 35.6074 74.5538V41.029C35.6074 38.0642 37.9621 35.6523 40.8564 35.6523H73.5856C76.48 35.6523 78.8346 38.0642 78.8346 41.029ZM73.5856 79.2979C76.1435 79.2979 78.2171 77.1739 78.2171 74.5538V57.6519C78.2171 45.8512 68.8778 36.2849 57.3572 36.2849H40.8564C38.2985 36.2849 36.225 38.4089 36.225 41.029V74.5538C36.225 77.1739 38.2985 79.2979 40.8564 79.2979H73.5856Z" fill="#3F3D56"/>
<path d="M61.5786 49.3451H51.0124C50.746 49.3451 50.5293 49.1231 50.5293 48.8502C50.5293 48.5774 50.746 48.3555 51.0124 48.3555H61.5786C61.8449 48.3555 62.0616 48.5774 62.0616 48.8502C62.0616 49.1231 61.8449 49.3451 61.5786 49.3451Z" fill="#3F3D56"/>
<path d="M61.5786 59.8979H51.0124C50.746 59.8979 50.5293 59.6758 50.5293 59.403C50.5293 59.1301 50.746 58.9082 51.0124 58.9082H61.5786C61.8449 58.9082 62.0616 59.1301 62.0616 59.403C62.0616 59.6758 61.8449 59.8979 61.5786 59.8979Z" fill="#3F3D56"/>
<path d="M56.3286 74.4447H45.7624C45.496 74.4447 45.2793 74.2227 45.2793 73.9499C45.2793 73.677 45.496 73.4551 45.7624 73.4551H56.3286C56.5949 73.4551 56.8116 73.677 56.8116 73.9499C56.8116 74.2227 56.5949 74.4447 56.3286 74.4447Z" fill="#3F3D56"/>
<path d="M67.2485 54.6244H45.3425C45.0761 54.6244 44.8594 54.4024 44.8594 54.1295C44.8594 53.8567 45.0761 53.6348 45.3425 53.6348H67.2485C67.5148 53.6348 67.7315 53.8567 67.7315 54.1295C67.7315 54.4024 67.5148 54.6244 67.2485 54.6244Z" fill="#3F3D56"/>
</g>
<defs>
<clipPath id="clip0_11164_54459">
<rect width="162" height="145" fill="white" transform="translate(0.5)"/>
</clipPath>
</defs>
</svg>
