<svg width="162" height="145" viewBox="0 0 162 145" fill="none" xmlns="http://www.w3.org/2000/svg">
<g clip-path="url(#clip0_11086_24220)">
<path d="M101.194 145H57.3944C50.8251 145 45.4805 139.449 45.4805 132.626V12.3736C45.4805 5.55083 50.8251 0 57.3944 0H101.194C107.763 0 113.107 5.55083 113.107 12.3736C113.923 60.6634 115.313 114.74 113.107 132.626C113.107 139.449 107.763 145 101.194 145Z" fill="#334155"/>
<path d="M113.719 44.2329C113.441 44.2329 113.215 44.4677 113.215 44.7564V61.5073C113.215 61.796 113.441 62.0307 113.719 62.0307C113.997 62.0307 114.223 61.796 114.223 61.5073V44.7564C114.223 44.4677 113.997 44.2329 113.719 44.2329Z" fill="#3F3D56"/>
<path d="M111.972 12.3737V132.624C111.972 138.563 107.522 143.421 101.894 143.798H101.892C101.809 143.803 101.725 143.808 101.64 143.811C101.491 143.818 101.342 143.821 101.191 143.821C101.191 143.821 100.637 143.779 99.6237 143.701C98.6006 143.622 97.1112 143.504 95.2539 143.35C94.697 143.305 94.1098 143.256 93.4898 143.203C92.255 143.099 90.8992 142.984 89.4451 142.853C88.8655 142.803 88.2657 142.748 87.6533 142.693C84.5234 142.413 81.0179 142.086 77.321 141.714C76.696 141.654 76.066 141.591 75.4309 141.526C75.2646 141.507 46.6133 134.027 46.6133 132.624V12.3737C46.6133 6.18894 51.4393 1.17676 57.3942 1.17676H63.8305C64.8587 1.17676 65.6853 2.00907 65.7735 3.07432C65.7811 3.14499 65.7886 3.21565 65.8012 3.28632C65.9877 4.35682 66.9327 5.10275 67.9811 5.10275H90.6043C91.6527 5.10275 92.5977 4.35682 92.7842 3.28632C92.7968 3.21565 92.8044 3.14499 92.8119 3.07432C92.9001 2.00907 93.7267 1.17676 94.7549 1.17676H101.191C107.146 1.17676 111.972 6.18894 111.972 12.3737Z" fill="white"/>
<path d="M45.2286 31.6699C44.9507 31.6699 44.7246 31.9047 44.7246 32.1934V36.3811C44.7246 36.6698 44.9507 36.9046 45.2286 36.9046C45.5066 36.9046 45.7326 36.6698 45.7326 36.3811V32.1934C45.7326 31.9047 45.5066 31.6699 45.2286 31.6699Z" fill="#3F3D56"/>
<path d="M45.2286 44.2329C44.9507 44.2329 44.7246 44.4677 44.7246 44.7564V52.8701C44.7246 53.1588 44.9507 53.3935 45.2286 53.3935C45.5066 53.3935 45.7326 53.1588 45.7326 52.8701V44.7564C45.7326 44.4677 45.5066 44.2329 45.2286 44.2329Z" fill="#3F3D56"/>
<path d="M45.2286 55.749C44.9507 55.749 44.7246 55.9838 44.7246 56.2725V64.3862C44.7246 64.6749 44.9507 64.9097 45.2286 64.9097C45.5066 64.9097 45.7326 64.6749 45.7326 64.3862V56.2725C45.7326 55.9838 45.5066 55.749 45.2286 55.749Z" fill="#3F3D56"/>
<path d="M63.6574 3.00977H54.0186C53.9662 3.00977 53.9238 3.05382 53.9238 3.10815V4.22004C53.9238 4.27438 53.9662 4.31843 54.0186 4.31843H63.6574C63.7097 4.31843 63.7522 4.27438 63.7522 4.22004V3.10815C63.7522 3.05382 63.7097 3.00977 63.6574 3.00977Z" fill="#E6E6E6"/>
<path d="M96.3498 4.31847C96.9066 4.31847 97.3579 3.84974 97.3579 3.27154C97.3579 2.69334 96.9066 2.22461 96.3498 2.22461C95.7931 2.22461 95.3418 2.69334 95.3418 3.27154C95.3418 3.84974 95.7931 4.31847 96.3498 4.31847Z" fill="#E6E6E6"/>
<path d="M99.1213 4.31847C99.678 4.31847 100.129 3.84974 100.129 3.27154C100.129 2.69334 99.678 2.22461 99.1213 2.22461C98.5646 2.22461 98.1133 2.69334 98.1133 3.27154C98.1133 3.84974 98.5646 4.31847 99.1213 4.31847Z" fill="#E6E6E6"/>
<path d="M101.895 4.31847C102.451 4.31847 102.903 3.84974 102.903 3.27154C102.903 2.69334 102.451 2.22461 101.895 2.22461C101.338 2.22461 100.887 2.69334 100.887 3.27154C100.887 3.84974 101.338 4.31847 101.895 4.31847Z" fill="#E6E6E6"/>
<path d="M43.7785 13.3689C44.435 11.7065 45.8506 10.721 46.9391 11.1659C48.0277 11.6108 48.3786 13.3211 47.7221 14.9835C47.4691 15.6509 47.0561 16.2441 46.5142 16.7129L43.64 23.7167L40.2812 22.2121L43.4705 15.4667C43.3989 14.7467 43.504 14.0267 43.7761 13.3665L43.7785 13.3689Z" fill="#A0616A"/>
<path d="M31.7346 58.0824C31.7346 58.0824 26.9148 55.743 27.249 54.0638C27.5832 52.3823 41.9422 16.5718 41.9422 16.5718L48.5906 20.9491L31.7346 58.0848V58.0824Z" fill="#E6E6E6"/>
<path d="M128.42 29.5172C128.42 29.5172 123.498 30.0745 123.18 37.7098C122.915 44.0725 122.376 47.6198 124.959 48.9473C125.882 49.421 126.969 49.464 127.955 49.1387L138.501 45.6631C138.501 45.6631 138.661 34.2079 135.009 31.426C131.356 28.6417 128.42 29.5172 128.42 29.5172Z" fill="#2F2E41"/>
<path d="M134.234 47.0697L128.896 48.8278V41.1304H133.738L134.234 47.0697Z" fill="#FFB6B6"/>
<path d="M117.918 90.7734C117.629 92.5363 116.455 93.8016 115.297 93.5983C114.139 93.395 113.433 91.7995 113.724 90.0343C113.829 89.3286 114.108 88.6589 114.538 88.0872L115.86 80.6313L119.46 81.3872L117.772 88.6565C117.994 89.3454 118.045 90.0701 117.918 90.7734Z" fill="#FFB6B6"/>
<path d="M147.016 89.9172C147.371 91.6682 146.72 93.2684 145.564 93.4909C144.409 93.7133 143.184 92.4719 142.831 90.7209C142.681 90.0225 142.704 89.3001 142.9 88.6112L141.494 81.1697L145.127 80.5933L146.128 87.9893C146.579 88.5538 146.882 89.214 147.016 89.9172Z" fill="#FFB6B6"/>
<path d="M132.227 133.25H127.229V140.357H132.227V133.25Z" fill="#FFB6B6"/>
<path d="M122.36 144.661C121.835 144.661 121.367 144.649 121.014 144.615C119.687 144.493 118.419 143.51 117.782 142.936C117.495 142.678 117.405 142.266 117.553 141.912C117.66 141.659 117.872 141.467 118.137 141.393L121.647 140.388L127.328 136.547L127.393 136.662C127.416 136.705 127.975 137.712 128.161 138.391C128.233 138.649 128.214 138.865 128.106 139.032C128.032 139.147 127.927 139.214 127.844 139.252C127.946 139.36 128.269 139.58 129.262 139.738C130.711 139.967 131.016 138.463 131.028 138.401L131.038 138.35L131.081 138.322C131.771 137.877 132.196 137.674 132.341 137.717C132.432 137.743 132.585 137.791 132.998 141.888C133.038 142.017 133.327 142.96 133.131 143.862C132.919 144.842 128.641 144.505 127.784 144.428C127.76 144.431 124.557 144.661 122.363 144.661H122.36Z" fill="#2F2E41"/>
<path d="M146.46 127.668L142.219 130.319L145.972 136.349L150.213 133.698L146.46 127.668Z" fill="#FFB6B6"/>
<path d="M140.828 143.687C140.241 143.687 139.701 143.615 139.317 143.548C138.94 143.481 138.644 143.18 138.582 142.802C138.539 142.529 138.618 142.254 138.804 142.051L141.251 139.338L144.044 133.066L144.158 133.129C144.201 133.153 145.206 133.71 145.724 134.188C145.922 134.37 146.02 134.564 146.015 134.762C146.013 134.901 145.961 135.011 145.908 135.09C146.051 135.128 146.44 135.143 147.367 134.75C148.718 134.179 148.183 132.739 148.159 132.679L148.14 132.631L148.162 132.586C148.513 131.842 148.763 131.445 148.911 131.404C149.004 131.378 149.157 131.337 151.671 134.597C151.773 134.683 152.516 135.332 152.826 136.2C153.163 137.145 149.355 139.128 148.589 139.515C148.565 139.534 144.581 142.436 142.943 143.261C142.294 143.589 141.525 143.689 140.826 143.689L140.828 143.687Z" fill="#2F2E41"/>
<path d="M135.909 73.8218H121.913L120.643 86.8677L126.2 135.071H133.345L130.487 107.231L142.077 132.366L148.427 127.912L139.377 104.446C139.377 104.446 142.61 84.0045 140.07 78.9119C137.53 73.8218 135.909 73.8218 135.909 73.8218Z" fill="#2F2E41"/>
<path d="M142.87 74.618H118.58L127.312 45.8232H136.997L142.87 74.618Z" fill="#2B41B8"/>
<path d="M128.839 45.8282C128.839 45.8282 122.807 45.668 122.172 47.261C121.537 48.8517 114.074 86.7145 114.074 86.7145H118.997L128.841 45.8282H128.839Z" fill="#2B41B8"/>
<path d="M132.764 45.8618C132.764 45.8618 138.078 45.1872 138.713 46.7779C139.348 48.3686 146.81 86.2314 146.81 86.2314H141.888L132.764 45.8618Z" fill="#2B41B8"/>
<path d="M129.559 43.2617C132.496 43.2617 134.878 40.8757 134.878 37.9324C134.878 34.9891 132.496 32.603 129.559 32.603C126.621 32.603 124.24 34.9891 124.24 37.9324C124.24 40.8757 126.621 43.2617 129.559 43.2617Z" fill="#FFB6B6"/>
<path d="M128.102 31.5048C128.102 31.5048 125.176 43.4146 128.429 48.9807L123.846 48.0048C123.846 48.0048 122.07 34.9708 125.641 32.6004L128.102 31.5024V31.5048Z" fill="#2F2E41"/>
<path d="M162 144.376C162 144.574 161.84 144.735 161.642 144.735H0.35808C0.159942 144.735 0 144.574 0 144.376C0 144.177 0.159942 144.017 0.35808 144.017H161.642C161.84 144.017 162 144.177 162 144.376Z" fill="#2E2E41"/>
<path d="M27.4766 41.7954L33.5902 43.8095V34.9902H28.0423L27.4766 41.7954Z" fill="#A0616A"/>
<path d="M32.8343 37.4299C36.1989 37.4299 38.9264 34.6969 38.9264 31.3255C38.9264 27.9542 36.1989 25.2212 32.8343 25.2212C29.4697 25.2212 26.7422 27.9542 26.7422 31.3255C26.7422 34.6969 29.4697 37.4299 32.8343 37.4299Z" fill="#A0616A"/>
<path d="M31.2809 31.8041L32.1212 32.8255L33.6394 30.1608C33.6394 30.1608 35.5778 30.2613 35.5778 28.8189C35.5778 27.3765 37.3563 27.3359 37.3563 27.3359C37.3563 27.3359 39.8748 22.9298 34.6588 24.0899C34.6588 24.0899 31.0398 21.6071 29.2422 23.7287C29.2422 23.7287 23.7254 26.513 25.3033 31.3592L27.9269 36.3561L28.5213 35.2246C28.5213 35.2246 28.1608 30.4765 31.2809 31.7993V31.8041Z" fill="#2F2E41"/>
<path d="M25.6418 140.434H30.6406V133.327H25.6418V140.434Z" fill="#A0616A"/>
<path d="M30.0886 144.505C29.2339 144.581 24.9561 144.921 24.7412 143.938C24.5455 143.036 24.8343 142.094 24.8749 141.964C25.2855 137.864 25.4383 137.819 25.5314 137.793C25.677 137.75 26.1019 137.953 26.7918 138.398L26.8348 138.427L26.8444 138.477C26.8563 138.541 27.1618 140.046 28.6109 139.814C29.604 139.656 29.9262 139.436 30.0289 139.328C29.9453 139.29 29.8403 139.223 29.7663 139.108C29.6589 138.941 29.6398 138.726 29.7114 138.467C29.8976 137.786 30.4562 136.779 30.4801 136.738L30.5445 136.623L36.226 140.465L39.7352 141.469C40.0002 141.546 40.2127 141.735 40.3201 141.988C40.4681 142.342 40.3774 142.754 40.0909 143.012C39.4535 143.586 38.1883 144.569 36.8586 144.691C36.5053 144.725 36.0374 144.737 35.5123 144.737C33.3184 144.737 30.1148 144.509 30.0909 144.505H30.0886Z" fill="#2F2E41"/>
<path d="M37.0259 72.0589L23.913 71.3867C23.913 71.3867 21.903 79.0219 24.443 86.9777L24.7486 134.887H32.1584L39.1434 85.466L37.0259 72.0589Z" fill="#2F2E41"/>
<path d="M34.8133 40.1016L27.6159 36.2744C27.6159 36.2744 19.8599 47.6316 20.9318 53.7838C22.006 59.936 23.911 71.3888 23.911 71.3888L39.7882 72.061L37.0167 49.5069L34.8133 40.1016Z" fill="#E6E6E6"/>
<path d="M29.1985 140.434H34.1973V133.327H29.1985V140.434Z" fill="#A0616A"/>
<path d="M33.6452 144.505C32.7906 144.581 28.5127 144.921 28.2979 143.938C28.1021 143.036 28.391 142.094 28.4316 141.964C28.8422 137.864 28.9949 137.819 29.088 137.793C29.2337 137.75 29.6586 137.953 30.3485 138.398L30.3914 138.427L30.401 138.477C30.4129 138.541 30.7185 140.046 32.1675 139.814C33.1606 139.656 33.4829 139.436 33.5855 139.328C33.502 139.29 33.3969 139.223 33.3229 139.108C33.2155 138.941 33.1964 138.726 33.268 138.467C33.4542 137.786 34.0128 136.779 34.0367 136.738L34.1012 136.623L39.7827 140.465L43.2919 141.469C43.5568 141.546 43.7693 141.735 43.8767 141.988C44.0247 142.342 43.934 142.754 43.6476 143.012C43.0102 143.586 41.745 144.569 40.4153 144.691C40.062 144.725 39.5941 144.737 39.0689 144.737C36.8751 144.737 33.6715 144.509 33.6476 144.505H33.6452Z" fill="#2F2E41"/>
<path d="M39.7883 72.0589L23.9111 71.3867C23.9111 71.3867 21.9011 79.0219 24.441 86.9777L27.511 134.887H34.9208L41.9058 85.466L39.7883 72.0589Z" fill="#2F2E41"/>
<path d="M45.8871 84.5687C46.4719 86.2574 46.0398 87.9294 44.925 88.305C43.8102 88.6781 42.4328 87.6137 41.8479 85.9225C41.6044 85.2504 41.5328 84.5304 41.6378 83.8224L39.2578 76.6345L42.7813 75.5796L44.7555 82.7771C45.2783 83.277 45.6674 83.8917 45.8894 84.5687H45.8871Z" fill="#A0616A"/>
<path d="M25.9102 42.8048C25.9102 42.8048 31.0856 41.427 31.9283 42.9196C32.7686 44.4122 45.1939 80.9427 45.1939 80.9427L37.3066 81.9712L25.9125 42.8048H25.9102Z" fill="#E6E6E6"/>
<path d="M99.1494 49.4106H59.8691C58.0915 49.4106 56.6504 50.8681 56.6504 52.666C56.6504 54.4638 58.0915 55.9213 59.8691 55.9213H99.1494C100.927 55.9213 102.368 54.4638 102.368 52.666C102.368 50.8681 100.927 49.4106 99.1494 49.4106Z" fill="#2B41B8"/>
<path d="M71.1579 44H58.1604C57.8507 44 57.5996 44.254 57.5996 44.5674C57.5996 44.8807 57.8507 45.1347 58.1604 45.1347H71.1579C71.4676 45.1347 71.7187 44.8807 71.7187 44.5674C71.7187 44.254 71.4676 44 71.1579 44Z" fill="#2B41B8"/>
<path d="M99.1494 71.4512H59.8691C58.0915 71.4512 56.6504 72.9086 56.6504 74.7065C56.6504 76.5043 58.0915 77.9618 59.8691 77.9618H99.1494C100.927 77.9618 102.368 76.5043 102.368 74.7065C102.368 72.9086 100.927 71.4512 99.1494 71.4512Z" fill="#D7D7D8"/>
<path d="M71.1579 66.0381H58.1604C57.8507 66.0381 57.5996 66.2921 57.5996 66.6055C57.5996 66.9188 57.8507 67.1728 58.1604 67.1728H71.1579C71.4676 67.1728 71.7187 66.9188 71.7187 66.6055C71.7187 66.2921 71.4676 66.0381 71.1579 66.0381Z" fill="#D7D7D8"/>
<path d="M99.1494 93.4893H59.8691C58.0915 93.4893 56.6504 94.9467 56.6504 96.7446C56.6504 98.5424 58.0915 99.9999 59.8691 99.9999H99.1494C100.927 99.9999 102.368 98.5424 102.368 96.7446C102.368 94.9467 100.927 93.4893 99.1494 93.4893Z" fill="#D7D7D8"/>
<path d="M71.1579 88.0786H58.1604C57.8507 88.0786 57.5996 88.3326 57.5996 88.646C57.5996 88.9593 57.8507 89.2134 58.1604 89.2134H71.1579C71.4676 89.2134 71.7187 88.9593 71.7187 88.646C71.7187 88.3326 71.4676 88.0786 71.1579 88.0786Z" fill="#D7D7D8"/>
</g>
<defs>
<clipPath id="clip0_11086_24220">
<rect width="162" height="145" fill="white"/>
</clipPath>
</defs>
</svg>
