<svg width="20" height="20" viewBox="0 0 20 20" fill="none" xmlns="http://www.w3.org/2000/svg">
<path d="M2.02 19.15C1.69145 19.15 1.43206 19.043 1.19542 18.8058C0.957375 18.5673 0.850613 18.3075 0.85 17.9818V11.1625H7.275V19.15H2.02ZM10.225 19.15V11.1625H19.15V17.9813C19.15 18.3086 19.0432 18.5677 18.8058 18.8046C18.5677 19.0422 18.3077 19.1493 17.981 19.15C17.9807 19.15 17.9803 19.15 17.98 19.15L10.225 19.15ZM0.85 8.2125V2.02C0.85 1.69145 0.957027 1.43205 1.19416 1.19542C1.43244 0.957646 1.69253 0.850614 2.01946 0.85H17.9813C18.3086 0.85 18.5677 0.956755 18.8046 1.19416C19.0422 1.43232 19.1493 1.69228 19.15 2.019C19.15 2.01934 19.15 2.01968 19.15 2.02003L19.15 8.2125H0.85Z" stroke="#B5B5B9" stroke-width="1.7"/>
</svg>
