<svg width="20" height="19" viewBox="0 0 20 19" fill="none" xmlns="http://www.w3.org/2000/svg">
<path d="M2.419 19C1.89096 19 1.43931 18.812 1.06406 18.4359C0.688812 18.0599 0.500792 17.609 0.5 17.0834V9.79688H8.21875V19H2.419ZM9.40625 19V9.79688H19.5V17.0822C19.5 17.6094 19.312 18.0607 18.9359 18.4359C18.5599 18.8112 18.1086 18.9992 17.5822 19H9.40625ZM0.5 8.60938V1.919C0.5 1.39096 0.688021 0.939312 1.06406 0.564062C1.4401 0.188812 1.89135 0.000791667 2.41781 0H17.5822C18.1094 0 18.5607 0.188021 18.9359 0.564062C19.3112 0.940104 19.4992 1.39135 19.5 1.91781V8.60938H0.5Z" fill="#2B41B8"/>
</svg>
