<svg width="16" height="18" viewBox="0 0 16 18" fill="none" xmlns="http://www.w3.org/2000/svg">
<path d="M9.5 5.25V0.345C10.1938 0.607001 10.824 1.01348 11.3488 1.5375L13.9618 4.152C14.4864 4.67616 14.8932 5.30617 15.155 6H10.25C10.0511 6 9.86032 5.92098 9.71967 5.78033C9.57902 5.63968 9.5 5.44891 9.5 5.25ZM15.5 7.86375V14.25C15.4988 15.2442 15.1033 16.1973 14.4003 16.9003C13.6973 17.6033 12.7442 17.9988 11.75 18H4.25C3.2558 17.9988 2.30267 17.6033 1.59966 16.9003C0.896661 16.1973 0.501191 15.2442 0.5 14.25V3.75C0.501191 2.7558 0.896661 1.80267 1.59966 1.09966C2.30267 0.396661 3.2558 0.00119089 4.25 0L7.63625 0C7.7585 0 7.87925 0.00975 8 0.018V5.25C8 5.84674 8.23705 6.41903 8.65901 6.84099C9.08097 7.26295 9.65326 7.5 10.25 7.5H15.482C15.4902 7.62075 15.5 7.7415 15.5 7.86375ZM9.5 14.25C9.5 14.0511 9.42098 13.8603 9.28033 13.7197C9.13968 13.579 8.94891 13.5 8.75 13.5H5C4.80109 13.5 4.61032 13.579 4.46967 13.7197C4.32902 13.8603 4.25 14.0511 4.25 14.25C4.25 14.4489 4.32902 14.6397 4.46967 14.7803C4.61032 14.921 4.80109 15 5 15H8.75C8.94891 15 9.13968 14.921 9.28033 14.7803C9.42098 14.6397 9.5 14.4489 9.5 14.25ZM11.75 11.25C11.75 11.0511 11.671 10.8603 11.5303 10.7197C11.3897 10.579 11.1989 10.5 11 10.5H5C4.80109 10.5 4.61032 10.579 4.46967 10.7197C4.32902 10.8603 4.25 11.0511 4.25 11.25C4.25 11.4489 4.32902 11.6397 4.46967 11.7803C4.61032 11.921 4.80109 12 5 12H11C11.1989 12 11.3897 11.921 11.5303 11.7803C11.671 11.6397 11.75 11.4489 11.75 11.25Z" fill="#2B41B8"/>
</svg>
