<svg width="162" height="145" viewBox="0 0 162 145" fill="none" xmlns="http://www.w3.org/2000/svg">
<g clip-path="url(#clip0_11086_24271)">
<path d="M113.293 142.843L110.837 142.842L109.668 133.136L113.294 133.136L113.293 142.843Z" fill="#FFB6B6"/>
<path d="M104.877 142.786C104.8 142.918 104.76 143.343 104.76 143.497C104.76 143.969 105.133 144.351 105.594 144.351H113.202C113.516 144.351 113.771 144.09 113.771 143.768V143.444C113.771 143.444 114.147 142.469 113.372 141.267C113.372 141.267 112.409 142.208 110.97 140.734L110.546 139.946L107.474 142.248L105.771 142.462C105.399 142.509 105.068 142.455 104.877 142.786Z" fill="#2F2E41"/>
<path d="M139.229 139.695L136.984 140.717L132.066 132.333L135.38 130.825L139.229 139.695Z" fill="#FFB6B6"/>
<path d="M131.515 143.145C131.498 143.297 131.63 143.703 131.691 143.844C131.878 144.275 132.37 144.469 132.791 144.277L139.744 141.111C140.031 140.98 140.16 140.636 140.032 140.342L139.904 140.045C139.904 140.045 139.861 138.998 138.676 138.222C138.676 138.222 138.169 139.483 136.27 138.734L135.569 138.191L133.675 141.573L132.204 142.477C131.883 142.675 131.559 142.763 131.515 143.145Z" fill="#2F2E41"/>
<path d="M107.954 82.1055L105.77 86.8041L109.483 135.58H114.127L116.036 103.585L132.702 135.58H138.399L129.797 112.758L123.9 83.0004L107.954 82.1055Z" fill="#2F2E41"/>
<path d="M119.651 51.9731H113.891L111.778 55.3684L107.014 57.7026L108.049 72.3445L107.53 83.0204L108.242 82.9991C113.325 82.8472 118.406 83.6941 123.123 85.6397C124.334 86.1389 125.602 86.4173 126.694 86.1377C126.694 86.1377 126.28 84.44 125.866 84.0156C125.451 83.5912 125.244 83.2404 125.451 82.9914C125.659 82.7424 126.073 82.5302 125.659 82.1058C125.244 81.6814 125.244 81.1467 125.244 81.1467L124.001 71.7079L126.487 58.3392L121.308 55.3684L119.651 51.9731Z" fill="#2B41B8"/>
<path d="M129.548 70.4834L129.391 83.0057L126.35 94.1687L123.918 93.2396L124.998 83.0076L124.856 69.1611L129.548 70.4834Z" fill="#FFB6B6"/>
<path d="M126.339 95.9691C126.624 94.364 126.101 92.922 125.171 92.7485C124.241 92.575 123.255 93.7356 122.97 95.3407C122.684 96.9458 123.207 98.3877 124.138 98.5613C125.068 98.7348 126.054 97.5742 126.339 95.9691Z" fill="#FFB6B6"/>
<path d="M125.244 57.7022C125.244 57.7022 128.677 58.2469 128.721 61.2637C128.766 64.2805 132.081 69.1611 130.009 72.9808L124.623 73.8296L121.723 63.0073L125.037 57.2778" fill="#2B41B8"/>
<path d="M109.578 68.2783L102.738 78.6586L94.2148 86.281L92.6797 84.1375L99.0637 76.1905L106.363 64.5352L109.578 68.2783Z" fill="#FFB6B6"/>
<path d="M93.2425 87.7799C94.3409 86.5984 94.6761 85.099 93.9913 84.4309C93.3064 83.7629 91.8607 84.1792 90.7623 85.3607C89.6639 86.5422 89.3286 88.0416 90.0135 88.7096C90.6984 89.3776 92.144 88.9614 93.2425 87.7799Z" fill="#FFB6B6"/>
<path d="M112.827 55.1739C112.827 55.1739 115.405 57.5584 113.826 60.1056C112.247 62.6528 112.404 68.5961 108.626 70.6248L103.668 68.3069C104.086 64.1222 104.329 59.7834 107.041 57.6293L112.881 54.7026" fill="#2B41B8"/>
<path d="M115.876 51.0982C118.723 51.0982 121.03 48.7347 121.03 45.8191C121.03 42.9036 118.723 40.54 115.876 40.54C113.03 40.54 110.723 42.9036 110.723 45.8191C110.723 48.7347 113.03 51.0982 115.876 51.0982Z" fill="#FFB6B6"/>
<path d="M119.662 50.1569C119.945 50.2064 120.279 49.5016 120.597 48.8151C121.264 47.3781 121.688 46.4646 121.72 45.1734C121.747 44.0729 121.449 44.3617 121.158 41.9149C121.063 41.1079 119.717 41.1095 119.443 40.7263C118.98 40.079 119.69 39.8121 118.539 39.4232C116.382 38.6949 115.407 39.8263 114.038 39.9238C114.003 39.9262 113.324 40.6063 112.945 40.6415C112.281 40.7031 111.322 40.5971 110.893 39.5604C110.491 38.591 110.225 41.4237 110.584 41.7743C110.889 42.0719 111.415 42.819 111.428 42.8733C111.443 42.9348 110.178 41.4987 109.966 42.0905C109.814 42.5164 110.293 44.7077 110.68 44.79C111.003 44.8589 111.794 43.7673 111.615 44.215C111.201 45.2533 113.689 45.9157 116.668 43.8317C116.773 43.7578 116.673 43.8756 117.042 44.79C117.506 45.9433 117.611 46.0058 117.603 46.3234C117.586 47.011 117.082 47.2135 117.229 47.6651C117.348 48.0309 117.815 48.3141 118.165 48.2401C118.559 48.1566 118.627 47.6562 118.913 47.6651C119.158 47.6727 119.448 48.0505 119.474 48.4318C119.529 49.2351 118.368 49.456 118.165 50.5402C118.05 51.1521 119.401 50.1113 119.662 50.1569Z" fill="#2F2E41"/>
<path d="M78.8619 144.592H34.5772C27.9351 144.592 22.5312 139.057 22.5312 132.253V12.3388C22.5312 5.5352 27.9351 0 34.5772 0H78.8619C85.5039 0 90.9077 5.5352 90.9077 12.3388C91.732 60.4927 93.1378 114.417 90.9077 132.253C90.9077 139.057 85.5039 144.592 78.8619 144.592Z" fill="#334155"/>
<path d="M91.5252 44.1084C91.2442 44.1084 91.0156 44.3425 91.0156 44.6304V61.3341C91.0156 61.622 91.2442 61.8561 91.5252 61.8561C91.8063 61.8561 92.0348 61.622 92.0348 61.3341V44.6304C92.0348 44.3425 91.8063 44.1084 91.5252 44.1084Z" fill="#3F3D56"/>
<path d="M89.761 12.3387V132.251C89.761 138.173 85.2612 143.017 79.5714 143.393H79.5689C79.4848 143.398 79.4007 143.403 79.3141 143.406C79.1637 143.414 79.0134 143.416 78.8606 143.416C78.8606 143.416 78.3 143.374 77.2757 143.296C76.2412 143.218 74.7353 143.1 72.8574 142.946C72.2943 142.902 71.7006 142.852 71.0738 142.8C69.8253 142.696 68.4544 142.581 66.9842 142.451C66.3982 142.401 65.7918 142.346 65.1726 142.291C62.008 142.012 58.4637 141.686 54.7257 141.315C54.0938 141.255 53.4568 141.193 52.8147 141.127C52.6466 141.109 23.6777 133.65 23.6777 132.251V12.3387C23.6777 6.17142 28.5572 1.17334 34.5782 1.17334H41.0858C42.1254 1.17334 42.9611 2.00331 43.0503 3.06556C43.0579 3.13604 43.0656 3.20649 43.0783 3.27697C43.2669 4.34445 44.2224 5.08828 45.2824 5.08828H68.1563C69.2163 5.08828 70.1718 4.34445 70.3604 3.27697C70.3731 3.20649 70.3807 3.13604 70.3884 3.06556C70.4776 2.00331 71.3133 1.17334 72.3529 1.17334H78.8606C84.8815 1.17334 89.761 6.17142 89.761 12.3387Z" fill="white"/>
<path d="M22.2772 31.5806C21.9961 31.5806 21.7676 31.8147 21.7676 32.1026V36.2785C21.7676 36.5664 21.9961 36.8005 22.2772 36.8005C22.5582 36.8005 22.7868 36.5664 22.7868 36.2785V32.1026C22.7868 31.8147 22.5582 31.5806 22.2772 31.5806Z" fill="#3F3D56"/>
<path d="M22.2772 44.1084C21.9961 44.1084 21.7676 44.3425 21.7676 44.6304V52.7213C21.7676 53.0092 21.9961 53.2433 22.2772 53.2433C22.5582 53.2433 22.7868 53.0091 22.7868 52.7213V44.6304C22.7868 44.3425 22.5582 44.1084 22.2772 44.1084Z" fill="#3F3D56"/>
<path d="M22.2772 55.5923C21.9961 55.5923 21.7676 55.8264 21.7676 56.1143V64.2052C21.7676 64.493 21.9961 64.7271 22.2772 64.7271C22.5582 64.7271 22.7868 64.493 22.7868 64.2052V56.1143C22.7868 55.8264 22.5582 55.5923 22.2772 55.5923Z" fill="#3F3D56"/>
<path d="M40.9098 3.00146H31.1641C31.1112 3.00146 31.0684 3.04539 31.0684 3.09958V4.20834C31.0684 4.26252 31.1112 4.30645 31.1641 4.30645H40.9098C40.9627 4.30645 41.0056 4.26252 41.0056 4.20834V3.09958C41.0056 3.04539 40.9627 3.00146 40.9098 3.00146Z" fill="#E6E6E6"/>
<path d="M73.9645 4.30672C74.5274 4.30672 74.9837 3.83931 74.9837 3.26273C74.9837 2.68616 74.5274 2.21875 73.9645 2.21875C73.4016 2.21875 72.9453 2.68616 72.9453 3.26273C72.9453 3.83931 73.4016 4.30672 73.9645 4.30672Z" fill="#E6E6E6"/>
<path d="M76.7673 4.30672C77.3301 4.30672 77.7865 3.83931 77.7865 3.26273C77.7865 2.68616 77.3301 2.21875 76.7673 2.21875C76.2044 2.21875 75.748 2.68616 75.748 3.26273C75.748 3.83931 76.2044 4.30672 76.7673 4.30672Z" fill="#E6E6E6"/>
<path d="M79.57 4.30672C80.1329 4.30672 80.5892 3.83931 80.5892 3.26273C80.5892 2.68616 80.1329 2.21875 79.57 2.21875C79.0071 2.21875 78.5508 2.68616 78.5508 3.26273C78.5508 3.83931 79.0071 4.30672 79.57 4.30672Z" fill="#E6E6E6"/>
<path d="M79.8941 96.0597C79.8941 84.1599 70.0751 77.6137 58.8589 74.5132C44.4788 70.5381 33.9471 78.5819 37.8238 96.0597C40.3977 107.664 53.4623 124.981 58.8589 114.444C65.0342 102.385 79.8941 107.96 79.8941 96.0597Z" fill="#F2F2F2"/>
<path d="M0 144.623C0 144.832 0.163655 145 0.367449 145H161.633C161.836 145 162 144.832 162 144.623C162 144.415 161.836 144.247 161.633 144.247H0.367449C0.163655 144.247 0 144.415 0 144.623Z" fill="#2E2E41"/>
<path d="M51.629 93.9354L49.0879 92.7024C50.1301 94.1923 51.0282 96.5192 51.509 98.3708C52.3231 96.646 53.6354 94.5356 54.9344 93.275L52.2487 93.9827C53.9036 85.6749 60.1281 79.7107 67.2561 79.7107L67.357 79.4106C59.9117 79.4106 53.3187 85.2922 51.629 93.9354Z" fill="#3F3D56"/>
<path d="M63.3241 106.594H47.2683C46.5873 106.594 46.0332 106.026 46.0332 105.329C46.0332 104.631 46.5873 104.063 47.2683 104.063H63.3241C64.0051 104.063 64.5591 104.631 64.5591 105.329C64.5591 106.026 64.0051 106.594 63.3241 106.594Z" fill="#2B41B8"/>
<path d="M78.3346 41.0285V74.5533C78.3346 77.518 75.98 79.9299 73.0856 79.9299H40.3564C37.4621 79.9299 35.1074 77.518 35.1074 74.5533V41.0285C35.1074 38.0637 37.4621 35.6519 40.3564 35.6519H73.0856C75.98 35.6519 78.3346 38.0637 78.3346 41.0285ZM73.0856 79.2974C75.6435 79.2974 77.7171 77.1734 77.7171 74.5533V57.6514C77.7171 45.8507 68.3778 36.2844 56.8572 36.2844H40.3564C37.7985 36.2844 35.725 38.4084 35.725 41.0285V74.5533C35.725 77.1734 37.7985 79.2974 40.3564 79.2974H73.0856Z" fill="#3F3D56"/>
<path d="M61.0786 49.3441H50.5124C50.246 49.3441 50.0293 49.1221 50.0293 48.8493C50.0293 48.5764 50.246 48.3545 50.5124 48.3545H61.0786C61.3449 48.3545 61.5616 48.5764 61.5616 48.8493C61.5616 49.1221 61.3449 49.3441 61.0786 49.3441Z" fill="#3F3D56"/>
<path d="M61.0786 59.8959H50.5124C50.246 59.8959 50.0293 59.6739 50.0293 59.401C50.0293 59.1282 50.246 58.9062 50.5124 58.9062H61.0786C61.3449 58.9062 61.5616 59.1282 61.5616 59.401C61.5616 59.6739 61.3449 59.8959 61.0786 59.8959Z" fill="#3F3D56"/>
<path d="M55.8286 74.4447H45.2624C44.996 74.4447 44.7793 74.2227 44.7793 73.9499C44.7793 73.677 44.996 73.4551 45.2624 73.4551H55.8286C56.0949 73.4551 56.3116 73.677 56.3116 73.9499C56.3116 74.2227 56.0949 74.4447 55.8286 74.4447Z" fill="#3F3D56"/>
<path d="M66.7485 54.6234H44.8425C44.5761 54.6234 44.3594 54.4014 44.3594 54.1286C44.3594 53.8557 44.5761 53.6338 44.8425 53.6338H66.7485C67.0148 53.6338 67.2315 53.8557 67.2315 54.1286C67.2315 54.4014 67.0148 54.6234 66.7485 54.6234Z" fill="#3F3D56"/>
</g>
<defs>
<clipPath id="clip0_11086_24271">
<rect width="162" height="145" fill="white"/>
</clipPath>
</defs>
</svg>
