<svg width="169" height="178" viewBox="0 0 169 178" fill="none" xmlns="http://www.w3.org/2000/svg">
<path d="M153.555 44.5614C153.357 44.811 153.136 45.0408 152.894 45.2474L135.589 60.2239L122.672 99.4561L86.6632 125.769C86.6632 125.769 80.5277 130.909 74.9272 131.386C73.6735 131.824 69.8751 133.302 67.7713 135.586C67.093 136.322 61.7739 152.031 53.524 174.246C53.1111 175.358 52.2975 176.275 51.243 176.818C50.1885 177.36 48.9692 177.489 47.8246 177.179C37.5154 174.381 14.4244 168.22 3.438 164.058C2.76095 163.802 2.15689 163.384 1.67864 162.841C1.20038 162.298 0.862499 161.645 0.694523 160.941C0.526548 160.237 0.533596 159.503 0.715057 158.802C0.896517 158.102 1.24686 157.456 1.73546 156.922C14.3598 143.123 40.9017 111.538 40.9017 111.538L42.7024 107.798C42.7024 107.798 54.0411 72.3707 57.7499 70.068C59.1524 68.5451 67.2199 56.7354 70.3942 48.4967C71.1157 47.2977 74.4618 42.3075 77.2646 37.999C79.2507 34.919 80.9746 32.1791 81.2686 31.3965C81.3319 31.2172 81.4379 31.0559 81.5775 30.9267C81.5775 30.9267 81.5686 30.9241 81.58 30.9177C82.9174 29.5206 87.3551 29.8362 87.5704 35.14C87.8111 40.9906 82.5496 53.1274 81.4907 53.4581C80.9549 54.7489 79.4326 61.7008 76.4547 67.587C76.1982 68.4767 75.8152 70.7751 78.3269 70.2176C80.8412 69.6512 138.996 42.2543 138.996 42.2543L146.209 37.7234C147.271 37.0358 148.535 36.7277 149.795 36.8491C151.287 37.0207 152.654 37.7637 153.61 38.9221C155.668 41.3068 154.324 43.5979 153.555 44.5614Z" fill="#495DCE"/>
<path d="M80.2051 38.9615C79.1659 39.057 78.1051 38.5586 77.2651 37.9983C79.2512 34.9183 80.9751 32.1783 81.2691 31.3957C81.3324 31.2164 81.4384 31.0551 81.578 30.9259C83.9714 33.784 80.492 38.6683 80.2051 38.9615Z" fill="#D4E5FF"/>
<path d="M139.634 32.6464L97.0175 20.3628C94.0457 19.5062 90.9421 21.221 90.0855 24.1928L64.298 113.659C63.4415 116.63 65.1562 119.734 68.128 120.591L110.744 132.874C113.716 133.731 116.819 132.016 117.676 129.044L143.463 39.5783C144.32 36.6065 142.605 33.503 139.634 32.6464Z" fill="#2B41B8"/>
<path d="M137.393 34.887L97.7212 23.452C95.4923 22.8096 93.1647 24.0956 92.5222 26.3245L67.4955 113.151C66.853 115.38 68.1391 117.708 70.368 118.35L110.04 129.785C112.269 130.428 114.597 129.141 115.239 126.913L140.266 40.086C140.908 37.8571 139.622 35.5295 137.393 34.887Z" fill="#AACCFF"/>
<path d="M139.424 64.157L132.271 64.1005C128.733 64.0726 125.843 66.918 125.815 70.4559C125.787 73.9938 128.632 76.8845 132.17 76.9124L139.323 76.9688C142.86 76.9967 145.751 74.1513 145.779 70.6134C145.807 67.0755 142.961 64.1849 139.424 64.157Z" fill="#495DCE"/>
<path d="M136.944 77.3981L127.888 77.3267C125.019 77.3041 122.675 79.6114 122.652 82.4804C122.629 85.3493 124.937 87.6934 127.806 87.716L136.862 87.7875C139.731 87.8101 142.075 85.5027 142.097 82.6338C142.12 79.7648 139.812 77.4208 136.944 77.3981Z" fill="#495DCE"/>
<path d="M130.905 88.7656L125.554 88.7234C123.385 88.7063 121.614 90.4503 121.597 92.6188C121.579 94.7874 123.324 96.5592 125.492 96.5763L130.843 96.6185C133.011 96.6356 134.783 94.8915 134.8 92.723C134.817 90.5545 133.073 88.7827 130.905 88.7656Z" fill="#495DCE"/>
<path d="M127.756 90.1866L124.63 90.1619C124.089 90.1576 123.647 90.5929 123.642 91.1341L123.62 93.931C123.616 94.4722 124.051 94.9144 124.592 94.9187L127.719 94.9433C128.26 94.9476 128.702 94.5123 128.706 93.9711L128.728 91.1743C128.733 90.633 128.297 90.1908 127.756 90.1866Z" fill="#D4E5FF"/>
<path d="M130.926 79.7919L127.424 79.7643C126.264 79.7552 125.316 80.6879 125.307 81.8477L125.294 83.5416C125.285 84.7014 126.218 85.649 127.377 85.6581L130.88 85.6858C132.039 85.6949 132.987 84.7622 132.996 83.6024L133.01 81.9084C133.019 80.7487 132.086 79.8011 130.926 79.7919Z" fill="#D4E5FF"/>
<path d="M135.413 66.3556L132.585 66.3333C131.038 66.3211 129.775 67.5648 129.763 69.1111L129.745 71.3351C129.733 72.8814 130.977 74.1449 132.523 74.1571L135.351 74.1794C136.897 74.1916 138.161 72.9479 138.173 71.4016L138.191 69.1776C138.203 67.6313 136.959 66.3678 135.413 66.3556Z" fill="#D4E5FF"/>
<path d="M163.88 1.84822C159.335 -0.927424 155.603 0.491758 154.492 2.31022C153.69 3.62356 154.431 4.90806 155.34 5.4633C157.158 6.5735 158.001 3.52836 161.435 5.62556C163.119 6.65358 164.013 8.21696 163.067 9.76578C161.956 11.5841 159.434 11.4766 157.747 11.7409C156.256 11.9866 154.134 12.5859 152.366 15.4817C151.296 17.2327 151.459 18.0255 152.839 18.8686C154.489 19.8759 155.278 19.3408 155.669 18.7006C156.738 16.9496 157.389 15.9599 160.125 15.6428C161.466 15.4909 165.726 14.9486 167.659 11.7835C169.592 8.61834 168.19 4.47994 163.88 1.84822Z" fill="#2B41B8"/>
<path d="M151.454 21.2122C151.114 21.0043 150.735 20.8654 150.341 20.8036C149.947 20.7418 149.545 20.7583 149.157 20.852C148.769 20.9458 148.403 21.115 148.081 21.35C147.759 21.585 147.486 21.8812 147.278 22.2217C147.07 22.5622 146.931 22.9403 146.869 23.3345C146.807 23.7286 146.824 24.1311 146.917 24.5189C147.011 24.9067 147.18 25.2722 147.415 25.5946C147.65 25.917 147.947 26.19 148.287 26.3979C148.975 26.8179 149.801 26.9475 150.584 26.7581C151.368 26.5688 152.044 26.0761 152.464 25.3885C152.883 24.7008 153.013 23.8745 152.824 23.0913C152.634 22.3081 152.142 21.6322 151.454 21.2122Z" fill="#2B41B8"/>
</svg>
