<svg width="169" height="188" viewBox="0 0 169 188" fill="none" xmlns="http://www.w3.org/2000/svg">
<g clip-path="url(#clip0_11088_31210)" filter="url(#filter0_d_11088_31210)">
<path d="M65.8446 110.24C66.7538 111.997 66.5829 113.89 65.4628 114.467C64.3428 115.045 62.6977 114.089 61.7885 112.332C61.3905 111.563 61.1995 110.767 61.2044 110.068L57.4453 102.575L61.0054 100.889L64.3333 108.455C64.9076 108.855 65.4466 109.471 65.8446 110.24Z" fill="#FFB6B6"/>
<path d="M37.8698 177.851L41.0749 177.851L42.5996 165.51L37.8691 165.51L37.8698 177.851Z" fill="#FFB6B6"/>
<path d="M48.8514 177.779C48.9512 177.947 49.0039 178.488 49.0039 178.683C49.0039 179.283 48.5169 179.769 47.9161 179.769H37.9902C37.5804 179.769 37.2481 179.437 37.2481 179.028V178.616C37.2481 178.616 36.7571 177.376 37.768 175.848C37.768 175.848 39.0245 177.044 40.9019 175.17L41.4556 174.169L45.4632 177.095L47.6846 177.368C48.1706 177.427 48.6015 177.358 48.8514 177.779Z" fill="#2F2E41"/>
<path d="M22.8327 177.851L26.0378 177.851L27.5625 165.51L22.832 165.51L22.8327 177.851Z" fill="#FFB6B6"/>
<path d="M33.8143 177.779C33.9141 177.947 33.9668 178.488 33.9668 178.683C33.9668 179.283 33.4798 179.769 32.879 179.769H22.9531C22.5433 179.769 22.211 179.437 22.211 179.028V178.616C22.211 178.616 21.72 177.376 22.7309 175.848C22.7309 175.848 23.9874 177.044 25.8648 175.17L26.4185 174.169L30.4261 177.095L32.6475 177.368C33.1335 177.427 33.5644 177.358 33.8143 177.779Z" fill="#2F2E41"/>
<path d="M18.2975 105.036L16.9473 113.273L21.148 139.931L22.1982 172.13H27.8696L30.7496 141.728L30.4495 121.66L37.2007 172.43H43.0942L43.6518 108.78L18.2975 105.036Z" fill="#2F2E41"/>
<path d="M25.347 62.3535H35.9645L45.1503 67.745C43.7207 67.3823 42.6162 80.6229 42.5786 92.3222C42.5761 93.0996 41.8044 93.9934 41.8116 94.7528C41.8177 95.407 42.6015 95.9297 42.6151 96.5644C42.6278 97.1576 42.6438 97.741 42.6633 98.3123C42.6795 98.7866 41.7906 99.4149 41.8116 99.8712C41.8383 100.454 42.7765 100.859 42.8113 101.408C43.0254 104.78 43.3946 107.452 43.9501 108.78C43.9501 108.78 20.2461 115.37 18.4458 105.186C18.4458 105.186 18.5486 101.526 18.5342 96.4707C18.5329 96.0222 18.1503 95.6154 18.147 95.1465C18.1446 94.7979 18.522 94.3915 18.5183 94.0332C18.5152 93.7386 18.151 93.4783 18.147 93.1779C18.1447 92.9989 18.5029 92.7816 18.5002 92.6007C18.3562 82.9886 17.7097 70.8749 15.4453 67.745L25.347 62.3535Z" fill="#2B41B8"/>
<path d="M35.8496 62.3535C35.8496 62.3535 42.7296 64.8494 44.9127 66.8376C46.0728 67.8942 53.8527 87.8133 53.8527 87.8133L64.6586 106.6L59.0417 108.729L47.5516 91.4077L42.4507 80.0256L35.8496 62.3535Z" fill="#2B41B8"/>
<path d="M21.5792 110.951C22.5827 112.656 22.515 114.555 21.428 115.193C20.341 115.83 18.6463 114.965 17.6428 113.26C17.2036 112.513 16.9696 111.73 16.9365 111.031L12.7754 103.753L16.2386 101.876L19.9731 109.25C20.5683 109.619 21.14 110.205 21.5792 110.951Z" fill="#FFB6B6"/>
<path d="M23.8477 71.6391L20.8472 64.75C20.8472 64.75 13.796 66.9965 13.796 70.2913C13.796 70.2913 9.59529 95.4516 10.1954 101.742L14.0961 108.631L19.647 104.288L16.1964 96.3501L23.8477 71.6391Z" fill="#2B41B8"/>
<path d="M17.6777 116.396L21.217 109.38L25.3488 115.071L21.6302 118.665L17.6777 116.396Z" fill="#2F2E41"/>
<path d="M30.5564 60.3749C34.3488 60.3749 37.4233 57.3058 37.4233 53.52C37.4233 49.7341 34.3488 46.665 30.5564 46.665C26.7639 46.665 23.6895 49.7341 23.6895 53.52C23.6895 57.3058 26.7639 60.3749 30.5564 60.3749Z" fill="#FFB6B6"/>
<path d="M35.912 45.8622C34.7187 45.4807 34.154 44.0637 33.0625 43.4495C31.8553 42.7702 30.4112 42.3462 29.08 42.7305C28.2632 42.9663 27.5516 43.4876 26.7343 43.7214C26.5914 43.7623 26.4411 43.7905 26.2885 43.805C25.4095 43.8886 24.6548 44.4148 24.2155 45.1794L24.204 45.1992C23.9462 45.6397 23.5796 46.0046 23.2542 46.3982C22.067 47.8343 21.4245 49.7007 21.4377 51.5627C21.4519 53.5642 22.2234 55.5513 23.564 57.0396L23.9064 56.882C24.734 57.5956 25.5616 58.3092 26.3893 59.0229C25.9389 57.4006 25.4843 55.7215 25.7227 54.0549C25.9612 52.3884 27.0838 50.7257 28.7391 50.404C29.3653 50.2823 30.0258 50.3558 30.6336 50.1626C31.2415 49.9694 31.8014 49.3455 31.5928 48.7436C31.9692 49.737 33.3732 49.6783 34.3395 50.1227C36.5022 51.1174 35.7105 49.5802 37.5879 51.0425C38.222 47.5341 40.6511 47.3774 35.912 45.8622Z" fill="#2F2E41"/>
<path d="M4.5 179.531C4.5 179.791 4.70905 180 4.96937 180H164.031C164.291 180 164.5 179.791 164.5 179.531C164.5 179.271 164.291 179.062 164.031 179.062H4.96937C4.70905 179.062 4.5 179.271 4.5 179.531Z" fill="#3F3D56"/>
<path d="M135.614 179.931H72.1702C64.4343 179.931 58.1406 173.043 58.1406 164.576V15.3545C58.1406 6.88803 64.4343 0 72.1702 0H135.614C143.35 0 149.644 6.88803 149.644 15.3545V164.576C149.644 173.043 143.35 179.931 135.614 179.931Z" fill="#3F3D56"/>
<path d="M149.445 54.7275C149.119 54.7275 148.854 55.0236 148.854 55.3876V76.5096C148.854 76.8736 149.119 77.1697 149.445 77.1697C149.771 77.1697 150.037 76.8736 150.037 76.5096V55.3876C150.037 55.0236 149.771 54.7275 149.445 54.7275Z" fill="#3F3D56"/>
<path d="M148.064 15.4517V164.48C148.064 171.839 142.852 177.86 136.262 178.327H136.259C136.161 178.333 136.064 178.34 135.964 178.343C135.79 178.353 135.615 178.356 135.438 178.356C135.438 178.356 134.789 178.304 133.603 178.207C132.404 178.11 130.66 177.964 128.485 177.772C127.833 177.717 127.145 177.655 126.419 177.591C124.973 177.461 123.385 177.318 121.682 177.156C121.003 177.094 120.301 177.026 119.583 176.958C115.918 176.611 111.812 176.205 107.483 175.745C106.751 175.67 106.013 175.592 105.269 175.511C105.074 175.489 104.876 175.469 104.679 175.446C101.592 175.112 59.7168 166.218 59.7168 164.48V15.4517C59.7168 7.78686 65.3688 1.5752 72.3429 1.5752H79.8808C81.085 1.5752 82.0531 2.60669 82.1564 3.92687C82.1652 4.01446 82.1741 4.10202 82.1888 4.18961C82.4072 5.51628 83.514 6.44073 84.7418 6.44073H123.039C124.267 6.44073 125.374 5.51628 125.592 4.18961C125.607 4.10202 125.616 4.01446 125.625 3.92687C125.728 2.60669 126.696 1.5752 127.9 1.5752H135.438C142.413 1.5752 148.064 7.78686 148.064 15.4517Z" fill="white"/>
<path d="M57.9263 39.3145C57.5673 39.3145 57.2754 39.6059 57.2754 39.9643V45.1628C57.2754 45.5212 57.5673 45.8126 57.9263 45.8126C58.2854 45.8126 58.5773 45.5212 58.5773 45.1628V39.9643C58.5773 39.6059 58.2854 39.3145 57.9263 39.3145Z" fill="#3F3D56"/>
<path d="M57.9263 54.9102C57.5673 54.9102 57.2754 55.2016 57.2754 55.56V65.6322C57.2754 65.9905 57.5673 66.282 57.9263 66.282C58.2854 66.282 58.5773 65.9905 58.5773 65.6322V55.56C58.5773 55.2016 58.2854 54.9102 57.9263 54.9102Z" fill="#3F3D56"/>
<path d="M57.9263 69.2061C57.5673 69.2061 57.2754 69.4975 57.2754 69.8559V79.9281C57.2754 80.2865 57.5673 80.5779 57.9263 80.5779C58.2854 80.5779 58.5773 80.2864 58.5773 79.9281V69.8559C58.5773 69.4975 58.2854 69.2061 57.9263 69.2061Z" fill="#3F3D56"/>
<path d="M79.73 3.54395H69.2862C69.2295 3.54395 69.1836 3.61021 69.1836 3.69195V5.36455C69.1836 5.44629 69.2295 5.51255 69.2862 5.51255H79.73C79.7867 5.51255 79.8326 5.44629 79.8326 5.36455V3.69195C79.8326 3.61021 79.7867 3.54395 79.73 3.54395Z" fill="#E6E6E6"/>
<path d="M130.261 5.361C130.98 5.361 131.563 4.77913 131.563 4.06136C131.563 3.34359 130.98 2.76172 130.261 2.76172C129.542 2.76172 128.959 3.34359 128.959 4.06136C128.959 4.77913 129.542 5.361 130.261 5.361Z" fill="#E6E6E6"/>
<path d="M133.841 5.361C134.56 5.361 135.143 4.77913 135.143 4.06136C135.143 3.34359 134.56 2.76172 133.841 2.76172C133.122 2.76172 132.539 3.34359 132.539 4.06136C132.539 4.77913 133.122 5.361 133.841 5.361Z" fill="#E6E6E6"/>
<path d="M137.421 5.361C138.14 5.361 138.723 4.77913 138.723 4.06136C138.723 3.34359 138.14 2.76172 137.421 2.76172C136.702 2.76172 136.119 3.34359 136.119 4.06136C136.119 4.77913 136.702 5.361 137.421 5.361Z" fill="#E6E6E6"/>
<path d="M131.307 37.4662H76.0894C75.2195 37.4662 74.5117 36.7597 74.5117 35.8913C74.5117 35.0229 75.2195 34.3164 76.0894 34.3164H131.307C132.177 34.3164 132.884 35.0229 132.884 35.8913C132.884 36.7597 132.177 37.4662 131.307 37.4662Z" fill="#E6E6E6"/>
<path d="M137.437 162.078H116.927C116.057 162.078 115.35 161.372 115.35 160.504C115.35 159.635 116.057 158.929 116.927 158.929H137.437C138.306 158.929 139.014 159.635 139.014 160.504C139.014 161.372 138.306 162.078 137.437 162.078Z" fill="#E6E6E6"/>
<path d="M90.501 162.078H69.9917C69.1218 162.078 68.4141 161.372 68.4141 160.504C68.4141 159.635 69.1218 158.929 69.9917 158.929H90.501C91.3709 158.929 92.0786 159.635 92.0786 160.504C92.0786 161.372 91.3709 162.078 90.501 162.078Z" fill="#E6E6E6"/>
<path d="M142.168 41.6982H65.2266V42.092H142.168V41.6982Z" fill="#3F3D56"/>
<path d="M131.307 61.4828H76.0894C75.2195 61.4828 74.5117 60.7763 74.5117 59.9079C74.5117 59.0395 75.2195 58.333 76.0894 58.333H131.307C132.177 58.333 132.884 59.0395 132.884 59.9079C132.884 60.7763 132.177 61.4828 131.307 61.4828Z" fill="#E6E6E6"/>
<path d="M142.168 65.7148H65.2266V66.1086H142.168V65.7148Z" fill="#3F3D56"/>
<path d="M131.307 85.5004H76.0894C75.2195 85.5004 74.5117 84.7939 74.5117 83.9255C74.5117 83.0571 75.2195 82.3506 76.0894 82.3506H131.307C132.177 82.3506 132.884 83.0571 132.884 83.9255C132.884 84.7939 132.177 85.5004 131.307 85.5004Z" fill="#E6E6E6"/>
<path d="M142.168 89.7314H65.2266V90.1252H142.168V89.7314Z" fill="#3F3D56"/>
<path d="M142.168 110.205H65.2266V110.599H142.168V110.205Z" fill="#3F3D56"/>
<path d="M142.168 130.679H65.2266V131.072H142.168V130.679Z" fill="#3F3D56"/>
<path d="M103.844 145.081C116.478 145.081 126.72 134.857 126.72 122.245C126.72 109.633 116.478 99.4092 103.844 99.4092C91.2106 99.4092 80.9688 109.633 80.9688 122.245C80.9688 134.857 91.2106 145.081 103.844 145.081Z" fill="#2B41B8"/>
<path d="M103.818 130.275C105.043 130.275 106.053 131.228 106.053 132.464C106.053 133.664 105.043 134.652 103.818 134.652C102.557 134.652 101.548 133.664 101.548 132.464C101.548 131.228 102.557 130.275 103.818 130.275ZM107.494 115.944C107.494 114.073 106.161 112.202 103.674 112.202C101.764 112.202 100.575 113.296 99.9981 114.497C99.7819 114.991 99.2413 115.238 98.7008 115.132L97.5115 114.814C96.9349 114.673 96.6466 114.073 96.8628 113.544C98.1602 110.508 101.043 109.061 103.998 109.061C107.854 109.061 110.99 112.061 110.99 115.626C110.99 120.815 106.125 121.698 105.584 126.039C105.512 126.498 105.116 126.887 104.611 126.887H103.133C102.557 126.887 102.124 126.392 102.16 125.828C102.737 120.709 107.494 119.686 107.494 115.944Z" fill="white"/>
</g>
<defs>
<filter id="filter0_d_11088_31210" x="0.5" y="0" width="168" height="188" filterUnits="userSpaceOnUse" color-interpolation-filters="sRGB">
<feFlood flood-opacity="0" result="BackgroundImageFix"/>
<feColorMatrix in="SourceAlpha" type="matrix" values="0 0 0 0 0 0 0 0 0 0 0 0 0 0 0 0 0 0 127 0" result="hardAlpha"/>
<feOffset dy="4"/>
<feGaussianBlur stdDeviation="2"/>
<feComposite in2="hardAlpha" operator="out"/>
<feColorMatrix type="matrix" values="0 0 0 0 0 0 0 0 0 0 0 0 0 0 0 0 0 0 0.25 0"/>
<feBlend mode="normal" in2="BackgroundImageFix" result="effect1_dropShadow_11088_31210"/>
<feBlend mode="normal" in="SourceGraphic" in2="effect1_dropShadow_11088_31210" result="shape"/>
</filter>
<clipPath id="clip0_11088_31210">
<rect width="160" height="180" fill="white" transform="translate(4.5)"/>
</clipPath>
</defs>
</svg>
