<svg width="206" height="127" viewBox="0 0 206 127" fill="none" xmlns="http://www.w3.org/2000/svg">
<path d="M108.137 29.0232C108.137 29.0232 53.6898 90.181 53.0607 96.963C53.0607 96.963 55.52 98.0527 58.2631 101.232C61.4383 104.913 65.2435 106.317 67.1489 105.281C69.8941 103.788 69.6584 101.733 69.6584 101.733L111.679 116.955C111.679 116.955 126.519 112.302 156.614 80.9311L164.62 69.4931L108.137 29.0232Z" fill="#0E84E5"/>
<path d="M45.7432 37.8577C45.7432 37.8577 52.4444 42.6649 60.4531 38.1332L85.6415 23.6758C85.6415 23.6758 94.2176 17.3464 103.037 23.4349C103.037 23.4349 95.0242 42.8989 111.533 46.2298C111.533 46.2298 127.644 53.6136 136.169 61.1937C140.455 65.0073 149.623 71.4752 153.982 75.1276C155.152 76.1065 157.545 77.5699 158.759 79.0369C160.445 81.0743 163.668 85.5169 158.497 89.8268C158.497 89.8268 155.052 93.8746 148.148 89.6144C141.731 85.6548 130.545 76.4706 123.765 72.1984C123.397 71.9668 121.717 71.6244 124.06 73.9108C126.952 76.7292 140.454 86.7102 140.454 86.7102C140.454 86.7102 145.505 90.2172 146.705 91.9975C147.759 93.5588 149.381 96.9875 146.361 100.711C146.361 100.711 142.071 106.365 134.717 101.872L117.834 90.0861C117.834 90.0861 114.243 87.7684 117.13 91.1513C117.13 91.1513 134.265 103.19 134.939 105.022C136.86 110.244 133.143 116.961 124.793 113.718L105.448 103.141C105.448 103.141 103.68 102.883 105.127 104.293C105.127 104.293 123.076 113.556 124.319 114.574C125.946 115.905 121.997 122.178 113.814 119.665C102.144 116.083 78.5548 109.633 67.1482 105.28C63.135 103.749 54.8909 99.6586 51.7135 97.7359C51.7135 97.7359 38.9679 89.7149 21.5145 89.3814L34.0889 35.7848L45.7432 37.8577Z" fill="#495DCE"/>
<path d="M65.2392 108.893C65.2392 108.893 68.9248 104.024 71.2032 102.263C75.8253 98.6918 84.1649 102.153 84.5701 106.53C84.5701 106.53 86.368 110.831 78.9123 117.174C77.5338 118.345 73.154 121.13 66.7497 115.867C66.7495 115.868 62.9286 112.354 65.2392 108.893Z" fill="#0E84E5"/>
<path d="M72.6255 65.6158C72.6255 65.6158 83.3048 74.0737 94.36 48.9127C94.36 48.9127 100.242 50.9623 109.381 45.6626L111.285 42.7016C111.285 42.7016 92.7245 44.677 92.8064 45.042C92.8883 45.407 72.6255 65.6158 72.6255 65.6158Z" fill="#0E84E5"/>
<path d="M81.1202 118.415C80.9889 115.186 85.5154 109.262 87.4965 107.171C89.8309 104.707 99.0232 102.352 100.091 112.138C100.091 112.138 99.5213 118.996 94.4151 122.905C91.9876 124.765 81.3981 125.261 81.1202 118.415Z" fill="#0E84E5"/>
<path d="M101.724 113.531C103.289 111.043 111.043 109.856 111.216 117.001C111.282 119.707 109.872 124.167 105.854 125.935C102.933 127.22 95.2236 125.128 96.6893 121.995C97.6958 119.841 98.188 119.153 101.724 113.531Z" fill="#0E84E5"/>
<path d="M51.5374 102.513C52.2112 101.032 53.3246 99.6121 55.548 97.8205C56.8932 96.7376 60.6732 96.317 62.9464 97.7365C64.578 98.7562 67.7943 101.145 67.0735 103.271C65.7022 107.309 63.3775 112.779 58.3443 111.199C58.3441 111.198 48.5333 109.116 51.5374 102.513Z" fill="#0E84E5"/>
<path d="M43.7333 32.5837L33.4608 99.3633L0.475586 93.015L15.0942 24.9867L43.7333 32.5837Z" fill="#2B41B8"/>
<path d="M55.1697 100.263C55.1697 100.263 53.557 104.839 56.4204 106.761C56.4204 106.761 60.1052 111.183 64.6664 103.879C65.4265 102.662 63.727 100.513 60.7166 99.7097C60.7168 99.7097 57.8647 98.6114 55.1697 100.263Z" fill="#84A8DF"/>
<path d="M69.7667 108.491C69.7667 108.491 71.6441 104.289 73.2387 103.643C74.8809 102.978 79.8145 102.871 81.8875 107.717C82.2441 108.551 80.9564 110.291 80.3768 111.213C79.3084 112.917 76.55 115.466 73.3432 113.715C73.3429 113.715 69.2405 112.234 69.7667 108.491Z" fill="#84A8DF"/>
<path d="M86.554 112.088C86.9995 110.867 88.7284 108.642 90.302 108.485C92.8903 108.227 98.8676 110.147 97.288 113.974C97.288 113.974 95.9318 117.219 93.0217 117.976C93.0217 117.976 87.9749 119.785 86.108 115.089C85.8272 114.384 86.2957 112.8 86.554 112.088Z" fill="#84A8DF"/>
<path d="M100.258 119.427C101.004 121.286 104.2 123.207 106.151 121.435C106.942 120.718 108.571 118.319 108.66 117.256C108.809 115.457 105.27 111.66 102.17 115.196C101.438 116.031 99.8456 118.396 100.258 119.427Z" fill="#84A8DF"/>
<path d="M115.433 21.7017C115.433 21.7017 104.64 18.2977 96.3837 26.5867L82.5455 35.0596C82.5455 35.0596 76.6434 37.0166 74.8175 44.9134L68.5315 57.9834C68.5315 57.9834 63.453 66.9515 78.2633 65.7233C78.2633 65.7233 86.7399 62.1408 93.47 48.5293L93.4227 46.7918C93.4227 46.7918 94.3818 48.9352 99.2734 48.0746C99.2734 48.0746 104.325 46.326 111.312 44.0121C111.312 44.0121 112.446 45.3922 119.159 49.0781C119.159 49.0781 135.569 57.6646 139.384 62.2422L159.043 77.2051C159.043 77.2051 162.095 75.9862 169.689 64.1764L186.634 58.1535L168.857 9.65564C168.857 9.65564 141.793 20.2549 133.845 21.0473L115.433 21.7017Z" fill="#2B41B8"/>
<path d="M157.029 10.8351L180.444 65.9566L205.362 56.286L180.884 0.49292L157.029 10.8351Z" fill="#495DCE"/>
<path d="M71.6536 51.491C71.6536 51.491 77.6019 49.2395 79.3559 53.3573C79.3559 53.3573 77.5488 60.6989 75.5155 62.3264C73.9438 63.5864 68.7255 64.1019 67.6993 61.4156C67.6993 61.4156 67.0538 58.6481 71.6536 51.491Z" fill="#84A8DF"/>
<path d="M125.287 52.4553C125.287 52.4553 136.352 57.001 147.53 48.0466C147.53 48.0466 139.851 58.3941 129.516 54.9536L125.287 52.4553Z" fill="#0E84E5"/>
<path d="M22.2897 86.5003C22.362 87.2237 22.2181 87.9523 21.8762 88.594C21.5344 89.2356 21.0099 89.7615 20.3692 90.105C19.7284 90.4486 19.0002 90.5944 18.2766 90.5241C17.553 90.4537 16.8664 90.1704 16.3039 89.7099C15.7413 89.2493 15.3279 88.6323 15.116 87.9369C14.9042 87.2414 14.9033 86.4987 15.1135 85.8027C15.3237 85.1068 15.7356 84.4888 16.2971 84.0269C16.8586 83.5651 17.5445 83.2801 18.2679 83.208C19.2378 83.1115 20.2062 83.4041 20.9604 84.0215C21.7146 84.6388 22.1927 85.5304 22.2897 86.5003Z" fill="white"/>
<path d="M193.299 50.9189C193.371 51.6422 193.227 52.3706 192.885 53.012C192.543 53.6534 192.018 54.179 191.378 54.5224C190.737 54.8658 190.009 55.0115 189.286 54.9411C188.562 54.8707 187.876 54.5874 187.313 54.1269C186.751 53.6665 186.338 53.0496 186.126 52.3543C185.914 51.659 185.913 50.9165 186.123 50.2207C186.333 49.5249 186.745 48.907 187.306 48.4452C187.868 47.9834 188.553 47.6984 189.277 47.6263C189.757 47.5783 190.242 47.6255 190.704 47.765C191.166 47.9046 191.596 48.1338 191.97 48.4395C192.343 48.7453 192.653 49.1216 192.881 49.547C193.109 49.9724 193.251 50.4386 193.299 50.9189Z" fill="white"/>
</svg>
