<svg width="133" height="162" viewBox="0 0 133 162" fill="none" xmlns="http://www.w3.org/2000/svg">
<g clip-path="url(#clip0_11088_30095)">
<path d="M106.672 55.9746H93.5506V51.5751C93.5506 44.2007 99.43 38.2136 106.672 38.2136L106.672 55.9746Z" fill="#2F2E41"/>
<path d="M103.763 47.7617L106.019 58.0947L92.7988 55.8594L98.186 46.0869L103.763 47.7617Z" fill="#A0616A"/>
<path opacity="0.1" d="M103.763 47.7617L106.019 58.0947L92.7988 55.8594L98.186 46.0869L103.763 47.7617Z" fill="black"/>
<path d="M91.089 88.937H103.764V69.8352H91.089V88.937Z" fill="#A0616A"/>
<path d="M112.003 104.554L109.214 119.784C109.214 119.784 110.989 130.367 105.665 141.209L102.116 152.308L96.793 151.534C96.793 151.534 100.088 143.274 100.088 139.66C100.088 136.046 100.849 122.107 100.849 122.107L100.469 106.201L112.003 104.554Z" fill="#2F2E41"/>
<path d="M96.032 151.276C96.032 151.276 102.116 148.953 102.623 152.308L102.369 153.857C102.369 153.857 104.651 160.827 101.355 161.343C98.06 161.859 95.0181 162.634 94.7646 161.085C94.5111 159.536 94.5151 157.603 95.1468 156.246C95.7786 154.89 96.032 151.276 96.032 151.276Z" fill="#2F2E41"/>
<path d="M92.8119 102.191L91.3309 117.61C91.3309 117.61 86.736 127.274 88.8884 139.195L89.2658 150.862L94.5907 151.626C94.5907 151.626 93.6812 142.758 94.6682 139.287C95.6552 135.815 98.7316 122.211 98.7316 122.211L103.441 107.04L92.8119 102.191Z" fill="#2F2E41"/>
<path d="M95.3923 151.593C95.3923 151.593 90.183 147.638 88.7795 150.718L88.6 152.278C88.6 152.278 84.5051 158.326 87.5295 159.755C90.5539 161.185 93.2643 162.79 93.9308 161.374C94.5973 159.958 95.1215 158.1 94.8851 156.618C94.6488 155.136 95.3923 151.593 95.3923 151.593Z" fill="#2F2E41"/>
<path d="M108.961 80.1602C114.923 85.8256 115.365 94.7895 111.876 105.457C111.876 105.457 100.722 113.201 92.6106 103.392L88.5547 83.5159L108.961 80.1602Z" fill="#2F2E41"/>
<path d="M98.9465 52.5402L105.284 53.5727L104.777 69.8351L111.875 84.2906L102.749 88.937C102.749 88.937 95.6511 75.2559 94.3836 66.7375C93.1162 58.2191 93.8766 52.0239 93.8766 52.0239L98.9465 52.5402Z" fill="#2B41B8"/>
<path d="M94.1306 53.0563L87.7933 54.0888L88.3003 70.3512L86.7793 85.3229L90.3282 89.4531C90.3282 89.4531 97.426 75.772 98.6935 67.2536C99.9609 58.7352 99.2004 52.54 99.2004 52.54L94.1306 53.0563Z" fill="#2B41B8"/>
<path d="M101.736 53.4436L103.13 53.0564C103.13 53.0564 108.074 52.4111 108.834 54.4761C109.594 56.5412 109.341 68.6735 109.341 68.6735C109.341 68.6735 110.649 83.5639 105.559 83.7336C100.469 83.9033 101.483 71.5129 101.483 71.5129L101.736 53.4436Z" fill="#2B41B8"/>
<path d="M101.551 50.5973C105.174 50.5973 108.112 47.6063 108.112 43.9166C108.112 40.2269 105.174 37.2358 101.551 37.2358C97.9275 37.2358 94.9902 40.2269 94.9902 43.9166C94.9902 47.6063 97.9275 50.5973 101.551 50.5973Z" fill="#A0616A"/>
<path d="M93.3708 53.9597L91.9765 53.5725C91.9765 53.5725 87.0334 52.9272 86.273 54.9922C85.5125 57.0573 85.766 69.1896 85.766 69.1896C85.766 69.1896 84.4579 84.08 89.5481 84.2497C94.6382 84.4194 93.6242 72.029 93.6242 72.029L93.3708 53.9597Z" fill="#00BFA6"/>
<path d="M97.7609 53.111C96.3535 52.7474 94.7578 54.2781 94.1965 56.5309C93.9601 57.4277 93.9381 58.3691 94.1322 59.2763L93.5275 61.8371L93.483 61.8347L88.7127 73.2826C87.6036 75.9444 87.7208 79.0002 89.1354 81.5072C89.977 82.9986 91.0817 84.0013 92.3789 82.9778C94.5313 81.2795 95.9371 71.5556 96.579 65.9698L98.0632 60.292C98.659 59.5886 99.0806 58.7502 99.2928 57.8469C99.8543 55.595 99.1683 53.4747 97.7609 53.111Z" fill="#A0616A"/>
<path d="M88.991 49.3212C89.3248 48.2879 89.9835 47.3833 90.2783 46.3378C90.6696 44.9497 91.5028 48.0292 91.5841 46.5874C91.7386 43.8469 95.8461 36.7974 98.1909 35.4432C100.536 34.0891 101.883 34.4974 104.272 35.7691C104.272 35.7691 105.431 35.8442 106.875 36.57C108.319 37.2958 109.618 38.4582 110.18 39.9948C110.625 41.2128 110.575 42.5503 110.724 43.841C111.138 47.4367 113.118 50.8565 112.693 54.451C112.56 55.5725 112.142 56.7322 111.241 57.3918C110.341 58.0514 108.886 57.9796 108.293 57.0249C108.091 56.6991 108.006 56.3125 107.832 55.9698C107.659 55.6272 107.346 55.3077 106.967 55.3184C106.399 55.3344 106.109 56.1115 106.333 56.644C106.558 57.1765 107.085 57.4979 107.58 57.7839C106.401 58.3238 104.939 58.1557 103.909 57.3617C102.878 56.5678 102.321 55.1809 102.511 53.8793C102.778 52.0449 105.403 52.4246 105.712 50.5971C105.937 49.2668 106.727 47.0408 106.512 45.7088C106.296 44.3767 105.263 45.9896 106.352 45.2199C105.154 45.8081 102.591 41.7842 101.336 41.3335C100.082 40.8828 99.0183 39.9069 98.4479 38.6832C97.1175 40.6472 95.9472 40.1138 95.4707 42.4499C94.9942 44.7859 95.4347 50.0931 97.3967 51.3974C96.6115 51.9429 95.9856 52.723 95.6172 53.6153C95.4085 54.1207 95.2732 54.6738 94.9268 55.0936C94.2652 55.8954 93.0436 55.9442 92.0698 55.6071C90.8625 55.1891 89.8302 54.2709 89.261 53.1089C88.6918 51.9468 88.5926 50.5548 88.991 49.3212Z" fill="#2F2E41"/>
<path d="M0 161.627C0 161.797 0.134359 161.934 0.301671 161.934H132.698C132.866 161.934 133 161.797 133 161.627C133 161.456 132.866 161.319 132.698 161.319H0.301671C0.134359 161.319 0 161.456 0 161.627Z" fill="#3F3D56"/>
<path d="M86.196 1.26758H34.0605C28.1483 1.26758 23.3555 6.0924 23.3555 12.0441V149.956C23.3555 155.908 28.1482 160.732 34.0604 160.732H86.196C92.1082 160.732 96.901 155.908 96.901 149.956V12.0441C96.901 6.0924 92.1082 1.26758 86.196 1.26758Z" fill="white"/>
<path d="M34.062 161.388H86.1976C92.4635 161.388 97.556 156.257 97.556 149.956V12.0444C97.556 5.74317 92.4635 0.612695 86.1976 0.612695H34.062C27.7961 0.612695 22.7035 5.74317 22.7035 12.0444V149.956C22.7035 156.257 27.7961 161.388 34.062 161.388ZM24.0105 12.0444C24.0105 6.46132 28.5224 1.92307 34.062 1.92307H86.1976C91.7371 1.92307 96.2491 6.46131 96.2491 12.0444V149.956C96.2491 155.539 91.7371 160.077 86.1976 160.077H34.062C28.5224 160.077 24.0105 155.539 24.0105 149.956V12.0444Z" fill="#3F3D56" stroke="#334155" stroke-width="0.8"/>
<path d="M19.0487 25.145C18.591 25.145 18.2188 25.5197 18.2188 25.9805V32.6642C18.2188 33.125 18.591 33.4997 19.0487 33.4997C19.5064 33.4997 19.8786 33.125 19.8786 32.6642V25.9805C19.8786 25.5197 19.5064 25.145 19.0487 25.145Z" fill="#3F3D56"/>
<path d="M89.9739 23.3314H69.0182C68.1294 23.3314 67.4062 22.6035 67.4062 21.7087C67.4062 20.8139 68.1294 20.0859 69.0182 20.0859H89.9739C90.8628 20.0859 91.5859 20.8139 91.5859 21.7087C91.5859 22.6035 90.8628 23.3314 89.9739 23.3314Z" fill="#E6E6E6"/>
<path d="M70.3131 36.0928H49.9431C49.4296 36.0928 49.0117 35.6722 49.0117 35.1552C49.0117 34.6382 49.4296 34.2178 49.9431 34.2178H70.3131C70.8266 34.2178 71.2443 34.6382 71.2443 35.1552C71.2443 35.6722 70.8266 36.0928 70.3131 36.0928Z" fill="#2B41B8"/>
<path d="M19.8538 40.7203C28.9396 40.7203 36.3052 33.4618 36.3052 24.5079C36.3052 15.554 28.9396 8.29541 19.8538 8.29541C10.7679 8.29541 3.40234 15.554 3.40234 24.5079C3.40234 33.4618 10.7679 40.7203 19.8538 40.7203Z" fill="#2B41B8"/>
<path d="M25.4365 16.3302C23.2463 20.345 21.0561 24.3598 18.8659 28.3746C17.47 25.8918 16.0818 23.4045 14.6824 20.9236C14.1992 20.0668 12.8847 20.8375 13.3691 21.6964C14.9913 24.5723 16.5966 27.4578 18.2187 30.3338C18.4961 30.8255 19.2575 30.8369 19.532 30.3338C21.938 25.9235 24.3439 21.5133 26.7498 17.103C27.2213 16.2388 25.9083 15.4654 25.4365 16.3302Z" fill="white"/>
<path d="M41.5227 4.75293H29.8931C29.8497 4.75293 29.8145 4.78837 29.8145 4.83209V6.19501C29.8145 6.23873 29.8497 6.27418 29.8931 6.27418H41.5227C41.5662 6.27418 41.6014 6.23873 41.6014 6.19501V4.83209C41.6014 4.78837 41.5662 4.75293 41.5227 4.75293Z" fill="#E6E6E6"/>
<path d="M80.6952 6.27433C81.3629 6.27433 81.9042 5.72946 81.9042 5.05733C81.9042 4.3852 81.3629 3.84033 80.6952 3.84033C80.0276 3.84033 79.4863 4.3852 79.4863 5.05733C79.4863 5.72946 80.0276 6.27433 80.6952 6.27433Z" fill="#E6E6E6"/>
<path d="M84.0195 6.27433C84.6871 6.27433 85.2284 5.72946 85.2284 5.05733C85.2284 4.3852 84.6871 3.84033 84.0195 3.84033C83.3518 3.84033 82.8105 4.3852 82.8105 5.05733C82.8105 5.72946 83.3518 6.27433 84.0195 6.27433Z" fill="#E6E6E6"/>
<path d="M87.3437 6.27433C88.0113 6.27433 88.5526 5.72946 88.5526 5.05733C88.5526 4.3852 88.0113 3.84033 87.3437 3.84033C86.676 3.84033 86.1348 4.3852 86.1348 5.05733C86.1348 5.72946 86.676 6.27433 87.3437 6.27433Z" fill="#E6E6E6"/>
<path d="M33.9336 41.1118C33.9336 41.2802 34.068 41.4155 34.2353 41.4155H86.0213C86.1886 41.4155 86.3229 41.2802 86.3229 41.1118C86.3229 40.9434 86.1886 40.8081 86.0213 40.8081H34.2353C34.068 40.8081 33.9336 40.9434 33.9336 41.1118Z" fill="#3F3D56"/>
<path d="M81.056 64.9796H49.9783C49.4647 64.9796 49.0469 64.5589 49.0469 64.0419C49.0469 63.525 49.4647 63.1045 49.9783 63.1045H81.056C81.5695 63.1045 81.9872 63.525 81.9872 64.0419C81.9872 64.5589 81.5695 64.9796 81.056 64.9796Z" fill="#2B41B8"/>
<path d="M81.056 78.5045H49.9783C49.4647 78.5045 49.0469 78.0838 49.0469 77.5668C49.0469 77.0499 49.4647 76.6294 49.9783 76.6294H81.056C81.5695 76.6294 81.9872 77.0499 81.9872 77.5668C81.9872 78.0838 81.5695 78.5045 81.056 78.5045Z" fill="#2B41B8"/>
<path d="M81.056 92.0294H49.9783C49.4647 92.0294 49.0469 91.6087 49.0469 91.0917C49.0469 90.5748 49.4647 90.1543 49.9783 90.1543H81.056C81.5695 90.1543 81.9872 90.5748 81.9872 91.0917C81.9872 91.6087 81.5695 92.0294 81.056 92.0294Z" fill="#2B41B8"/>
<path d="M40.5529 66.2228C41.8129 66.2228 42.8344 65.1945 42.8344 63.9261C42.8344 62.6577 41.8129 61.6294 40.5529 61.6294C39.2929 61.6294 38.2715 62.6577 38.2715 63.9261C38.2715 65.1945 39.2929 66.2228 40.5529 66.2228Z" fill="#2B41B8"/>
<path d="M40.2988 67.7541V67.2437C42.1858 67.2437 43.721 65.6982 43.721 63.7987C43.721 61.8991 42.1858 60.3536 40.2988 60.3536V59.8433C42.4654 59.8433 44.228 61.6176 44.228 63.7987C44.228 65.9797 42.4654 67.7541 40.2988 67.7541Z" fill="#3F3D56"/>
<path d="M40.5529 79.7477C41.8129 79.7477 42.8344 78.7194 42.8344 77.451C42.8344 76.1826 41.8129 75.1543 40.5529 75.1543C39.2929 75.1543 38.2715 76.1826 38.2715 77.451C38.2715 78.7194 39.2929 79.7477 40.5529 79.7477Z" fill="#2B41B8"/>
<path d="M40.2988 81.279V80.7686C42.1858 80.7686 43.721 79.2233 43.721 77.3236C43.721 75.424 42.1858 73.8785 40.2988 73.8785V73.3682C42.4654 73.3682 44.228 75.1425 44.228 77.3236C44.228 79.5046 42.4654 81.279 40.2988 81.279Z" fill="#3F3D56"/>
<path d="M40.5529 93.2726C41.8129 93.2726 42.8344 92.2443 42.8344 90.9759C42.8344 89.7075 41.8129 88.6792 40.5529 88.6792C39.2929 88.6792 38.2715 89.7075 38.2715 90.9759C38.2715 92.2443 39.2929 93.2726 40.5529 93.2726Z" fill="#2B41B8"/>
<path d="M40.2988 94.8039V94.2935C42.1858 94.2935 43.721 92.7482 43.721 90.8485C43.721 88.9488 42.1858 87.4034 40.2988 87.4034V86.8931C42.4654 86.8931 44.228 88.6674 44.228 90.8485C44.228 93.0295 42.4654 94.8039 40.2988 94.8039Z" fill="#3F3D56"/>
<path d="M97.3451 52.5949C98.7525 52.2313 100.348 53.762 100.91 56.0148C101.146 56.9116 101.168 57.853 100.974 58.7602L101.579 61.3209L101.623 61.3186L106.393 72.7665C107.502 75.4283 107.385 78.484 105.971 80.9911C105.129 82.4825 104.024 83.4851 102.727 82.4617C100.575 80.7634 99.1689 71.0395 98.527 65.4537L97.0428 59.7758C96.447 59.0725 96.0254 58.2341 95.8132 57.3308C95.2517 55.0789 95.9377 52.9586 97.3451 52.5949Z" fill="#A0616A"/>
<path d="M102.763 58.8682L97.4258 62.7314L100.094 79.844L103.441 84.2516L107.34 82.8786L108.479 74.7891L107.138 66.9658L102.763 58.8682Z" fill="#2B41B8"/>
</g>
<defs>
<clipPath id="clip0_11088_30095">
<rect width="133" height="162" fill="white"/>
</clipPath>
</defs>
</svg>
