<svg width="20" height="21" viewBox="0 0 20 21" fill="none" xmlns="http://www.w3.org/2000/svg">
<path d="M18.0146 10.139L4.9945 10.1656L4.99348 10.1656C4.80938 10.1656 4.66016 10.3148 4.66016 10.4989C4.66016 10.6828 4.80916 10.832 4.99305 10.8322C4.99319 10.8322 4.99334 10.8322 4.99348 10.8322L18.0041 10.8056C18.0257 10.8009 18.054 10.7959 18.0871 10.7935L18.9837 10.7282L18.5663 11.5244C18.4702 11.7077 18.3483 11.8762 18.2045 12.0249L18.1988 12.0308L18.1987 12.0308L14.9662 15.2633L14.9601 15.2694L14.96 15.2694C14.8276 15.3972 14.8239 15.6082 14.9518 15.7407C15.0797 15.8731 15.2906 15.8768 15.423 15.749L18.0146 10.139ZM18.0146 10.139C18.038 10.1427 18.0664 10.1456 18.0985 10.1456H18.977L18.5284 9.39024C18.438 9.23802 18.3296 9.09703 18.2054 8.97044L18.2054 8.97042L18.202 8.967L14.9733 5.73825C14.8509 5.60896 14.8516 5.40593 14.9756 5.27757L14.9756 5.27755C15.1027 5.14595 15.3119 5.14151 15.4445 5.267L17.8197 7.6422H17.8166L18.6699 8.4957C19.7759 9.60207 19.776 11.3955 18.6699 12.502C18.6699 12.502 18.6699 12.502 18.6699 12.502L15.4374 15.7345L15.4374 15.7344L15.4314 15.7406L15.4231 15.7489L18.0146 10.139ZM18.0585 10.8055L18.0575 10.8055L18.0585 10.8055Z" fill="#E62C2D" stroke="#E62C2D"/>
<path d="M5.83527 18.8333H4.16859C2.78789 18.8333 1.66859 17.714 1.66859 16.3333V4.66668C1.66859 3.28598 2.78789 2.16668 4.16859 2.16668H5.83527C6.29551 2.16668 6.66859 1.79359 6.66859 1.33336C6.66859 0.873125 6.29555 0.5 5.83527 0.5H4.16859C1.86859 0.502773 0.00472656 2.36664 0.00195312 4.66668V16.3334C0.00472656 18.6334 1.86859 20.4973 4.16863 20.5H5.83531C6.29555 20.5 6.66863 20.1269 6.66863 19.6667C6.66863 19.2064 6.29555 18.8333 5.83527 18.8333Z" fill="#E62C2D"/>
</svg>
