<svg width="249" height="185" viewBox="0 0 249 185" fill="none" xmlns="http://www.w3.org/2000/svg">
<g clip-path="url(#clip0_11044_50183)">
<path d="M212.562 183.611C215.204 177.423 217.067 170.688 216.185 164.022C215.883 161.762 215.225 159.564 214.236 157.509C213.44 155.834 212.411 154.28 211.18 152.892C210.755 152.403 210.171 152.078 209.53 151.975C208.89 151.872 208.234 151.997 207.676 152.329C207.59 152.378 207.504 152.431 207.424 152.488C206.993 152.792 206.652 153.208 206.44 153.691C206.399 153.783 206.364 153.879 206.337 153.976C206.215 154.383 206.182 154.811 206.241 155.232C206.705 158.663 206.605 162.146 205.942 165.544C205.773 166.409 205.567 167.266 205.323 168.116C204.774 167.431 204.191 166.775 203.576 166.15C201.98 164.534 200.14 163.178 198.123 162.133H198.119C198.109 162.126 198.103 162.123 198.093 162.117C195.646 160.87 192.385 161.387 190.478 162.236C190.352 162.289 190.233 162.349 190.117 162.405C189.123 162.915 188.629 163.502 189.053 163.886C189.149 163.969 189.245 164.056 189.335 164.142C192.224 166.813 194.592 169.998 196.316 173.535V173.538C197.001 174.947 197.579 176.405 198.043 177.9C198.683 179.965 199.213 182.256 200.463 183.939C200.591 184.117 200.729 184.286 200.877 184.447L212.042 184.357C212.068 184.344 212.092 184.334 212.118 184.321L212.562 184.337C212.546 184.258 212.526 184.178 212.506 184.099V184.092C212.496 184.049 212.483 184.002 212.473 183.963C212.463 183.93 212.456 183.9 212.45 183.873C212.469 183.823 212.489 183.777 212.513 183.727C212.529 183.688 212.546 183.651 212.562 183.611Z" fill="#F0F0F0"/>
<path d="M212.506 184.092C212.503 184.117 212.493 184.14 212.478 184.16C212.463 184.18 212.443 184.196 212.42 184.206C212.397 184.216 212.371 184.22 212.347 184.217C212.322 184.215 212.298 184.206 212.277 184.191C211.818 183.859 211.315 183.592 210.782 183.399C210.779 183.396 210.779 183.399 210.779 183.399C210.106 183.157 209.414 182.973 208.71 182.849C208.704 182.849 208.7 182.846 208.694 182.846C208.409 182.789 208.124 182.74 207.839 182.687C206.453 182.431 205.044 182.123 203.844 181.334C203.356 181.032 202.937 180.629 202.615 180.154C202.294 179.678 202.076 179.139 201.978 178.573C201.802 177.463 202.024 176.346 202.117 175.239C202.124 175.159 202.13 175.076 202.134 174.997C202.14 174.894 202.144 174.795 202.144 174.695C202.178 173.69 201.976 172.691 201.554 171.778C201.011 170.686 200.3 169.686 199.445 168.815C199.004 168.341 198.545 167.885 198.066 167.446H198.063C198.043 167.426 198.027 167.41 198.007 167.393C198.007 167.39 198.003 167.387 198 167.383C195.954 165.525 193.634 163.993 191.122 162.842C191.032 162.803 190.939 162.76 190.846 162.72C190.604 162.61 190.362 162.508 190.117 162.405C190.233 162.349 190.353 162.289 190.478 162.236C193.281 163.421 195.868 165.063 198.133 167.095C198.209 167.161 198.285 167.231 198.358 167.3C198.932 167.831 199.477 168.387 199.996 168.968C200.824 169.86 201.496 170.887 201.981 172.004C202.337 172.908 202.494 173.878 202.442 174.848C202.435 175.033 202.422 175.219 202.406 175.408C202.303 176.525 202.074 177.678 202.329 178.795C202.621 180.068 203.609 180.956 204.756 181.5C205.515 181.838 206.312 182.085 207.129 182.236C208.82 182.59 210.567 182.763 212.045 183.671H212.049C212.072 183.688 212.095 183.701 212.115 183.714C212.118 183.714 212.118 183.714 212.118 183.717C212.225 183.781 212.328 183.851 212.426 183.926C212.433 183.93 212.44 183.936 212.446 183.939C212.456 183.946 212.465 183.954 212.473 183.963C212.488 183.98 212.499 184.001 212.505 184.023C212.511 184.046 212.511 184.069 212.506 184.092Z" fill="white"/>
<path d="M198.272 167.414C198.874 166.667 199.192 165.731 199.167 164.771C199.143 163.812 198.778 162.893 198.138 162.178C198.008 162.033 197.778 162.229 197.908 162.373C198.505 163.038 198.844 163.894 198.866 164.787C198.887 165.681 198.588 166.552 198.023 167.244C197.9 167.395 198.15 167.564 198.272 167.414Z" fill="white"/>
<path d="M202.24 174.685C200.291 174.912 198.329 174.395 196.744 173.239C196.587 173.125 196.417 173.374 196.574 173.489C198.226 174.689 200.269 175.222 202.296 174.982C202.489 174.959 202.432 174.662 202.24 174.685Z" fill="white"/>
<path d="M191.141 162.806C191.134 162.819 191.128 162.829 191.121 162.842C190.939 163.178 190.683 163.469 190.374 163.694C190.065 163.918 189.71 164.071 189.334 164.142C189.245 164.056 189.149 163.969 189.053 163.886C189.068 163.877 189.085 163.871 189.102 163.87C189.463 163.83 189.81 163.705 190.113 163.505C190.416 163.305 190.667 163.036 190.846 162.72C190.863 162.693 190.879 162.663 190.892 162.637C190.904 162.62 190.918 162.606 190.934 162.596C190.951 162.585 190.969 162.577 190.989 162.573C191.008 162.57 191.028 162.57 191.047 162.574C191.067 162.578 191.085 162.586 191.101 162.597C191.133 162.62 191.155 162.655 191.162 162.694C191.17 162.732 191.162 162.773 191.141 162.806Z" fill="white"/>
<path d="M24.2856 1.8042C18.3254 1.81092 12.6112 4.18134 8.39662 8.39543C4.18209 12.6095 1.81141 18.3231 1.80469 24.2827V110.428C1.81141 116.387 4.18209 122.101 8.39662 126.315C12.6112 130.529 18.3254 132.899 24.2856 132.906H224.715C230.675 132.899 236.39 130.529 240.604 126.315C244.819 122.101 247.189 116.387 247.196 110.428V24.2827C247.189 18.3231 244.819 12.6095 240.604 8.39543C236.39 4.18134 230.675 1.81092 224.715 1.8042H24.2856Z" fill="white"/>
<path d="M224.715 134.71H24.2853C17.8466 134.703 11.6738 132.142 7.12099 127.59C2.56819 123.038 0.00724715 116.865 0 110.427V24.2826C0.00724715 17.8447 2.56819 11.6725 7.12099 7.12022C11.6738 2.56792 17.8466 0.00724637 24.2853 0H224.715C231.153 0.00724198 237.326 2.56791 241.879 7.12022C246.432 11.6725 248.993 17.8447 249 24.2826V110.427C248.993 116.865 246.432 123.038 241.879 127.59C237.326 132.142 231.153 134.703 224.715 134.71ZM24.2853 3.60829C18.8034 3.61449 13.5478 5.79466 9.67155 9.67051C5.79529 13.5464 3.61488 18.8014 3.60868 24.2826V110.427C3.61488 115.909 5.79529 121.164 9.67155 125.04C13.5478 128.915 18.8034 131.096 24.2853 131.102H224.715C230.197 131.096 235.452 128.915 239.328 125.04C243.205 121.164 245.385 115.909 245.391 110.427V24.2826C245.385 18.8014 243.205 13.5464 239.328 9.67051C235.452 5.79466 230.197 3.61449 224.715 3.60829H24.2853Z" fill="#E6E6E6"/>
<path d="M125.039 19.6396H29.7214C27.6871 19.6431 25.7371 20.4527 24.2986 21.8911C22.8601 23.3294 22.0504 25.2792 22.0469 27.3133V70.3003C22.046 70.7563 22.0883 71.2114 22.1732 71.6594C22.2033 71.8639 22.2514 72.0623 22.2995 72.2608C22.7361 73.8966 23.6999 75.3429 25.0416 76.3757C26.3833 77.4085 28.0281 77.9702 29.7214 77.9739H125.039C125.195 77.9739 125.352 77.9679 125.502 77.9559H125.61V77.9499C125.641 77.9509 125.671 77.9489 125.701 77.9439C125.731 77.9439 125.767 77.9379 125.797 77.9379C125.807 77.9388 125.818 77.9367 125.827 77.9319C125.893 77.9258 125.959 77.9198 126.019 77.9138C126.128 77.8958 126.236 77.8837 126.338 77.8657C126.352 77.8608 126.366 77.8587 126.38 77.8597C126.399 77.8505 126.42 77.8463 126.44 77.8477C126.443 77.8454 126.446 77.8437 126.449 77.8426C126.452 77.8416 126.455 77.8412 126.458 77.8416C126.525 77.8296 126.591 77.8176 126.657 77.7995C126.694 77.7944 126.73 77.7864 126.765 77.7755C126.898 77.7454 127.03 77.7154 127.156 77.6733C127.216 77.6552 127.27 77.6432 127.331 77.6252C127.409 77.6011 127.493 77.571 127.571 77.541C127.612 77.5297 127.652 77.5156 127.691 77.4989C127.696 77.4988 127.701 77.4977 127.705 77.4956C127.709 77.4935 127.713 77.4905 127.716 77.4869C127.889 77.4255 128.06 77.3553 128.227 77.2764C128.371 77.2102 128.509 77.1381 128.648 77.0659C128.702 77.0418 128.75 77.0117 128.804 76.9817C128.817 76.9758 128.83 76.9677 128.84 76.9577C128.979 76.8735 129.117 76.7893 129.249 76.7111C129.255 76.7051 129.255 76.6991 129.261 76.6991C129.262 76.6991 129.263 76.6989 129.264 76.6986C129.264 76.6983 129.265 76.6979 129.266 76.6973C129.266 76.6968 129.267 76.6961 129.267 76.6954C129.267 76.6946 129.267 76.6938 129.267 76.693C129.409 76.6043 129.545 76.5079 129.676 76.4044H129.682C129.718 76.3743 129.748 76.3502 129.778 76.3262C129.821 76.2961 129.863 76.26 129.899 76.23C129.971 76.1698 130.043 76.1097 130.109 76.0495C130.15 76.0187 130.188 75.9845 130.224 75.9473C130.326 75.8571 130.422 75.7609 130.518 75.6647C130.57 75.6156 130.618 75.5634 130.663 75.5083C130.737 75.4366 130.808 75.3602 130.873 75.2798C130.933 75.2016 130.999 75.1234 131.06 75.0452C131.131 74.9631 131.197 74.8768 131.258 74.7867C131.366 74.6423 131.463 74.498 131.559 74.3416C131.637 74.2153 131.715 74.083 131.787 73.9507C131.823 73.8846 131.86 73.8124 131.896 73.7402C131.902 73.7402 131.902 73.7342 131.902 73.7282C131.968 73.6019 132.028 73.4756 132.082 73.3433C132.106 73.2892 132.13 73.2411 132.148 73.187C132.196 73.0847 132.232 72.9765 132.275 72.8682C132.341 72.6698 132.407 72.4653 132.461 72.2608C132.509 72.0624 132.557 71.8639 132.587 71.6595C132.672 71.2114 132.714 70.7563 132.714 70.3003V27.3133C132.71 25.2792 131.9 23.3294 130.462 21.8911C129.023 20.4527 127.073 19.6431 125.039 19.6396Z" fill="#2B41B8"/>
<path opacity="0.3" d="M132.714 31.9678H22.0469V32.5692H132.714V31.9678Z" fill="white"/>
<path opacity="0.3" d="M132.714 38.583H22.0469V39.1844H132.714V38.583Z" fill="white"/>
<path opacity="0.3" d="M132.714 45.1982H22.0469V45.7996H132.714V45.1982Z" fill="white"/>
<path opacity="0.3" d="M132.714 51.8135H22.0469V52.4149H132.714V51.8135Z" fill="white"/>
<path opacity="0.3" d="M132.714 58.4287H22.0469V59.0301H132.714V58.4287Z" fill="white"/>
<path opacity="0.3" d="M132.714 65.0439H22.0469V65.6453H132.714V65.0439Z" fill="white"/>
<path opacity="0.3" d="M132.587 71.6592C132.557 71.8636 132.509 72.0621 132.461 72.2606H22.1308C22.0945 72.0617 22.0704 71.8609 22.0586 71.6592H132.587Z" fill="white"/>
<g opacity="0.1">
<path d="M132.714 60.9908V70.3002C132.714 70.7562 132.672 71.2113 132.587 71.6593C132.557 71.8638 132.509 72.0622 132.461 72.2607C132.407 72.4652 132.341 72.6697 132.274 72.8681C132.232 72.9764 132.196 73.0846 132.148 73.1868C132.13 73.241 132.106 73.2891 132.082 73.3432C132.028 73.4755 131.968 73.6018 131.902 73.7281C131.902 73.7341 131.902 73.7401 131.896 73.7401C131.859 73.8123 131.823 73.8845 131.787 73.9506C131.715 74.0829 131.637 74.2152 131.559 74.3415C131.463 74.4979 131.366 74.6422 131.258 74.7865C131.197 74.8767 131.131 74.963 131.06 75.0451C130.999 75.1233 130.933 75.2015 130.873 75.2796C130.808 75.3601 130.737 75.4364 130.663 75.5082C130.618 75.5633 130.57 75.6155 130.518 75.6645C130.422 75.7608 130.326 75.857 130.224 75.9472C130.188 75.9844 130.15 76.0186 130.109 76.0494C130.043 76.1096 129.971 76.1697 129.899 76.2298C129.863 76.2599 129.821 76.296 129.778 76.3261C129.748 76.3501 129.718 76.3742 129.682 76.4043H129.676C129.545 76.5078 129.409 76.6042 129.267 76.6929C129.267 76.6937 129.267 76.6945 129.267 76.6952C129.267 76.696 129.266 76.6967 129.266 76.6972C129.265 76.6978 129.264 76.6982 129.264 76.6985C129.263 76.6988 129.262 76.699 129.261 76.6989C129.255 76.6989 129.255 76.705 129.249 76.7109C129.165 76.7711 129.075 76.8252 128.985 76.8794C128.936 76.9094 128.888 76.9335 128.84 76.9575C128.83 76.9676 128.817 76.9757 128.804 76.9816C128.75 77.0116 128.702 77.0417 128.648 77.0658C128.509 77.1379 128.371 77.2101 128.227 77.2762C128.06 77.3551 127.889 77.4254 127.716 77.4867C127.713 77.4904 127.709 77.4934 127.705 77.4955C127.701 77.4975 127.696 77.4987 127.691 77.4987C127.652 77.5155 127.612 77.5295 127.571 77.5408C127.493 77.5709 127.409 77.601 127.331 77.625C127.27 77.6431 127.216 77.6551 127.156 77.6732C127.03 77.7152 126.898 77.7453 126.765 77.7754C126.73 77.7863 126.694 77.7943 126.657 77.7994C126.591 77.8175 126.525 77.8295 126.458 77.8415C126.455 77.8411 126.452 77.8414 126.449 77.8425C126.446 77.8435 126.443 77.8453 126.44 77.8475C126.42 77.8462 126.399 77.8504 126.38 77.8596C126.366 77.8586 126.352 77.8607 126.338 77.8656C126.236 77.8836 126.128 77.8957 126.019 77.9137C125.959 77.9197 125.893 77.9257 125.827 77.9317C125.818 77.9366 125.807 77.9387 125.797 77.9378C125.731 77.9438 125.671 77.9498 125.61 77.9558H125.598C125.532 77.9618 125.466 77.9618 125.4 77.9678C125.28 77.9738 125.159 77.9738 125.039 77.9738H29.7214C28.0281 77.9701 26.3833 77.4084 25.0416 76.3756C23.6999 75.3428 22.7361 73.8965 22.2995 72.2607H22.1311C22.0948 72.0619 22.0707 71.861 22.0589 71.6593C22.0529 71.545 22.0469 71.4248 22.0469 71.3105V60.8224C23.3092 60.8596 24.5611 61.0639 25.7698 61.4298C29.0417 62.4281 32.2234 64.118 35.6396 64.118C35.9103 64.118 36.193 64.1059 36.4696 64.0819C40.0663 63.7812 42.863 61.5501 45.1906 59.0303C45.3771 58.8318 45.5635 58.6333 45.738 58.4289C46.177 57.9418 46.598 57.4426 47.007 56.9495C48.3137 55.2995 49.7781 53.7808 51.3796 52.415C51.6382 52.2045 51.8968 52.0061 52.1615 51.8136C53.7144 50.6556 55.5431 49.9238 57.4663 49.6907C57.7128 49.6667 57.9594 49.6486 58.206 49.6427C60.7802 49.5645 63.198 50.4906 65.3994 51.8136C65.7181 52.0061 66.0369 52.2045 66.3436 52.415C67.3961 53.1285 68.41 53.8973 69.381 54.7183C70.8799 56.0349 72.4458 57.2734 74.0723 58.4289C74.1925 58.5131 74.3128 58.5973 74.4331 58.6694C74.6196 58.7957 74.812 58.916 75.0045 59.0303C76.6521 60.0892 78.505 60.7881 80.4416 61.081C80.5078 61.093 80.5799 61.105 80.6521 61.111C83.7857 61.4779 86.7027 60.5517 89.3671 59.0303C89.6979 58.8378 90.0347 58.6393 90.3595 58.4289C92.4408 57.0457 94.3915 55.4756 96.1875 53.7381C96.6567 53.2991 97.1318 52.854 97.625 52.415C97.8476 52.2166 98.0701 52.0121 98.2986 51.8136C101.871 48.6744 105.991 45.7998 110.857 45.7998C111.061 45.7998 111.272 45.8058 111.482 45.8178C114.983 45.9862 118.056 47.6821 120.636 49.8351C121.386 50.4569 122.103 51.1173 122.784 51.8136C122.814 51.8437 122.838 51.8678 122.868 51.8978C123.036 52.0662 123.205 52.2406 123.361 52.415C125.286 54.4296 127.06 56.5826 129.153 58.4289C129.382 58.6393 129.616 58.8378 129.857 59.0302C130.578 59.6294 131.342 60.176 132.142 60.666C132.329 60.7803 132.521 60.8885 132.714 60.9908Z" fill="black"/>
</g>
<g opacity="0.1">
<path d="M132.714 51.9039V70.3002C132.714 70.7563 132.672 71.2113 132.587 71.6594C132.557 71.8638 132.509 72.0623 132.461 72.2608C132.407 72.4652 132.341 72.6697 132.274 72.8682C132.232 72.9764 132.196 73.0847 132.148 73.1869C132.13 73.241 132.106 73.2891 132.082 73.3432C132.028 73.4755 131.968 73.6018 131.902 73.7281C131.902 73.7342 131.902 73.7401 131.896 73.7401C131.859 73.8123 131.823 73.8845 131.787 73.9506C131.715 74.0829 131.637 74.2153 131.559 74.3415C131.463 74.4979 131.366 74.6422 131.258 74.7866C131.197 74.8767 131.131 74.9631 131.06 75.0452C130.999 75.1234 130.933 75.2015 130.873 75.2797C130.808 75.3602 130.737 75.4365 130.663 75.5082C130.618 75.5633 130.57 75.6155 130.518 75.6646C130.422 75.7608 130.326 75.857 130.224 75.9473C130.188 75.9844 130.15 76.0186 130.109 76.0495C130.043 76.1096 129.971 76.1698 129.899 76.2299C129.863 76.2599 129.821 76.296 129.778 76.3261C129.748 76.3502 129.718 76.3742 129.682 76.4043H129.676C129.545 76.5079 129.409 76.6042 129.267 76.693C129.267 76.6938 129.267 76.6946 129.267 76.6953C129.267 76.696 129.266 76.6967 129.266 76.6973C129.265 76.6978 129.264 76.6983 129.264 76.6986C129.263 76.6989 129.262 76.699 129.261 76.699C129.255 76.699 129.255 76.705 129.249 76.711C129.165 76.7711 129.075 76.8252 128.985 76.8794C128.936 76.9095 128.888 76.9335 128.84 76.9576C128.83 76.9676 128.817 76.9757 128.804 76.9816C128.75 77.0117 128.702 77.0418 128.648 77.0658C128.509 77.138 128.371 77.2101 128.227 77.2763C128.06 77.3552 127.889 77.4254 127.716 77.4868C127.713 77.4904 127.709 77.4934 127.705 77.4955C127.701 77.4976 127.696 77.4987 127.691 77.4988C127.652 77.5155 127.612 77.5296 127.571 77.5409C127.493 77.5709 127.409 77.601 127.331 77.6251C127.27 77.6431 127.216 77.6551 127.156 77.6732C127.03 77.7153 126.898 77.7454 126.765 77.7754C126.73 77.7863 126.694 77.7943 126.657 77.7995C126.591 77.8175 126.525 77.8296 126.458 77.8416C126.455 77.8412 126.452 77.8415 126.449 77.8425C126.446 77.8436 126.443 77.8453 126.44 77.8476C126.42 77.8463 126.399 77.8504 126.38 77.8596C126.366 77.8587 126.352 77.8607 126.338 77.8656C126.236 77.8837 126.128 77.8957 126.019 77.9137C125.959 77.9197 125.893 77.9258 125.827 77.9318C125.818 77.9366 125.807 77.9387 125.797 77.9378C125.767 77.9378 125.731 77.9438 125.701 77.9438C125.671 77.9488 125.641 77.9508 125.61 77.9498C125.585 77.955 125.558 77.957 125.532 77.9558H125.502C125.472 77.9618 125.436 77.9618 125.4 77.9678C125.28 77.9739 125.159 77.9739 125.039 77.9739H29.7214C28.0281 77.9701 26.3833 77.4084 25.0416 76.3756C23.6999 75.3428 22.7361 73.8965 22.2995 72.2607C22.2514 72.0622 22.2033 71.8638 22.1732 71.6593C22.0883 71.2113 22.046 70.7562 22.0469 70.3002V59.5896C22.2574 59.4092 22.4619 59.2228 22.6664 59.0303C22.8769 58.8319 23.0814 58.6334 23.2859 58.4289C25.0774 56.5645 26.7091 54.5528 28.1636 52.4151C28.2117 52.3489 28.2599 52.2888 28.302 52.2226C28.3982 52.0843 28.4944 51.952 28.5967 51.8137C30.0553 49.6791 31.6867 47.6677 33.4744 45.7999C33.6789 45.5954 33.8834 45.3969 34.0939 45.1985C36.3313 43.0936 38.8814 41.524 41.8887 41.1511C46.0327 40.6339 49.888 42.5524 53.2982 45.1985C53.5508 45.3969 53.7974 45.5954 54.044 45.7999C55.2108 46.75 56.3174 47.7844 57.364 48.8128C57.6406 49.0894 57.9233 49.3661 58.206 49.6427C58.9338 50.3704 59.6796 51.0981 60.4314 51.8137C60.6479 52.0182 60.8584 52.2166 61.0749 52.4151C64.0822 55.1995 67.336 57.6471 71.2033 58.4289C71.468 58.483 71.7386 58.5312 72.0093 58.5672C73.4705 58.7618 74.9538 58.7151 76.3998 58.4289C76.6404 58.3868 76.875 58.3327 77.1156 58.2726C80.7363 57.3765 84.0924 55.1213 87.1297 52.4151C87.3462 52.2166 87.5688 52.0182 87.7853 51.8137C89.337 50.3764 90.8106 48.8368 92.1879 47.3213C92.645 46.8162 93.1141 46.305 93.5833 45.7999C93.7757 45.6014 93.9622 45.4029 94.1486 45.1985C96.1615 43.005 98.3633 40.9927 100.728 39.1846C101.011 38.9741 101.294 38.7757 101.577 38.5832C104.758 36.4123 108.235 35.017 112.054 35.2395C115.205 35.42 118.086 36.7189 120.679 38.5832C120.943 38.7757 121.208 38.9741 121.472 39.1846C123.445 40.7692 125.245 42.5572 126.843 44.5189C127.03 44.7414 127.216 44.9699 127.403 45.1985C127.499 45.3127 127.589 45.433 127.685 45.5473L127.884 45.7999C129.478 47.7904 131.011 49.8592 132.641 51.8137L132.714 51.9039Z" fill="black"/>
</g>
<g opacity="0.1">
<path d="M132.714 44.3084V70.3003C132.714 70.7563 132.672 71.2113 132.587 71.6594C132.557 71.8638 132.509 72.0623 132.461 72.2608C132.407 72.4652 132.341 72.6697 132.274 72.8682C132.232 72.9764 132.196 73.0847 132.148 73.1869C132.13 73.241 132.106 73.2891 132.082 73.3433C132.028 73.4756 131.968 73.6019 131.902 73.7282C131.902 73.7342 131.902 73.7402 131.896 73.7402C131.859 73.8123 131.823 73.8845 131.787 73.9507C131.715 74.083 131.637 74.2153 131.559 74.3415C131.463 74.4979 131.366 74.6422 131.258 74.7866C131.197 74.8767 131.131 74.9631 131.06 75.0452C130.999 75.1234 130.933 75.2016 130.873 75.2797C130.808 75.3602 130.737 75.4365 130.663 75.5082C130.618 75.5633 130.57 75.6155 130.518 75.6646C130.422 75.7608 130.326 75.857 130.224 75.9473C130.188 75.9845 130.15 76.0186 130.109 76.0495C130.043 76.1096 129.971 76.1698 129.899 76.2299C129.863 76.26 129.821 76.296 129.778 76.3261C129.748 76.3502 129.718 76.3742 129.682 76.4043H129.676C129.545 76.5079 129.409 76.6043 129.267 76.693C129.267 76.6938 129.267 76.6946 129.267 76.6953C129.267 76.696 129.266 76.6967 129.266 76.6973C129.265 76.6978 129.264 76.6983 129.264 76.6986C129.263 76.6989 129.262 76.699 129.261 76.699C129.255 76.699 129.255 76.705 129.249 76.711C129.165 76.7712 129.075 76.8253 128.985 76.8794C128.936 76.9095 128.888 76.9335 128.84 76.9576C128.83 76.9676 128.817 76.9758 128.804 76.9816C128.75 77.0117 128.702 77.0418 128.648 77.0658C128.509 77.138 128.371 77.2102 128.227 77.2763C128.06 77.3552 127.889 77.4254 127.716 77.4868C127.713 77.4905 127.709 77.4934 127.705 77.4955C127.701 77.4976 127.696 77.4987 127.691 77.4988C127.652 77.5155 127.612 77.5296 127.571 77.5409C127.493 77.571 127.409 77.6011 127.331 77.6251C127.27 77.6431 127.216 77.6552 127.156 77.6732C127.03 77.7153 126.898 77.7454 126.765 77.7754C126.73 77.7863 126.694 77.7944 126.657 77.7995C126.591 77.8175 126.525 77.8296 126.458 77.8416C126.455 77.8412 126.452 77.8415 126.449 77.8425C126.446 77.8436 126.443 77.8453 126.44 77.8476C126.42 77.8463 126.399 77.8504 126.38 77.8596C126.366 77.8587 126.352 77.8607 126.338 77.8657C126.236 77.8837 126.128 77.8957 126.019 77.9137C125.959 77.9198 125.893 77.9258 125.827 77.9318C125.818 77.9367 125.807 77.9387 125.797 77.9378C125.767 77.9378 125.731 77.9438 125.701 77.9438C125.671 77.9488 125.641 77.9508 125.61 77.9498C125.607 77.9531 125.603 77.9552 125.598 77.9558H125.502C125.352 77.9679 125.195 77.9739 125.039 77.9739H29.7214C28.0281 77.9702 26.3833 77.4084 25.0416 76.3756C23.6999 75.3428 22.7361 73.8965 22.2995 72.2607C22.2514 72.0623 22.2033 71.8638 22.1732 71.6593C22.0883 71.2113 22.046 70.7562 22.0469 70.3002V54.7725C22.6544 53.9847 23.2638 53.1989 23.8753 52.4151C24.0317 52.2106 24.1881 52.0121 24.3444 51.8137C25.1684 50.7553 25.9984 49.7089 26.8525 48.6865C27.6704 47.7062 28.5305 46.738 29.4267 45.7999C29.6192 45.6014 29.8116 45.3969 30.0101 45.1985C32.2918 42.8216 34.9123 40.7951 37.7868 39.1846C38.1778 38.9681 38.5747 38.7697 38.9777 38.5833C41.1116 37.5645 43.4204 36.9624 45.7801 36.8092C48.8755 36.6546 51.9614 37.2638 54.7658 38.5833C55.1868 38.7637 55.6017 38.9681 56.0107 39.1846C58.9518 40.7001 61.7125 42.823 64.2987 45.1985C64.5212 45.3909 64.7317 45.5954 64.9483 45.7999C66.9992 47.7243 68.9419 49.7871 70.7944 51.8137C70.9327 51.9641 71.071 52.1204 71.2094 52.2708C71.2515 52.3189 71.2996 52.367 71.3417 52.4151C73.146 54.3997 75.0707 56.4083 77.1156 58.2726C77.1697 58.3267 77.2299 58.3748 77.29 58.4289C77.5125 58.6334 77.7351 58.8319 77.9636 59.0303C78.7696 59.746 79.5996 60.4315 80.4416 61.081C82.4372 62.6526 84.6114 63.9828 86.9192 65.0442C87.4064 65.2667 87.8996 65.4651 88.3988 65.6456C91.1488 66.6957 94.1164 67.047 97.0356 66.6679C98.3764 66.4823 99.6906 66.1391 100.951 65.6456C101.432 65.4651 101.901 65.2607 102.364 65.0442C105.414 63.6008 108.168 61.4178 110.779 59.0303C110.995 58.8319 111.212 58.6334 111.428 58.4289C112.914 57.0337 114.357 55.5844 115.783 54.1832C116.384 53.5938 116.998 52.9984 117.629 52.4151C117.846 52.2166 118.068 52.0182 118.291 51.8137C119.049 51.1341 119.831 50.4666 120.636 49.8351C122.607 48.2231 124.773 46.8672 127.084 45.7999C127.282 45.7096 127.487 45.6254 127.685 45.5473C127.992 45.421 128.299 45.3067 128.606 45.1985C129.93 44.7239 131.311 44.4247 132.714 44.3084Z" fill="#2B41B8"/>
</g>
<path d="M45.8024 40.3871C46.7989 40.3871 47.6067 39.5794 47.6067 38.583C47.6067 37.5866 46.7989 36.7788 45.8024 36.7788C44.8059 36.7788 43.998 37.5866 43.998 38.583C43.998 39.5794 44.8059 40.3871 45.8024 40.3871Z" fill="white"/>
<path d="M73.4704 60.2328C74.4669 60.2328 75.2747 59.4251 75.2747 58.4287C75.2747 57.4323 74.4669 56.6245 73.4704 56.6245C72.4739 56.6245 71.666 57.4323 71.666 58.4287C71.666 59.4251 72.4739 60.2328 73.4704 60.2328Z" fill="white"/>
<path d="M110.759 47.0023C111.756 47.0023 112.564 46.1946 112.564 45.1982C112.564 44.2018 111.756 43.394 110.759 43.394C109.763 43.394 108.955 44.2018 108.955 45.1982C108.955 46.1946 109.763 47.0023 110.759 47.0023Z" fill="white"/>
<path d="M192.833 60.5918H150.287C150.086 60.5915 149.886 60.631 149.699 60.708C149.513 60.785 149.343 60.898 149.2 61.0406C149.058 61.1832 148.944 61.3525 148.867 61.5389C148.79 61.7252 148.75 61.925 148.75 62.1268C148.75 62.3286 148.79 62.5284 148.867 62.7147C148.944 62.9011 149.058 63.0704 149.2 63.213C149.343 63.3556 149.513 63.4686 149.699 63.5456C149.886 63.6226 150.086 63.6621 150.287 63.6618H192.833C193.24 63.6618 193.631 63.5001 193.919 63.2122C194.207 62.9243 194.369 62.5339 194.369 62.1268C194.369 61.7197 194.207 61.3293 193.919 61.0414C193.631 60.7535 193.24 60.5918 192.833 60.5918Z" fill="#E6E6E6"/>
<path d="M192.833 83.8359H150.287C149.88 83.8359 149.489 83.9977 149.202 84.2855C148.914 84.5734 148.752 84.9638 148.752 85.3709C148.752 85.778 148.914 86.1685 149.202 86.4563C149.489 86.7442 149.88 86.9059 150.287 86.9059H192.833C193.24 86.9059 193.631 86.7442 193.919 86.4563C194.206 86.1685 194.368 85.778 194.368 85.3709C194.368 84.9638 194.206 84.5734 193.919 84.2855C193.631 83.9977 193.24 83.8359 192.833 83.8359Z" fill="#E6E6E6"/>
<path d="M192.833 107.08H150.287C149.88 107.08 149.489 107.242 149.202 107.53C148.914 107.818 148.752 108.208 148.752 108.615C148.752 109.022 148.914 109.413 149.202 109.7C149.489 109.988 149.88 110.15 150.287 110.15H192.833C193.24 110.15 193.631 109.988 193.919 109.7C194.206 109.413 194.368 109.022 194.368 108.615C194.368 108.208 194.206 107.818 193.919 107.53C193.631 107.242 193.24 107.08 192.833 107.08Z" fill="#E6E6E6"/>
<path d="M218.613 66.0749C220.73 66.0749 222.447 64.3587 222.447 62.2416C222.447 60.1245 220.73 58.4082 218.613 58.4082C216.496 58.4082 214.779 60.1245 214.779 62.2416C214.779 64.3587 216.496 66.0749 218.613 66.0749Z" fill="#F2F2F2"/>
<path d="M218.09 64.2368C218.024 64.2368 217.958 64.2214 217.899 64.1918C217.84 64.1622 217.788 64.1192 217.749 64.0662L216.703 62.6718C216.669 62.627 216.645 62.576 216.631 62.5217C216.617 62.4675 216.614 62.411 216.621 62.3555C216.629 62.3 216.648 62.2466 216.677 62.1984C216.705 62.1502 216.743 62.108 216.788 62.0744C216.833 62.0408 216.884 62.0164 216.938 62.0025C216.992 61.9886 217.049 61.9855 217.104 61.9935C217.16 62.0014 217.213 62.0203 217.261 62.0489C217.309 62.0775 217.352 62.1153 217.385 62.1601L218.069 63.0723L219.827 60.4365C219.89 60.3424 219.987 60.277 220.098 60.2549C220.209 60.2327 220.324 60.2555 220.418 60.3182C220.512 60.3809 220.578 60.4785 220.6 60.5894C220.622 60.7003 220.599 60.8154 220.537 60.9095L218.445 64.0469C218.407 64.1037 218.356 64.1505 218.296 64.1835C218.237 64.2166 218.17 64.2348 218.102 64.2367L218.09 64.2368Z" fill="white"/>
<path d="M218.613 89.3191C220.73 89.3191 222.447 87.6028 222.447 85.4857C222.447 83.3686 220.73 81.6523 218.613 81.6523C216.496 81.6523 214.779 83.3686 214.779 85.4857C214.779 87.6028 216.496 89.3191 218.613 89.3191Z" fill="#F2F2F2"/>
<path d="M218.09 87.481C218.024 87.481 217.958 87.4656 217.899 87.4359C217.84 87.4063 217.788 87.3633 217.749 87.3104L216.703 85.9159C216.669 85.8712 216.645 85.8202 216.631 85.7659C216.617 85.7116 216.614 85.6551 216.621 85.5996C216.629 85.5442 216.648 85.4908 216.677 85.4425C216.705 85.3943 216.743 85.3522 216.788 85.3186C216.833 85.2849 216.884 85.2605 216.938 85.2466C216.992 85.2327 217.049 85.2297 217.104 85.2376C217.16 85.2456 217.213 85.2644 217.261 85.293C217.309 85.3216 217.352 85.3594 217.385 85.4043L218.069 86.3165L219.827 83.6806C219.858 83.634 219.898 83.594 219.944 83.5628C219.991 83.5317 220.043 83.51 220.098 83.499C220.153 83.488 220.21 83.488 220.264 83.4988C220.319 83.5097 220.372 83.5313 220.418 83.5623C220.465 83.5934 220.505 83.6333 220.536 83.6799C220.567 83.7264 220.589 83.7786 220.6 83.8335C220.611 83.8884 220.611 83.945 220.6 83.9999C220.589 84.0548 220.568 84.1071 220.537 84.1537L218.445 87.2911C218.407 87.3478 218.356 87.3947 218.296 87.4277C218.237 87.4607 218.17 87.4789 218.102 87.4808L218.09 87.481Z" fill="white"/>
<path d="M218.613 112.563C220.73 112.563 222.447 110.847 222.447 108.73C222.447 106.613 220.73 104.896 218.613 104.896C216.496 104.896 214.779 106.613 214.779 108.73C214.779 110.847 216.496 112.563 218.613 112.563Z" fill="#F2F2F2"/>
<path d="M192.833 37.3477H150.287C149.88 37.3477 149.489 37.5094 149.202 37.7973C148.914 38.0851 148.752 38.4755 148.752 38.8827C148.752 39.2898 148.914 39.6802 149.202 39.9681C149.489 40.2559 149.88 40.4177 150.287 40.4177H192.833C193.24 40.4177 193.631 40.2559 193.919 39.9681C194.206 39.6802 194.368 39.2898 194.368 38.8827C194.368 38.4755 194.206 38.0851 193.919 37.7973C193.631 37.5094 193.24 37.3477 192.833 37.3477Z" fill="#E6E6E6"/>
<path d="M218.613 42.8308C220.73 42.8308 222.447 41.1145 222.447 38.9974C222.447 36.8803 220.73 35.1641 218.613 35.1641C216.496 35.1641 214.779 36.8803 214.779 38.9974C214.779 41.1145 216.496 42.8308 218.613 42.8308Z" fill="#2B41B8"/>
<path d="M218.09 40.9922C218.024 40.9922 217.958 40.9768 217.899 40.9472C217.84 40.9176 217.788 40.8746 217.749 40.8216L216.703 39.4272C216.669 39.3824 216.645 39.3314 216.631 39.2771C216.617 39.2228 216.614 39.1663 216.621 39.1109C216.629 39.0554 216.648 39.002 216.677 38.9538C216.705 38.9055 216.743 38.8634 216.788 38.8298C216.833 38.7962 216.884 38.7717 216.938 38.7578C216.992 38.7439 217.049 38.7409 217.104 38.7488C217.16 38.7568 217.213 38.7756 217.261 38.8042C217.309 38.8328 217.352 38.8706 217.385 38.9155L218.069 39.8277L219.827 37.1918C219.858 37.1452 219.898 37.1052 219.944 37.0741C219.991 37.0429 220.043 37.0212 220.098 37.0102C220.153 36.9993 220.21 36.9992 220.264 37.0101C220.319 37.0209 220.372 37.0425 220.418 37.0736C220.465 37.1046 220.505 37.1446 220.536 37.1911C220.567 37.2376 220.589 37.2898 220.6 37.3447C220.611 37.3997 220.611 37.4562 220.6 37.5111C220.589 37.566 220.568 37.6183 220.537 37.6649L218.445 40.8023C218.407 40.859 218.356 40.9059 218.296 40.9389C218.237 40.9719 218.17 40.9901 218.102 40.9921L218.09 40.9922Z" fill="white"/>
<path d="M205.894 42.8308C208.012 42.8308 209.728 41.1145 209.728 38.9974C209.728 36.8803 208.012 35.1641 205.894 35.1641C203.777 35.1641 202.061 36.8803 202.061 38.9974C202.061 41.1145 203.777 42.8308 205.894 42.8308Z" fill="#F2F2F2"/>
<path d="M205.894 66.0749C208.012 66.0749 209.728 64.3587 209.728 62.2416C209.728 60.1245 208.012 58.4082 205.894 58.4082C203.777 58.4082 202.061 60.1245 202.061 62.2416C202.061 64.3587 203.777 66.0749 205.894 66.0749Z" fill="#F2F2F2"/>
<path d="M205.894 89.3191C208.012 89.3191 209.728 87.6028 209.728 85.4857C209.728 83.3686 208.012 81.6523 205.894 81.6523C203.777 81.6523 202.061 83.3686 202.061 85.4857C202.061 87.6028 203.777 89.3191 205.894 89.3191Z" fill="#F2F2F2"/>
<path d="M205.894 112.563C208.012 112.563 209.728 110.847 209.728 108.73C209.728 106.613 208.012 104.896 205.894 104.896C203.777 104.896 202.061 106.613 202.061 108.73C202.061 110.847 203.777 112.563 205.894 112.563Z" fill="#F2F2F2"/>
<path d="M218.09 110.725C218.023 110.725 217.958 110.71 217.899 110.68C217.84 110.65 217.788 110.607 217.748 110.555L216.702 109.16C216.669 109.115 216.644 109.064 216.631 109.01C216.617 108.956 216.614 108.899 216.621 108.844C216.629 108.789 216.648 108.735 216.677 108.687C216.705 108.639 216.743 108.597 216.788 108.563C216.833 108.53 216.884 108.505 216.938 108.491C216.992 108.477 217.049 108.474 217.104 108.482C217.159 108.49 217.213 108.509 217.261 108.537C217.309 108.566 217.351 108.604 217.385 108.648L218.069 109.561L219.827 106.925C219.889 106.831 219.987 106.765 220.098 106.743C220.209 106.721 220.324 106.744 220.418 106.806C220.512 106.869 220.577 106.967 220.6 107.078C220.622 107.189 220.599 107.304 220.536 107.398L218.444 110.535C218.407 110.592 218.356 110.639 218.296 110.672C218.236 110.705 218.17 110.723 218.101 110.725L218.09 110.725Z" fill="white"/>
<path d="M212.562 183.611C212.564 183.633 212.56 183.655 212.551 183.675C212.543 183.695 212.529 183.713 212.513 183.727C212.487 183.747 212.456 183.759 212.423 183.764C212.39 183.771 212.356 183.764 212.328 183.746C212.299 183.729 212.279 183.7 212.271 183.668C211.813 182.13 210.693 180.95 209.632 179.793C208.677 178.755 207.739 177.662 207.259 176.313C207.05 175.777 206.958 175.203 206.988 174.629C207.018 174.054 207.169 173.493 207.431 172.982C207.596 172.676 207.788 172.385 208.004 172.113C208.479 171.51 209.042 170.973 209.549 170.403C209.602 170.343 209.655 170.28 209.705 170.221C209.775 170.144 209.838 170.065 209.897 169.985C210.53 169.203 210.969 168.284 211.18 167.3C211.407 166.101 211.441 164.874 211.283 163.664C211.217 163.021 211.125 162.383 211.008 161.749C211.001 161.719 210.998 161.692 210.991 161.666C210.48 158.946 209.549 156.321 208.233 153.886C208.183 153.797 208.137 153.707 208.087 153.621C207.875 153.237 207.656 152.859 207.424 152.488C207.504 152.431 207.59 152.378 207.676 152.329C208.437 153.559 209.098 154.848 209.655 156.183C210.376 157.896 210.917 159.679 211.27 161.503C211.293 161.603 211.309 161.705 211.326 161.805C211.465 162.571 211.568 163.346 211.631 164.118C211.755 165.33 211.673 166.554 211.386 167.738C211.126 168.677 210.665 169.549 210.037 170.293C209.924 170.436 209.804 170.575 209.679 170.711C209.175 171.261 208.618 171.795 208.164 172.395C207.932 172.696 207.735 173.023 207.577 173.369C207.043 174.563 207.295 175.868 207.885 176.989C208.953 179.027 210.988 180.416 212.072 182.415C212.272 182.783 212.434 183.17 212.556 183.571C212.56 183.584 212.562 183.598 212.562 183.611Z" fill="white"/>
<path d="M211.189 161.84C212.12 161.606 212.937 161.049 213.495 160.269C214.053 159.488 214.315 158.534 214.235 157.578C214.218 157.385 213.917 157.402 213.933 157.596C214.01 158.486 213.765 159.374 213.244 160.1C212.723 160.826 211.96 161.342 211.092 161.554C210.903 161.601 211.001 161.886 211.189 161.84Z" fill="white"/>
<path d="M209.981 170.035C208.289 169.042 207.032 167.449 206.463 165.572C206.407 165.386 206.121 165.483 206.177 165.669C206.773 167.621 208.084 169.277 209.847 170.305C210.015 170.403 210.148 170.132 209.981 170.035Z" fill="white"/>
<path d="M208.27 153.87C208.257 153.877 208.247 153.88 208.234 153.887C207.637 154.159 206.958 154.191 206.338 153.976C206.365 153.879 206.4 153.783 206.441 153.691C206.979 153.876 207.567 153.851 208.088 153.621C208.118 153.611 208.145 153.598 208.174 153.585C208.212 153.572 208.254 153.574 208.29 153.592C208.326 153.609 208.353 153.64 208.367 153.678C208.377 153.716 208.374 153.757 208.356 153.792C208.338 153.828 208.308 153.856 208.27 153.87Z" fill="white"/>
<path d="M191.747 103.08C192.036 102.731 192.246 102.323 192.361 101.884C192.476 101.445 192.494 100.986 192.412 100.54C192.331 100.094 192.152 99.6708 191.889 99.3009C191.627 98.931 191.286 98.6232 190.892 98.3991L192.893 87.5547L187.616 89.7888L186.524 99.7443C186.191 100.432 186.123 101.218 186.331 101.953C186.539 102.687 187.01 103.32 187.653 103.732C188.297 104.143 189.069 104.304 189.824 104.184C190.578 104.063 191.262 103.671 191.747 103.08Z" fill="#FFB6B6"/>
<path d="M194.968 70.9833L193.291 65.3453L181.463 46.8932C180.805 46.1249 180.019 45.4767 179.139 44.9774C177.391 43.9783 175.353 43.6085 173.366 43.9296C171.378 44.2507 169.56 45.2434 168.216 46.7421C166.871 48.2408 166.081 50.155 165.977 52.1656C165.872 54.1763 166.461 56.1618 167.643 57.7914C167.887 58.1319 168.156 58.4533 168.449 58.7526L183.767 74.5497L184.639 75.4513L186.018 78.9382L186.561 94.838L187.049 94.954L191.341 95.965L191.941 96.1075L192.946 90.9136L193.576 88.431C194.111 86.3138 194.382 84.1383 194.381 81.9544C194.381 81.2816 194.358 80.6054 194.305 79.9325L194.968 70.9833Z" fill="#3F3D56"/>
<path d="M178.707 180.624H174.6L172.646 164.784L178.708 164.785L178.707 180.624Z" fill="#FFB6B6"/>
<path d="M178.598 179.283L174.216 177.503L174.086 177.45L171.666 179.283C170.338 179.282 169.062 179.795 168.103 180.713C167.143 181.632 166.576 182.885 166.518 184.211C166.512 184.284 166.512 184.361 166.512 184.437V184.606H179.755V179.283H178.598Z" fill="#2F2E41"/>
<path d="M170.887 172.433L167.347 174.515L157.629 161.854L162.853 158.781L170.887 172.433Z" fill="#FFB6B6"/>
<path d="M173.332 174.519L172.851 173.701L171.111 170.744L170.206 171.278L170.113 171.331L165.432 172.02L165.293 172.04L164.14 174.848C163.556 175.191 163.046 175.645 162.638 176.186C162.23 176.726 161.933 177.342 161.763 177.997C161.593 178.652 161.554 179.335 161.647 180.005C161.741 180.675 161.966 181.321 162.31 181.904L162.396 182.047L173.809 175.331L173.332 174.519Z" fill="#2F2E41"/>
<path d="M183.909 83.7871C185.835 89.5941 185.631 95.8975 183.447 102.663L182.876 125.919L181.045 140.589C182.149 143.463 182.716 146.516 182.716 149.596C182.708 157.667 182.166 169.134 179.414 174.521H172.901L171.431 150.532L169.677 138.471L169.461 125.547L169.272 114.275L162.191 124.628L155.311 134.689L162.15 146.224L168.117 164.785L161.818 170.088L154.673 156.544L151.211 152.521L141.758 132.06L142.607 129.211C144.357 123.345 146.898 117.743 150.16 112.563L159.562 90.7428L183.909 83.7871Z" fill="#2F2E41"/>
<path d="M184.744 81.8485L183.67 79.7007L183.766 74.5499L184.087 57.1353C184.126 54.8797 183.707 52.6396 182.857 50.5501C182.006 48.4606 180.741 46.565 179.138 44.9776C178.187 44.0298 177.123 43.2027 175.969 42.5149L173.662 41.1361L172.495 38.1729L161.735 38.4347L161.712 41.3084L161.702 42.3193L157.847 48.4645L157.85 48.491L157.929 59.6743L158.089 81.9347L159.153 85.3852L157.545 89.4024L158.4 91.9612L159.083 91.8518L182.082 88.176C183.127 87.8406 184.014 87.136 184.578 86.1939C184.691 86.0097 184.79 85.8169 184.873 85.6172C185.124 85.0167 185.242 84.3691 185.22 83.7187C185.197 83.0684 185.035 82.4304 184.744 81.8485Z" fill="#3F3D56"/>
<path d="M166.129 34.4866C171.529 34.4866 175.907 30.1095 175.907 24.7101C175.907 19.3107 171.529 14.9336 166.129 14.9336C160.729 14.9336 156.352 19.3107 156.352 24.7101C156.352 30.1095 160.729 34.4866 166.129 34.4866Z" fill="#FFB6B6"/>
<path d="M172.212 32.8113C173.244 32.0848 174.29 30.7018 174.987 29.6664C175.91 28.3053 176.537 26.7654 176.827 25.1466C177.117 23.5278 177.063 21.8661 176.67 20.2692C176.542 19.6303 176.243 19.0383 175.804 18.5569C175.58 18.3219 175.287 18.1639 174.967 18.1055C174.648 18.0472 174.318 18.0914 174.025 18.232C174.173 17.8192 174.234 17.3805 174.206 16.943C174.177 16.5056 174.059 16.0785 173.859 15.6884C173.453 14.9094 172.872 14.2357 172.16 13.7207C170.799 12.7022 169.187 12.0712 167.496 11.8947C165.805 11.7182 164.098 12.0027 162.555 12.7181C161.949 13.0095 162.921 10.8104 162.285 11.03C161.653 11.2846 160.947 11.282 160.318 11.0226C159.712 10.7283 157.744 12.5537 157.966 11.9183C157.513 12.1317 157.121 12.4564 156.827 12.8621C156.533 13.2678 156.346 13.7413 156.284 14.2385C156.223 14.7357 156.288 15.2405 156.474 15.7058C156.659 16.1711 156.96 16.5818 157.347 16.8997C157.858 17.3186 158.491 17.5551 159.049 17.909C160.026 18.5766 160.725 19.5788 161.014 20.7265C161.303 21.8742 161.162 23.088 160.617 24.1386C161.193 23.7571 161.827 23.4712 162.494 23.2918C162.829 23.2052 163.18 23.1997 163.517 23.276C163.854 23.3522 164.168 23.5078 164.434 23.7299C164.656 23.9773 164.825 24.2676 164.931 24.5828C165.037 24.8981 165.078 25.2317 165.05 25.5631C165.037 26.2268 164.889 26.8826 164.88 27.5463C164.855 29.4939 163.864 33.2098 165.387 34.2238C166.59 35.0239 170.802 33.8033 172.212 32.8113Z" fill="#2F2E41"/>
<path d="M111.812 48.4899C112.043 48.8802 112.357 49.215 112.732 49.4707C113.107 49.7265 113.533 49.897 113.981 49.9702C114.428 50.0434 114.887 50.0175 115.323 49.8945C115.76 49.7714 116.165 49.554 116.508 49.2578L126.05 54.7871L125.72 49.0661L116.709 44.6925C116.173 44.1483 115.456 43.8196 114.694 43.7687C113.931 43.7177 113.177 43.9482 112.573 44.4163C111.97 44.8843 111.559 45.5576 111.418 46.3084C111.278 47.0592 111.418 47.8354 111.812 48.4899Z" fill="#FFB6B6"/>
<path d="M173.435 46.7769C173.064 45.62 172.459 44.5522 171.656 43.6405C170.853 42.7288 169.871 41.9931 168.77 41.4794C167.669 40.9658 166.474 40.6854 165.259 40.6559C164.045 40.6264 162.838 40.8484 161.713 41.3079C161.607 41.351 161.501 41.3974 161.395 41.4438L140.226 51.0792L131.985 50.1014L121.318 46.3759L121.046 46.7968L118.649 50.4992L118.314 51.0162L129.757 57.7812L130.971 58.0331C132.027 58.2517 133.03 58.6766 133.922 59.2835C134.814 59.8903 135.577 60.6673 136.168 61.5697L140.604 63.0281L157.931 59.6738L167.643 57.7912L168.194 57.6851C169.858 57.0446 171.289 55.9152 172.3 54.4456C173.31 52.976 173.851 51.235 173.852 49.4518C173.853 48.5439 173.712 47.6414 173.435 46.7769Z" fill="#3F3D56"/>
<path d="M222.692 185H107.338C107.233 185 107.133 184.959 107.059 184.885C106.985 184.811 106.943 184.71 106.943 184.606C106.943 184.501 106.985 184.401 107.059 184.327C107.133 184.253 107.233 184.211 107.338 184.211H222.692C222.797 184.211 222.898 184.253 222.972 184.327C223.046 184.401 223.087 184.501 223.087 184.606C223.087 184.71 223.046 184.811 222.972 184.885C222.898 184.959 222.797 185 222.692 185Z" fill="#CCCCCC"/>
<path d="M98.5358 92.7856H28.4763C28.0695 92.7862 27.6796 92.9482 27.3922 93.236C27.1048 93.5238 26.9434 93.9139 26.9434 94.3206C26.9434 94.7274 27.1048 95.1174 27.3922 95.4053C27.6796 95.6931 28.0695 95.855 28.4763 95.8556H98.5358C98.7376 95.8559 98.9375 95.8165 99.124 95.7394C99.3105 95.6624 99.48 95.5494 99.6228 95.4069C99.7656 95.2643 99.8789 95.095 99.9562 94.9086C100.033 94.7222 100.073 94.5224 100.073 94.3206C100.073 94.1189 100.033 93.9191 99.9562 93.7327C99.8789 93.5463 99.7656 93.377 99.6228 93.2344C99.48 93.0919 99.3105 92.9789 99.124 92.9018C98.9375 92.8248 98.7376 92.7853 98.5358 92.7856Z" fill="#E6E6E6"/>
<path d="M124.316 98.2688C126.434 98.2688 128.15 96.5525 128.15 94.4354C128.15 92.3183 126.434 90.6021 124.316 90.6021C122.199 90.6021 120.482 92.3183 120.482 94.4354C120.482 96.5525 122.199 98.2688 124.316 98.2688Z" fill="#2B41B8"/>
<path d="M123.793 96.4307C123.726 96.4307 123.661 96.4153 123.602 96.3857C123.543 96.356 123.491 96.313 123.452 96.2601L122.406 94.8656C122.372 94.8209 122.348 94.7699 122.334 94.7156C122.32 94.6614 122.317 94.6049 122.325 94.5495C122.333 94.4941 122.351 94.4407 122.38 94.3926C122.408 94.3444 122.446 94.3023 122.491 94.2687C122.536 94.2351 122.587 94.2107 122.641 94.1968C122.695 94.1829 122.752 94.1798 122.807 94.1877C122.863 94.1956 122.916 94.2144 122.964 94.2429C123.012 94.2715 123.054 94.3092 123.088 94.354L123.772 95.2662L125.53 92.6303C125.561 92.5837 125.601 92.5437 125.647 92.5125C125.694 92.4814 125.746 92.4597 125.801 92.4487C125.856 92.4377 125.912 92.4377 125.967 92.4485C126.022 92.4594 126.074 92.481 126.121 92.5121C126.168 92.5431 126.208 92.583 126.239 92.6296C126.27 92.6761 126.292 92.7283 126.303 92.7832C126.314 92.8381 126.314 92.8947 126.303 92.9496C126.292 93.0045 126.27 93.0568 126.239 93.1034L124.148 96.2408C124.11 96.2975 124.059 96.3444 123.999 96.3774C123.939 96.4104 123.873 96.4286 123.805 96.4305L123.793 96.4307Z" fill="white"/>
<path d="M111.595 98.2688C113.713 98.2688 115.429 96.5525 115.429 94.4354C115.429 92.3183 113.713 90.6021 111.595 90.6021C109.478 90.6021 107.762 92.3183 107.762 94.4354C107.762 96.5525 109.478 98.2688 111.595 98.2688Z" fill="#F2F2F2"/>
<path d="M98.2038 111.347H28.1442C27.7375 111.348 27.3476 111.51 27.0602 111.798C26.7728 112.085 26.6113 112.475 26.6113 112.882C26.6113 113.289 26.7728 113.679 27.0602 113.967C27.3476 114.255 27.7375 114.417 28.1442 114.417H98.2038C98.611 114.417 99.0014 114.255 99.2893 113.968C99.5772 113.68 99.739 113.289 99.739 112.882C99.739 112.475 99.5772 112.085 99.2893 111.797C99.0014 111.509 98.6109 111.347 98.2038 111.347Z" fill="#E6E6E6"/>
<path d="M123.984 116.83C126.102 116.83 127.818 115.114 127.818 112.997C127.818 110.88 126.102 109.164 123.984 109.164C121.867 109.164 120.15 110.88 120.15 112.997C120.15 115.114 121.867 116.83 123.984 116.83Z" fill="#F2F2F2"/>
<path d="M123.461 114.992C123.394 114.992 123.329 114.977 123.27 114.947C123.211 114.918 123.159 114.875 123.119 114.822L122.074 113.427C122.006 113.337 121.977 113.223 121.993 113.111C122.009 112.999 122.068 112.898 122.159 112.83C122.249 112.762 122.363 112.733 122.475 112.749C122.587 112.765 122.688 112.825 122.756 112.916L123.44 113.828L125.198 111.192C125.229 111.145 125.269 111.105 125.315 111.074C125.362 111.043 125.414 111.021 125.469 111.01C125.524 110.999 125.58 110.999 125.635 111.01C125.69 111.021 125.742 111.043 125.789 111.074C125.836 111.105 125.876 111.145 125.907 111.191C125.938 111.238 125.96 111.29 125.971 111.345C125.982 111.4 125.982 111.456 125.971 111.511C125.96 111.566 125.938 111.618 125.907 111.665L123.815 114.802C123.778 114.859 123.727 114.906 123.667 114.939C123.607 114.972 123.541 114.99 123.472 114.992L123.461 114.992Z" fill="white"/>
<path d="M111.263 116.83C113.381 116.83 115.097 115.114 115.097 112.997C115.097 110.88 113.381 109.164 111.263 109.164C109.146 109.164 107.43 110.88 107.43 112.997C107.43 115.114 109.146 116.83 111.263 116.83Z" fill="#F2F2F2"/>
</g>
<defs>
<clipPath id="clip0_11044_50183">
<rect width="249" height="185" fill="white"/>
</clipPath>
</defs>
</svg>
