<svg width="162" height="145" viewBox="0 0 162 145" fill="none" xmlns="http://www.w3.org/2000/svg">
<g clip-path="url(#clip0_11086_28441)">
<path d="M111.947 144.635H65.9801C59.0857 144.635 53.4766 139.098 53.4766 132.292V12.3425C53.4766 5.53685 59.0857 0 65.9801 0H111.947C118.841 0 124.45 5.53685 124.45 12.3425C125.306 60.5106 126.765 114.451 124.45 132.292C124.45 139.098 118.841 144.635 111.947 144.635Z" fill="#334155"/>
<path d="M125.091 44.1216C124.8 44.1216 124.562 44.3558 124.562 44.6437V61.3524C124.562 61.6404 124.8 61.8746 125.091 61.8746C125.383 61.8746 125.62 61.6404 125.62 61.3524V44.6437C125.62 44.3558 125.383 44.1216 125.091 44.1216Z" fill="#334155"/>
<path d="M123.262 12.3425V132.29C123.262 138.214 118.591 143.059 112.685 143.435H112.682C112.595 143.441 112.508 143.446 112.418 143.448C112.262 143.456 112.106 143.459 111.947 143.459C111.947 143.459 111.365 143.417 110.302 143.339C109.228 143.26 107.665 143.143 105.716 142.989C105.131 142.945 104.515 142.895 103.865 142.843C102.569 142.738 101.146 142.623 99.6196 142.493C99.0113 142.443 98.3818 142.388 97.7391 142.334C94.4543 142.054 90.7754 141.728 86.8954 141.357C86.2395 141.297 85.5783 141.235 84.9118 141.169C84.7373 141.151 54.668 133.69 54.668 132.29V12.3425C54.668 6.17339 59.7328 1.17383 65.9825 1.17383H72.7373C73.8164 1.17383 74.6839 2.00404 74.7765 3.06661C74.7844 3.13711 74.7923 3.20759 74.8056 3.27808C75.0013 4.34588 75.9931 5.08993 77.0933 5.08993H100.836C101.936 5.08993 102.928 4.34588 103.124 3.27808C103.137 3.20759 103.145 3.13711 103.153 3.06661C103.246 2.00404 104.113 1.17383 105.192 1.17383H111.947C118.197 1.17383 123.262 6.17339 123.262 12.3425Z" fill="white"/>
<path d="M53.2126 31.5898C52.9208 31.5898 52.6836 31.824 52.6836 32.112V36.2892C52.6836 36.5771 52.9208 36.8113 53.2126 36.8113C53.5043 36.8113 53.7415 36.5771 53.7415 36.2892V32.112C53.7415 31.824 53.5043 31.5898 53.2126 31.5898Z" fill="#334155"/>
<path d="M53.2126 44.1216C52.9208 44.1216 52.6836 44.3558 52.6836 44.6437V52.737C52.6836 53.025 52.9208 53.2592 53.2126 53.2592C53.5043 53.2592 53.7415 53.025 53.7415 52.737V44.6437C53.7415 44.3558 53.5043 44.1216 53.2126 44.1216Z" fill="#334155"/>
<path d="M53.2126 55.6089C52.9208 55.6089 52.6836 55.8431 52.6836 56.131V64.2243C52.6836 64.5123 52.9208 64.7465 53.2126 64.7465C53.5043 64.7465 53.7415 64.5123 53.7415 64.2243V56.131C53.7415 55.8431 53.5043 55.6089 53.2126 55.6089Z" fill="#334155"/>
<path d="M72.5637 3.00244H62.4268C62.3777 3.00244 62.3379 3.04175 62.3379 3.09024V4.22001C62.3379 4.2685 62.3777 4.30781 62.4268 4.30781H72.5637C72.6128 4.30781 72.6526 4.2685 72.6526 4.22001V3.09024C72.6526 3.04175 72.6128 3.00244 72.5637 3.00244Z" fill="#E6E6E6"/>
<path d="M106.863 4.30783C107.447 4.30783 107.921 3.84028 107.921 3.26353C107.921 2.68678 107.447 2.21924 106.863 2.21924C106.278 2.21924 105.805 2.68678 105.805 3.26353C105.805 3.84028 106.278 4.30783 106.863 4.30783Z" fill="#E6E6E6"/>
<path d="M109.773 4.30783C110.357 4.30783 110.831 3.84028 110.831 3.26353C110.831 2.68678 110.357 2.21924 109.773 2.21924C109.188 2.21924 108.715 2.68678 108.715 3.26353C108.715 3.84028 109.188 4.30783 109.773 4.30783Z" fill="#E6E6E6"/>
<path d="M112.681 4.30783C113.265 4.30783 113.739 3.84028 113.739 3.26353C113.739 2.68678 113.265 2.21924 112.681 2.21924C112.097 2.21924 111.623 2.68678 111.623 3.26353C111.623 3.84028 112.097 4.30783 112.681 4.30783Z" fill="#E6E6E6"/>
<path d="M4.10352 144.663C4.10352 144.85 4.25549 145 4.44475 145H161.658C161.847 145 161.999 144.85 161.999 144.663C161.999 144.476 161.847 144.326 161.658 144.326H4.44475C4.25549 144.326 4.10352 144.476 4.10352 144.663Z" fill="#2E2E41"/>
<path d="M54.2303 142.451L51.0063 142.45L49.4727 130.175L54.2309 130.176L54.2303 142.451Z" fill="#FFB6B6"/>
<path d="M43.1846 142.379C43.0842 142.546 43.0312 143.084 43.0312 143.278C43.0312 143.875 43.5211 144.358 44.1255 144.358H54.1097C54.522 144.358 54.8562 144.028 54.8562 143.621V143.211C54.8562 143.211 55.3501 141.978 54.3332 140.458C54.3332 140.458 53.0694 141.648 51.1809 139.784L50.624 138.788L46.5928 141.698L44.3584 141.97C43.8695 142.029 43.4361 141.961 43.1846 142.379Z" fill="#2F2E41"/>
<path d="M36.4037 125.401L33.1797 125.391L31.6855 113.111L36.4438 113.126L36.4037 125.401Z" fill="#FFB6B6"/>
<path d="M25.3574 125.294C25.2565 125.461 25.2018 125.999 25.2012 126.193C25.1993 126.79 25.6876 127.275 26.2919 127.277L36.2761 127.308C36.6883 127.31 37.0236 126.981 37.0249 126.574L37.0263 126.163C37.0263 126.163 37.5241 124.932 36.5122 123.409C36.5122 123.409 35.2445 124.595 33.362 122.725L32.8083 121.727L28.7678 124.625L26.5325 124.889C26.0434 124.947 25.6102 124.877 25.3574 125.294Z" fill="#2F2E41"/>
<path d="M49.5292 67.9297L45.515 68.2127C45.515 68.2127 31.9251 75.8399 30.7781 77.5382C29.6312 79.2364 28.0542 81.6422 29.4878 84.1896C30.9215 86.7369 29.8303 117.58 29.8303 117.58L36.6812 116.051L41.0706 83.7799L50.2461 82.5062C50.2461 82.5062 53.4001 89.2234 52.2532 94.7805C51.1063 100.338 50.5328 103.734 50.5328 103.734L49.0991 136.567L54.6904 136.425L59.7083 105.998L68.3103 81.9401L57.1277 68.9203L49.5292 67.9297Z" fill="#2F2E41"/>
<path d="M69.3137 33.1157L60.9984 33.9648L60.1382 36.7952L52.1097 41.0408L54.6903 58.8723L52.6831 61.9857L53.5433 65.0992C53.5433 65.0992 51.2495 65.3822 51.5362 67.0804L46.375 67.9296C46.375 67.9296 53.2205 69.3091 54.6722 76.1199C56.1239 82.9307 68.1668 83.7798 68.1668 83.7798L77.629 54.6267L78.4892 37.3613L71.8943 35.6631L69.3137 33.1157Z" fill="#E6E6E6"/>
<path d="M64.9309 32.0415C68.5009 32.0415 71.395 29.1847 71.395 25.6606C71.395 22.1366 68.5009 19.2798 64.9309 19.2798C61.3609 19.2798 58.4668 22.1366 58.4668 25.6606C58.4668 29.1847 61.3609 32.0415 64.9309 32.0415Z" fill="#FFB6B6"/>
<path d="M61.5718 31.4176C61.5718 31.4176 55.8372 31.1346 56.4106 26.6059C54.9912 21.7834 56.2476 18.6522 60.7116 17.5487C60.7116 17.5487 61.8586 17.2656 62.1453 17.2656C65.9167 17.2656 67.88 18.3978 67.88 18.3978C67.88 18.3978 67.5932 17.2768 67.88 17.5542C68.1667 17.8317 68.4534 18.3978 68.4534 18.3978C68.4534 18.3978 71.3208 19.813 71.3208 22.6434C71.3208 25.4738 71.3208 24.3416 71.3208 24.3416C71.3208 24.3416 70.7473 24.3416 70.1738 22.6434C69.6004 20.9451 65.8875 22.0773 65.8875 22.0773L66.1596 22.6434L65.2994 22.3603L64.4392 23.2095L63.8657 22.9264C63.8657 22.9264 61.5718 22.9264 61.8586 22.9264C62.1453 22.9264 61.9455 24.8499 61.9455 24.8499L59.8514 27.172L62.1453 31.4176H61.5718Z" fill="#2F2E41"/>
<path d="M31.0193 65.1993C29.3869 66.0788 28.5231 67.6231 29.0901 68.6485C29.657 69.674 31.44 69.7924 33.0725 68.9129C33.7871 68.5279 34.3544 68.0155 34.7188 67.475L41.5888 63.6628L39.7078 60.5186L33.135 64.6104C32.4774 64.6206 31.7339 64.8144 31.0193 65.1993Z" fill="#FFB6B6"/>
<path d="M54.187 41.1728C54.187 41.1728 51.4939 40.1606 50.5661 41.379C49.6382 42.5973 43.5087 57.3806 43.5087 57.3806L34.5156 62.0168L37.0446 66.3639L48.625 62.5581L56.2655 48.7646L54.187 41.1728Z" fill="#E6E6E6"/>
<path d="M139.109 89.7228V119.725C139.109 122.378 136.923 124.537 134.235 124.537H59.1108C56.423 124.537 54.2363 122.378 54.2363 119.725V89.7228C54.2363 87.0696 56.423 84.9111 59.1108 84.9111H134.235C136.923 84.9111 139.109 87.0696 139.109 89.7228Z" fill="white"/>
<path d="M139.109 89.7228V119.725C139.109 122.378 136.923 124.537 134.235 124.537H59.1108C56.423 124.537 54.2363 122.378 54.2363 119.725V89.7228C54.2363 87.0696 56.423 84.9111 59.1108 84.9111H134.235C136.923 84.9111 139.109 87.0696 139.109 89.7228ZM134.235 123.971C136.61 123.971 138.536 122.07 138.536 119.725V104.599C138.536 94.0384 129.863 85.4772 119.165 85.4772H59.1108C56.7354 85.4772 54.8098 87.378 54.8098 89.7228V119.725C54.8098 122.07 56.7354 123.971 59.1108 123.971H134.235Z" fill="#334155"/>
<path d="M87.9601 103.037H78.1479C77.9005 103.037 77.6992 103.236 77.6992 103.48C77.6992 103.724 77.9005 103.923 78.1479 103.923H87.9601C88.2075 103.923 88.4086 103.724 88.4086 103.48C88.4086 103.236 88.2075 103.037 87.9601 103.037Z" fill="#2B41B8"/>
<path d="M102.87 103.037H93.058C92.8107 103.037 92.6094 103.236 92.6094 103.48C92.6094 103.724 92.8107 103.923 93.058 103.923H102.87C103.118 103.923 103.319 103.724 103.319 103.48C103.319 103.236 103.118 103.037 102.87 103.037Z" fill="#2B41B8"/>
<path d="M87.9601 107.879H78.1479C77.9005 107.879 77.6992 108.078 77.6992 108.322C77.6992 108.566 77.9005 108.765 78.1479 108.765H87.9601C88.2075 108.765 88.4086 108.566 88.4086 108.322C88.4086 108.078 88.2075 107.879 87.9601 107.879Z" fill="#2B41B8"/>
<path d="M102.87 107.879H93.058C92.8107 107.879 92.6094 108.078 92.6094 108.322C92.6094 108.566 92.8107 108.765 93.058 108.765H102.87C103.118 108.765 103.319 108.566 103.319 108.322C103.319 108.078 103.118 107.879 102.87 107.879Z" fill="#2B41B8"/>
<path d="M118.229 108.322C118.229 108.078 118.028 107.879 117.78 107.879H107.968C107.721 107.879 107.52 108.078 107.52 108.322C107.52 108.566 107.721 108.765 107.968 108.765H117.78C118.028 108.765 118.229 108.566 118.229 108.322Z" fill="#2B41B8"/>
<path d="M82.2238 99.1713C82.4711 99.1713 82.6723 98.9726 82.6723 98.7284C82.6723 98.4842 82.4711 98.2856 82.2238 98.2856H72.4115C72.1642 98.2856 71.9629 98.4842 71.9629 98.7284C71.9629 98.9726 72.1642 99.1713 72.4115 99.1713H82.2238Z" fill="#2B41B8"/>
<path d="M111.121 98.9911H120.933C121.18 98.9911 121.381 98.7924 121.381 98.5483C121.381 98.3041 121.18 98.1055 120.933 98.1055H111.121C110.873 98.1055 110.672 98.3041 110.672 98.5483C110.672 98.7924 110.873 98.9911 111.121 98.9911Z" fill="#2B41B8"/>
<path d="M86.3569 99.0844H106.7C106.947 99.0844 107.148 98.8857 107.148 98.6415C107.148 98.3973 106.947 98.1987 106.7 98.1987H86.3569C86.1095 98.1987 85.9082 98.3973 85.9082 98.6415C85.9082 98.8857 86.1095 99.0844 86.3569 99.0844Z" fill="#2B41B8"/>
<path d="M94.3624 112.278H84.5502C84.3028 112.278 84.1016 112.476 84.1016 112.721C84.1016 112.965 84.3028 113.163 84.5502 113.163H94.3624C94.6098 113.163 94.811 112.965 94.811 112.721C94.811 112.476 94.6098 112.278 94.3624 112.278Z" fill="#2B41B8"/>
<path d="M126.053 89.4967V119.499C126.053 122.152 123.866 124.311 121.178 124.311H90.7846C88.0968 124.311 85.9102 122.152 85.9102 119.499V89.4967C85.9102 86.8435 88.0968 84.6851 90.7846 84.6851H121.178C123.866 84.6851 126.053 86.8435 126.053 89.4967Z" fill="white"/>
<path d="M126.053 89.4967V119.499C126.053 122.152 123.866 124.311 121.178 124.311H90.7846C88.0968 124.311 85.9102 122.152 85.9102 119.499V89.4967C85.9102 86.8435 88.0968 84.6851 90.7846 84.6851H121.178C123.866 84.6851 126.053 86.8435 126.053 89.4967ZM119.293 123.744C122.71 123.744 125.479 121.01 125.479 117.638V104.373C125.479 93.8123 116.807 85.2511 106.108 85.2511H90.7846C88.4093 85.2511 86.4836 87.152 86.4836 89.4967V115.313C86.4836 119.97 90.3078 123.744 95.0252 123.744L119.293 123.744Z" fill="#334155"/>
<path d="M110.028 96.9384H100.216C99.9689 96.9384 99.7676 96.7397 99.7676 96.4955C99.7676 96.2513 99.9689 96.0527 100.216 96.0527H110.028C110.276 96.0527 110.477 96.2513 110.477 96.4955C110.477 96.7397 110.276 96.9384 110.028 96.9384Z" fill="#2B41B8"/>
<path d="M110.028 106.382H100.216C99.9689 106.382 99.7676 106.183 99.7676 105.939C99.7676 105.695 99.9689 105.496 100.216 105.496H110.028C110.276 105.496 110.477 105.695 110.477 105.939C110.477 106.183 110.276 106.382 110.028 106.382Z" fill="#2B41B8"/>
<path d="M105.153 119.401H95.3412C95.0939 119.401 94.8926 119.203 94.8926 118.958C94.8926 118.714 95.0939 118.516 95.3412 118.516H105.153C105.401 118.516 105.602 118.714 105.602 118.958C105.602 119.203 105.401 119.401 105.153 119.401Z" fill="#2B41B8"/>
<path d="M115.293 101.663H94.9506C94.7032 101.663 94.502 101.464 94.502 101.22C94.502 100.976 94.7032 100.777 94.9506 100.777H115.293C115.541 100.777 115.742 100.976 115.742 101.22C115.742 101.464 115.541 101.663 115.293 101.663Z" fill="#2B41B8"/>
<path d="M120.333 72.8716C120.333 63.5123 112.319 58.3637 103.165 55.9251C91.4286 52.7987 82.8332 59.1252 85.9971 72.8716C86.7142 75.9871 88.4293 79.6259 90.5523 82.7384H107.399C113.026 79.122 120.333 80.1362 120.333 72.8716Z" fill="#2B41B8"/>
<path d="M102.914 90.5645C103.872 88.7611 105.087 87.4601 106.426 86.4697H90.6465C94.7077 92.1961 100.093 95.8713 102.914 90.5645Z" fill="#2B41B8"/>
<path d="M101.091 62.8521C102.104 62.8521 102.925 63.6627 102.925 64.6626V68.2837H99.2571V64.6626C99.2571 63.6627 100.078 62.8521 101.091 62.8521ZM103.843 68.2837V64.6626C103.843 63.1627 102.611 61.9468 101.091 61.9468C99.5718 61.9468 98.34 63.1627 98.34 64.6626V68.2837C97.3271 68.2837 96.5059 69.0943 96.5059 70.0942V74.6206C96.5059 75.6205 97.3271 76.4311 98.34 76.4311H103.843C104.856 76.4311 105.677 75.6205 105.677 74.6206V70.0942C105.677 69.0943 104.856 68.2837 103.843 68.2837ZM98.34 69.189H103.843C104.349 69.189 104.76 69.5943 104.76 70.0942V74.6206C104.76 75.1206 104.349 75.5259 103.843 75.5259H98.34C97.8335 75.5259 97.423 75.1206 97.423 74.6206V70.0942C97.423 69.5943 97.8336 69.189 98.34 69.189Z" fill="white"/>
<path d="M74.8815 83.9333C74.6603 85.7561 75.4337 87.3463 76.6088 87.4852C77.7839 87.6242 78.9157 86.2591 79.1369 84.4363C79.2337 83.6384 79.1399 82.8851 78.9053 82.2785L79.7442 74.5432L76.0585 74.2319L75.6227 81.8905C75.2496 82.4252 74.9783 83.1354 74.8815 83.9333Z" fill="#FFB6B6"/>
<path d="M75.7657 37.7857C75.7657 37.7857 79.78 36.6535 80.6402 38.3518C81.5004 40.05 83.5075 62.4101 83.5075 62.4101L79.6366 80.2583L75.1922 79.1094L77.4861 60.9949L74.332 47.409L75.7657 37.7857Z" fill="#E6E6E6"/>
<path d="M16.7739 92.0839C26.0379 92.0839 33.5478 84.6707 33.5478 75.5261C33.5478 66.3814 26.0379 58.9683 16.7739 58.9683C7.50994 58.9683 0 66.3814 0 75.5261C0 84.6707 7.50994 92.0839 16.7739 92.0839Z" fill="#2B41B8"/>
<path d="M16.7739 68.1136C17.9588 68.1136 18.9194 69.0618 18.9194 70.2315V74.4672H14.6284V70.2315C14.6284 69.0618 15.589 68.1136 16.7739 68.1136ZM19.9922 74.4672V70.2315C19.9922 68.477 18.5513 67.0547 16.7739 67.0547C14.9965 67.0547 13.5557 68.477 13.5557 70.2315V74.4672C12.3707 74.4672 11.4102 75.4154 11.4102 76.5851V81.8797C11.4102 83.0494 12.3707 83.9976 13.5557 83.9976H19.9922C21.1771 83.9976 22.1377 83.0494 22.1377 81.8797V76.5851C22.1377 75.4154 21.1771 74.4672 19.9922 74.4672ZM13.5557 75.5261H19.9922C20.5846 75.5261 21.0649 76.0002 21.0649 76.5851V81.8797C21.0649 82.4645 20.5846 82.9386 19.9922 82.9386H13.5557C12.9632 82.9386 12.4829 82.4645 12.4829 81.8797V76.5851C12.4829 76.0002 12.9632 75.5261 13.5557 75.5261Z" fill="white"/>
</g>
<defs>
<clipPath id="clip0_11086_28441">
<rect width="162" height="145" fill="white"/>
</clipPath>
</defs>
</svg>
