<svg width="12" height="14" viewBox="0 0 12 14" fill="none" xmlns="http://www.w3.org/2000/svg">
<path d="M2.33333 3.85C2.33333 2.82892 2.71964 1.84965 3.40727 1.12764C4.09491 0.405624 5.02754 0 6 0C6.97246 0 7.90509 0.405624 8.59273 1.12764C9.28036 1.84965 9.66667 2.82892 9.66667 3.85C9.66667 4.87108 9.28036 5.85035 8.59273 6.57236C7.90509 7.29438 6.97246 7.7 6 7.7C5.02754 7.7 4.09491 7.29438 3.40727 6.57236C2.71964 5.85035 2.33333 4.87108 2.33333 3.85ZM0 11.9C0 10.9717 0.351189 10.0815 0.976311 9.42513C1.60143 8.76875 2.44928 8.4 3.33333 8.4H8.66667C9.55072 8.4 10.3986 8.76875 11.0237 9.42513C11.6488 10.0815 12 10.9717 12 11.9V14H0V11.9Z" fill="#2B41B8"/>
</svg>
