<svg width="18" height="18" viewBox="0 0 18 18" fill="none" xmlns="http://www.w3.org/2000/svg">
<path d="M7.89588 18C7.64887 18 7.43476 17.9237 7.25357 17.771C7.07168 17.6183 6.95879 17.428 6.91491 17.2L6.63569 15.108C6.29667 15.0113 5.93004 14.86 5.53581 14.654C5.14229 14.4473 4.80716 14.226 4.53043 13.99L2.49735 14.814C2.27299 14.9073 2.04509 14.9173 1.81365 14.844C1.5822 14.7707 1.40385 14.6323 1.27857 14.429L0.133043 12.57C0.00776715 12.3667 -0.029037 12.154 0.0226303 11.932C0.0742976 11.71 0.19745 11.528 0.392087 11.386L2.16718 10.136C2.13533 9.95467 2.10949 9.76834 2.08968 9.577C2.06844 9.385 2.05783 9.19867 2.05783 9.018C2.05783 8.85 2.06844 8.67334 2.08968 8.488C2.10949 8.30267 2.13533 8.094 2.16718 7.862L0.392087 6.612C0.19745 6.47 0.0778364 6.285 0.0332468 6.057C-0.0113428 5.829 0.0286465 5.613 0.153214 5.409L1.27857 3.609C1.40385 3.41767 1.5822 3.28234 1.81365 3.203C2.04509 3.12367 2.27299 3.13067 2.49735 3.224L4.51025 4.028C4.82733 3.77934 5.1706 3.555 5.54006 3.355C5.9081 3.155 6.26659 3.00034 6.61552 2.891L6.91597 0.799004C6.95914 0.571004 7.07168 0.380671 7.25357 0.228004C7.43547 0.0753376 7.64957 -0.000662319 7.89588 4.34783e-06H10.1041C10.3511 4.34783e-06 10.5652 0.0763378 10.7464 0.229004C10.9283 0.381671 11.0412 0.572004 11.0851 0.800004L11.3643 2.912C11.7713 3.04667 12.1308 3.201 12.443 3.375C12.7551 3.549 13.0768 3.767 13.408 4.029L15.5228 3.225C15.7479 3.13167 15.9761 3.12467 16.2076 3.204C16.439 3.28334 16.617 3.41867 16.7416 3.61L17.867 5.429C17.9922 5.633 18.029 5.84567 17.9774 6.067C17.9257 6.28834 17.8026 6.47067 17.6079 6.614L15.7521 7.92C15.8102 8.12667 15.8427 8.31634 15.8498 8.489C15.8569 8.66167 15.8604 8.83167 15.8604 8.999C15.8604 9.15434 15.8533 9.318 15.8392 9.49C15.8257 9.66267 15.7946 9.87134 15.7458 10.116L17.54 11.386C17.7346 11.528 17.8613 11.71 17.92 11.932C17.9788 12.154 17.9455 12.3667 17.8202 12.57L16.6885 14.409C16.564 14.613 16.3824 14.7513 16.1439 14.824C15.9054 14.8973 15.6739 14.8873 15.4496 14.794L13.408 13.97C13.0775 14.232 12.7448 14.4563 12.41 14.643C12.0753 14.8297 11.7267 14.978 11.3643 15.088L11.084 17.199C11.0409 17.427 10.9283 17.6173 10.7464 17.77C10.5645 17.9227 10.3504 17.9993 10.1041 18H7.89588ZM8.97134 11.5C9.71166 11.5 10.3391 11.2577 10.8537 10.773C11.3682 10.2883 11.6255 9.69734 11.6255 9C11.6255 8.30267 11.3682 7.71167 10.8537 7.227C10.3391 6.74234 9.71166 6.5 8.97134 6.5C8.22676 6.5 7.59826 6.74234 7.08583 7.227C6.57341 7.71167 6.31719 8.30267 6.31719 9C6.31719 9.69734 6.57341 10.2883 7.08583 10.773C7.59826 11.2577 8.22676 11.5 8.97134 11.5Z" fill="#2B41B8"/>
</svg>
