<svg width="21" height="20" viewBox="0 0 21 20" fill="none" xmlns="http://www.w3.org/2000/svg">
<path d="M10.45 16C10.8 16 11.096 15.879 11.338 15.637C11.58 15.395 11.7007 15.0993 11.7 14.75C11.6993 14.4007 11.5787 14.1047 11.338 13.862C11.0973 13.6193 10.8013 13.4987 10.45 13.5C10.0987 13.5013 9.803 13.6223 9.563 13.863C9.323 14.1037 9.202 14.3993 9.2 14.75C9.198 15.1007 9.319 15.3967 9.563 15.638C9.807 15.8793 10.1027 16 10.45 16ZM10.5 20C9.11667 20 7.81667 19.7373 6.6 19.212C5.38334 18.6867 4.325 17.9743 3.425 17.075C2.525 16.1757 1.81267 15.1173 1.288 13.9C0.763335 12.6827 0.500668 11.3827 0.500001 10C0.499335 8.61733 0.762001 7.31733 1.288 6.1C1.814 4.88267 2.52633 3.82433 3.425 2.925C4.32367 2.02567 5.382 1.31333 6.6 0.788C7.818 0.262667 9.118 0 10.5 0C11.882 0 13.182 0.262667 14.4 0.788C15.618 1.31333 16.6763 2.02567 17.575 2.925C18.4737 3.82433 19.1863 4.88267 19.713 6.1C20.2397 7.31733 20.502 8.61733 20.5 10C20.498 11.3827 20.2353 12.6827 19.712 13.9C19.1887 15.1173 18.4763 16.1757 17.575 17.075C16.6737 17.9743 15.6153 18.687 14.4 19.213C13.1847 19.739 11.8847 20.0013 10.5 20ZM10.6 5.7C11.0167 5.7 11.3793 5.83333 11.688 6.1C11.9967 6.36667 12.1507 6.7 12.15 7.1C12.15 7.46667 12.0377 7.79167 11.813 8.075C11.5883 8.35833 11.334 8.625 11.05 8.875C10.6667 9.20833 10.3293 9.575 10.038 9.975C9.74667 10.375 9.60067 10.825 9.6 11.325C9.6 11.5583 9.68767 11.7543 9.863 11.913C10.0383 12.0717 10.2423 12.1507 10.475 12.15C10.725 12.15 10.9377 12.0667 11.113 11.9C11.2883 11.7333 11.4007 11.525 11.45 11.275C11.5167 10.925 11.6667 10.6127 11.9 10.338C12.1333 10.0633 12.3833 9.80067 12.65 9.55C13.0333 9.18333 13.3627 8.78333 13.638 8.35C13.9133 7.91667 14.0507 7.43333 14.05 6.9C14.05 6.05 13.7043 5.35433 13.013 4.813C12.3217 4.27167 11.5173 4.00067 10.6 4C9.96667 4 9.36267 4.13333 8.788 4.4C8.21333 4.66667 7.77567 5.075 7.475 5.625C7.35834 5.825 7.321 6.03767 7.363 6.263C7.405 6.48833 7.51733 6.659 7.7 6.775C7.93333 6.90833 8.175 6.95 8.425 6.9C8.675 6.85 8.88333 6.70833 9.05 6.475C9.23333 6.225 9.46267 6.03333 9.738 5.9C10.0133 5.76667 10.3007 5.7 10.6 5.7Z" fill="#2B41B8"/>
</svg>
